%TF.GenerationSoftware,KiCad,Pcbnew,9.0.0*%
%TF.CreationDate,2025-05-04T19:05:18+10:00*%
%TF.ProjectId,CombinedMBTHB,436f6d62-696e-4656-944d-425448422e6b,rev?*%
%TF.SameCoordinates,Original*%
%TF.FileFunction,Profile,NP*%
%FSLAX46Y46*%
G04 Gerber Fmt 4.6, Leading zero omitted, Abs format (unit mm)*
G04 Created by KiCad (PCBNEW 9.0.0) date 2025-05-04 19:05:18*
%MOMM*%
%LPD*%
G01*
G04 APERTURE LIST*
%TA.AperFunction,Profile*%
%ADD10C,0.200000*%
%TD*%
G04 APERTURE END LIST*
D10*
X214898765Y-105164605D02*
X217898765Y-105064605D01*
X217898765Y-106564605D01*
X261998765Y-106364605D01*
X261998765Y-111064605D01*
X64798765Y-111164605D01*
X64898765Y-104664605D01*
X214898765Y-105164605D01*
%TA.AperFunction,Profile*%
G36*
X214898765Y-105164605D02*
G01*
X217898765Y-105064605D01*
X217898765Y-106564605D01*
X261998765Y-106364605D01*
X261998765Y-111064605D01*
X64798765Y-111164605D01*
X64898765Y-104664605D01*
X214898765Y-105164605D01*
G37*
%TD.AperFunction*%
X264500000Y-97300000D02*
X264500000Y-94300000D01*
X233399131Y-64300000D02*
X223396551Y-64301055D01*
X226301099Y-104300000D02*
X230500000Y-104300000D01*
X230500000Y-104300000D02*
X230500000Y-105800000D01*
X216000000Y-63800000D02*
X216000000Y-97800000D01*
X223396551Y-64301055D02*
X223396551Y-61800000D01*
X233399131Y-61800000D02*
X233399131Y-64300000D01*
X262000000Y-105800000D02*
X262000000Y-97300000D01*
X226301099Y-105790499D02*
X226301099Y-104300000D01*
X254898662Y-61800000D02*
X254898662Y-63301055D01*
X230500000Y-105800000D02*
X262000000Y-105800000D01*
X262000000Y-97300000D02*
X264500000Y-97300000D01*
X258500000Y-61800000D02*
X258500000Y-63300000D01*
X264500000Y-94300000D02*
X266000000Y-94300000D01*
X258500000Y-63300000D02*
X254898662Y-63301055D01*
X220307880Y-105790499D02*
X220299262Y-97797624D01*
X216000000Y-97800000D02*
X220299262Y-97797624D01*
X220307880Y-105790499D02*
X226301099Y-105790499D01*
X216000000Y-63800000D02*
G75*
G02*
X218000000Y-61800000I2000000J0D01*
G01*
X264000000Y-61800000D02*
G75*
G02*
X266000000Y-63800000I0J-2000000D01*
G01*
X266000000Y-94300000D02*
X266000000Y-63800000D01*
X245050000Y-44250000D02*
X65050000Y-44250000D01*
X215050000Y-104250000D02*
X215050000Y-61250000D01*
X65050000Y-104250000D02*
X215050000Y-104250000D01*
X215050000Y-61250000D02*
X245050000Y-61250000D01*
X97550000Y-54250000D02*
G75*
G02*
X92550000Y-54250000I-2500000J0D01*
G01*
X92550000Y-54250000D02*
G75*
G02*
X97550000Y-54250000I2500000J0D01*
G01*
X65050000Y-44250000D02*
X65050000Y-104250000D01*
X245050000Y-61250000D02*
X245050000Y-44250000D01*
X223396551Y-61800000D02*
X218000000Y-61800000D01*
X264000000Y-61800000D02*
X258500000Y-61800000D01*
X254898662Y-61800000D02*
X233399131Y-61800000D01*
M02*
