%TF.GenerationSoftware,KiCad,Pcbnew,9.0.0*%
%TF.CreationDate,2025-05-04T18:41:49+10:00*%
%TF.ProjectId,A1_MB,41315f4d-422e-46b6-9963-61645f706362,rev?*%
%TF.SameCoordinates,Original*%
%TF.FileFunction,Soldermask,Bot*%
%TF.FilePolarity,Negative*%
%FSLAX46Y46*%
G04 Gerber Fmt 4.6, Leading zero omitted, Abs format (unit mm)*
G04 Created by KiCad (PCBNEW 9.0.0) date 2025-05-04 18:41:49*
%MOMM*%
%LPD*%
G01*
G04 APERTURE LIST*
G04 Aperture macros list*
%AMRoundRect*
0 Rectangle with rounded corners*
0 $1 Rounding radius*
0 $2 $3 $4 $5 $6 $7 $8 $9 X,Y pos of 4 corners*
0 Add a 4 corners polygon primitive as box body*
4,1,4,$2,$3,$4,$5,$6,$7,$8,$9,$2,$3,0*
0 Add four circle primitives for the rounded corners*
1,1,$1+$1,$2,$3*
1,1,$1+$1,$4,$5*
1,1,$1+$1,$6,$7*
1,1,$1+$1,$8,$9*
0 Add four rect primitives between the rounded corners*
20,1,$1+$1,$2,$3,$4,$5,0*
20,1,$1+$1,$4,$5,$6,$7,0*
20,1,$1+$1,$6,$7,$8,$9,0*
20,1,$1+$1,$8,$9,$2,$3,0*%
G04 Aperture macros list end*
%ADD10RoundRect,0.250000X0.725000X-0.600000X0.725000X0.600000X-0.725000X0.600000X-0.725000X-0.600000X0*%
%ADD11O,1.950000X1.700000*%
%ADD12R,1.590000X1.590000*%
%ADD13C,1.590000*%
%ADD14C,1.600000*%
%ADD15O,1.600000X1.600000*%
%ADD16R,1.700000X1.700000*%
%ADD17O,1.700000X1.700000*%
%ADD18C,5.000000*%
%ADD19O,3.000000X6.500000*%
%ADD20C,1.200000*%
%ADD21RoundRect,0.250000X0.600000X0.725000X-0.600000X0.725000X-0.600000X-0.725000X0.600000X-0.725000X0*%
%ADD22O,1.700000X1.950000*%
%ADD23RoundRect,0.250000X-0.750000X0.600000X-0.750000X-0.600000X0.750000X-0.600000X0.750000X0.600000X0*%
%ADD24O,2.000000X1.700000*%
%ADD25C,1.020000*%
%ADD26RoundRect,0.250001X-0.499999X0.499999X-0.499999X-0.499999X0.499999X-0.499999X0.499999X0.499999X0*%
%ADD27C,1.500000*%
%ADD28C,1.700000*%
%ADD29R,2.000000X2.000000*%
%ADD30C,2.000000*%
%ADD31R,1.228000X1.228000*%
%ADD32C,1.228000*%
%ADD33RoundRect,0.250000X-0.600000X-0.725000X0.600000X-0.725000X0.600000X0.725000X-0.600000X0.725000X0*%
%ADD34R,1.850000X1.850000*%
%ADD35C,1.850000*%
%ADD36RoundRect,0.250000X0.750000X-0.600000X0.750000X0.600000X-0.750000X0.600000X-0.750000X-0.600000X0*%
%ADD37R,2.600000X2.600000*%
%ADD38C,2.600000*%
%ADD39RoundRect,0.250000X-0.512000X-0.512000X0.512000X-0.512000X0.512000X0.512000X-0.512000X0.512000X0*%
%ADD40C,1.524000*%
%ADD41C,3.500000*%
G04 APERTURE END LIST*
D10*
%TO.C,J7*%
X168750000Y-43000000D03*
D11*
X168750000Y-40500000D03*
X168750000Y-38000000D03*
%TD*%
D10*
%TO.C,MotorConnector1*%
X157750000Y-88500000D03*
D11*
X157750000Y-86000000D03*
X157750000Y-83500000D03*
X157750000Y-81000000D03*
%TD*%
D12*
%TO.C,D5*%
X188500000Y-70430000D03*
D13*
X188525400Y-63218000D03*
%TD*%
D14*
%TO.C,R15*%
X97310000Y-78580000D03*
D15*
X97310000Y-88740000D03*
%TD*%
D16*
%TO.C,J16*%
X143145000Y-72660000D03*
D17*
X145685000Y-72660000D03*
%TD*%
D18*
%TO.C,H4*%
X217500000Y-37500000D03*
%TD*%
D12*
%TO.C,D4*%
X207500000Y-43250000D03*
D13*
X207525400Y-36038000D03*
%TD*%
D19*
%TO.C,F1*%
X178749999Y-83250000D03*
X178750000Y-90750000D03*
%TD*%
D14*
%TO.C,R17*%
X206500000Y-50920000D03*
D15*
X206500000Y-61080000D03*
%TD*%
D20*
%TO.C,J25*%
X74850000Y-49250000D03*
D21*
X73250000Y-51250000D03*
D22*
X70750000Y-51250000D03*
X68250000Y-51250000D03*
%TD*%
D14*
%TO.C,R19*%
X203500000Y-61080000D03*
D15*
X203500000Y-50920000D03*
%TD*%
D16*
%TO.C,J24*%
X97120000Y-71890000D03*
D17*
X99660000Y-71890000D03*
%TD*%
D23*
%TO.C,J6*%
X190000000Y-38000000D03*
D24*
X190000000Y-40500000D03*
%TD*%
D14*
%TO.C,R22*%
X190460000Y-61080000D03*
D15*
X190460000Y-50920000D03*
%TD*%
D14*
%TO.C,R24*%
X177950000Y-61080000D03*
D15*
X177950000Y-50920000D03*
%TD*%
D25*
%TO.C,J5*%
X199250000Y-76250000D03*
X199250000Y-85250000D03*
D26*
X203190000Y-79250000D03*
D27*
X203190000Y-82250000D03*
X200190000Y-79250000D03*
X200190000Y-82250000D03*
%TD*%
D12*
%TO.C,D3*%
X210180000Y-68000000D03*
D13*
X202968000Y-67974600D03*
%TD*%
D14*
%TO.C,R16*%
X209500000Y-50920000D03*
D15*
X209500000Y-61080000D03*
%TD*%
D12*
%TO.C,D1*%
X184250000Y-43366500D03*
D13*
X184275400Y-36154500D03*
%TD*%
D16*
%TO.C,M4*%
X94410000Y-75400000D03*
D28*
X94410000Y-77940000D03*
X94410000Y-80480000D03*
X94410000Y-83020000D03*
X94410000Y-85560000D03*
X94410000Y-88100000D03*
X94410000Y-90640000D03*
X94410000Y-93180000D03*
X107110000Y-93180000D03*
X107110000Y-90640000D03*
X107110000Y-88100000D03*
X107110000Y-85560000D03*
X107110000Y-83020000D03*
X107110000Y-80480000D03*
X107110000Y-77940000D03*
X107110000Y-75400000D03*
X96950000Y-75400000D03*
X99490000Y-75400000D03*
%TD*%
D16*
%TO.C,M1*%
X140570000Y-76050000D03*
D28*
X140570000Y-78590000D03*
X140570000Y-81130000D03*
X140570000Y-83670000D03*
X140570000Y-86210000D03*
X140570000Y-88750000D03*
X140570000Y-91290000D03*
X140570000Y-93830000D03*
X153270000Y-93830000D03*
X153270000Y-91290000D03*
X153270000Y-88750000D03*
X153270000Y-86210000D03*
X153270000Y-83670000D03*
X153270000Y-81130000D03*
X153270000Y-78590000D03*
X153270000Y-76050000D03*
X143110000Y-76050000D03*
X145650000Y-76050000D03*
%TD*%
D14*
%TO.C,R14*%
X120750000Y-77920000D03*
D15*
X120750000Y-88080000D03*
%TD*%
D14*
%TO.C,R13*%
X74610000Y-78660000D03*
D15*
X74610000Y-88820000D03*
%TD*%
D14*
%TO.C,R9*%
X138464000Y-44240000D03*
D15*
X128304000Y-44240000D03*
%TD*%
D29*
%TO.C,C3*%
X87910000Y-71812144D03*
X89910000Y-71140000D03*
D30*
X89910000Y-66140000D03*
X91910000Y-65467856D03*
%TD*%
D18*
%TO.C,H3*%
X67500000Y-92500000D03*
%TD*%
D31*
%TO.C,Q10*%
X179422500Y-48010000D03*
D32*
X181962500Y-48010000D03*
X184502500Y-48010000D03*
%TD*%
D31*
%TO.C,Q5*%
X203960000Y-64750000D03*
D32*
X206500000Y-64750000D03*
X209040000Y-64750000D03*
%TD*%
D16*
%TO.C,J15*%
X220750000Y-46000000D03*
D17*
X220750000Y-48540000D03*
%TD*%
D16*
%TO.C,M3*%
X117660000Y-75400000D03*
D28*
X117660000Y-77940000D03*
X117660000Y-80480000D03*
X117660000Y-83020000D03*
X117660000Y-85560000D03*
X117660000Y-88100000D03*
X117660000Y-90640000D03*
X117660000Y-93180000D03*
X130360000Y-93180000D03*
X130360000Y-90640000D03*
X130360000Y-88100000D03*
X130360000Y-85560000D03*
X130360000Y-83020000D03*
X130360000Y-80480000D03*
X130360000Y-77940000D03*
X130360000Y-75400000D03*
X120200000Y-75400000D03*
X122740000Y-75400000D03*
%TD*%
D31*
%TO.C,Q7*%
X190960000Y-64750000D03*
D32*
X193500000Y-64750000D03*
X196040000Y-64750000D03*
%TD*%
D14*
%TO.C,R10*%
X193000000Y-86920000D03*
D15*
X193000000Y-76760000D03*
%TD*%
D16*
%TO.C,J3*%
X156750000Y-36960000D03*
D17*
X156750000Y-39500000D03*
X156750000Y-42040000D03*
%TD*%
D33*
%TO.C,J2*%
X199250000Y-91000000D03*
D22*
X201750000Y-91000000D03*
X204250000Y-91000000D03*
%TD*%
D33*
%TO.C,J8*%
X88600000Y-53000000D03*
D22*
X91100000Y-53000000D03*
X93600000Y-53000000D03*
X96100000Y-53000000D03*
%TD*%
D14*
%TO.C,R21*%
X193460000Y-50920000D03*
D15*
X193460000Y-61080000D03*
%TD*%
D20*
%TO.C,J17*%
X74750000Y-63250000D03*
D21*
X73150000Y-65250000D03*
D22*
X70650000Y-65250000D03*
X68150000Y-65250000D03*
%TD*%
D16*
%TO.C,M2*%
X71910000Y-75360000D03*
D28*
X71910000Y-77900000D03*
X71910000Y-80440000D03*
X71910000Y-82980000D03*
X71910000Y-85520000D03*
X71910000Y-88060000D03*
X71910000Y-90600000D03*
X71910000Y-93140000D03*
X84610000Y-93140000D03*
X84610000Y-90600000D03*
X84610000Y-88060000D03*
X84610000Y-85520000D03*
X84610000Y-82980000D03*
X84610000Y-80440000D03*
X84610000Y-77900000D03*
X84610000Y-75360000D03*
X74450000Y-75360000D03*
X76990000Y-75360000D03*
%TD*%
D17*
%TO.C,U1*%
X149944000Y-39750000D03*
X147404000Y-39750000D03*
D28*
X144864000Y-39750000D03*
D17*
X142324000Y-39750000D03*
X139784000Y-39750000D03*
X137244000Y-39750000D03*
X134704000Y-39750000D03*
D28*
X132164000Y-39750000D03*
D17*
X129624000Y-39750000D03*
X127084000Y-39750000D03*
X124544000Y-39750000D03*
X122004000Y-39750000D03*
D28*
X119464000Y-39750000D03*
D17*
X116924000Y-39750000D03*
X114384000Y-39750000D03*
X111844000Y-39750000D03*
X109304000Y-39750000D03*
D28*
X106764000Y-39750000D03*
D16*
X104224000Y-39750000D03*
D17*
X101684000Y-39750000D03*
X101684000Y-54990000D03*
X104224000Y-54990000D03*
D28*
X106764000Y-54990000D03*
D17*
X109304000Y-54990000D03*
X111844000Y-54990000D03*
X114384000Y-54990000D03*
X116924000Y-54990000D03*
D28*
X119464000Y-54990000D03*
D17*
X122004000Y-54990000D03*
X124544000Y-54990000D03*
X127084000Y-54990000D03*
X129624000Y-54990000D03*
D28*
X132164000Y-54990000D03*
D17*
X134704000Y-54990000D03*
X137244000Y-54990000D03*
X139784000Y-54990000D03*
X142324000Y-54990000D03*
D28*
X144864000Y-54990000D03*
D16*
X147404000Y-54990000D03*
D17*
X149944000Y-54990000D03*
%TD*%
D14*
%TO.C,R23*%
X187500000Y-61080000D03*
D15*
X187500000Y-50920000D03*
%TD*%
D31*
%TO.C,Q9*%
X172422500Y-48010000D03*
D32*
X174962500Y-48010000D03*
X177502500Y-48010000D03*
%TD*%
D10*
%TO.C,J20*%
X89160000Y-88140000D03*
D11*
X89160000Y-85640000D03*
X89160000Y-83140000D03*
X89160000Y-80640000D03*
%TD*%
D12*
%TO.C,D6*%
X194500000Y-43366500D03*
D13*
X194525400Y-36154500D03*
%TD*%
D18*
%TO.C,H2*%
X195000000Y-70000000D03*
%TD*%
D16*
%TO.C,J14*%
X224500000Y-46000000D03*
D17*
X224500000Y-48540000D03*
%TD*%
D29*
%TO.C,C4*%
X154410000Y-72294821D03*
X156410000Y-71622677D03*
D30*
X156410000Y-66622677D03*
X158410000Y-65950533D03*
%TD*%
D14*
%TO.C,R18*%
X200500000Y-61080000D03*
D15*
X200500000Y-50920000D03*
%TD*%
D12*
%TO.C,D2*%
X174250000Y-43430000D03*
D13*
X174275400Y-36218000D03*
%TD*%
D14*
%TO.C,R20*%
X196460000Y-50920000D03*
D15*
X196460000Y-61080000D03*
%TD*%
D14*
%TO.C,R26*%
X184250000Y-61080000D03*
D15*
X184250000Y-50920000D03*
%TD*%
D16*
%TO.C,J21*%
X120370000Y-71890000D03*
D17*
X122910000Y-71890000D03*
%TD*%
D23*
%TO.C,J4*%
X179750000Y-38000000D03*
D24*
X179750000Y-40500000D03*
%TD*%
D20*
%TO.C,J19*%
X74750000Y-56250000D03*
D21*
X73150000Y-58250000D03*
D22*
X70650000Y-58250000D03*
X68150000Y-58250000D03*
%TD*%
D10*
%TO.C,J26*%
X111910000Y-88140000D03*
D11*
X111910000Y-85640000D03*
X111910000Y-83140000D03*
X111910000Y-80640000D03*
%TD*%
D34*
%TO.C,Q6*%
X202000000Y-48000000D03*
D35*
X204540000Y-48000000D03*
X207080000Y-48000000D03*
%TD*%
D29*
%TO.C,C1*%
X110410000Y-72794821D03*
X112410000Y-72122677D03*
D30*
X112410000Y-67122677D03*
X114410000Y-66450533D03*
%TD*%
D33*
%TO.C,J11*%
X185500000Y-90920000D03*
D22*
X188000000Y-90920000D03*
X190500000Y-90920000D03*
X193000000Y-90920000D03*
%TD*%
D16*
%TO.C,J18*%
X74370000Y-71640000D03*
D17*
X76910000Y-71640000D03*
%TD*%
D34*
%TO.C,Q8*%
X188920000Y-48000000D03*
D35*
X191460000Y-48000000D03*
X194000000Y-48000000D03*
%TD*%
D14*
%TO.C,R12*%
X143750000Y-78750000D03*
D15*
X143750000Y-88910000D03*
%TD*%
D10*
%TO.C,J23*%
X135070000Y-87890000D03*
D11*
X135070000Y-85390000D03*
X135070000Y-82890000D03*
X135070000Y-80390000D03*
%TD*%
D29*
%TO.C,C5*%
X167345179Y-74000000D03*
X168017323Y-76000000D03*
D30*
X173017323Y-76000000D03*
X173689467Y-78000000D03*
%TD*%
D14*
%TO.C,R27*%
X181250000Y-61080000D03*
D15*
X181250000Y-50920000D03*
%TD*%
D36*
%TO.C,J9*%
X202000000Y-40500000D03*
D24*
X202000000Y-38000000D03*
%TD*%
D20*
%TO.C,J22*%
X74850000Y-42250000D03*
D21*
X73250000Y-44250000D03*
D22*
X70750000Y-44250000D03*
X68250000Y-44250000D03*
%TD*%
D29*
%TO.C,C2*%
X133660000Y-72062144D03*
X135660000Y-71390000D03*
D30*
X135660000Y-66390000D03*
X137660000Y-65717856D03*
%TD*%
D14*
%TO.C,R11*%
X188000000Y-87000000D03*
D15*
X188000000Y-76840000D03*
%TD*%
D14*
%TO.C,R25*%
X174750000Y-61080000D03*
D15*
X174750000Y-50920000D03*
%TD*%
D37*
%TO.C,J10*%
X167705000Y-88321000D03*
D38*
X172785000Y-88321000D03*
%TD*%
D18*
%TO.C,H1*%
X67500000Y-37500000D03*
%TD*%
%TO.C,H5*%
X212500000Y-92500000D03*
%TD*%
D39*
%TO.C,J13*%
X233000000Y-36790000D03*
D40*
X235500000Y-36790000D03*
X237500000Y-36790000D03*
X240000000Y-36790000D03*
D41*
X229930000Y-39500000D03*
X243070000Y-39500000D03*
%TD*%
M02*
