<?xml version="1.0" standalone="no"?>
<!DOCTYPE svg PUBLIC "-//W3C//DTD SVG 20010904//EN"
 "http://www.w3.org/TR/2001/REC-SVG-20010904/DTD/svg10.dtd">
<svg version="1.0" xmlns="http://www.w3.org/2000/svg"
 width="900.000000pt" height="306.000000pt" viewBox="0 0 900.000000 306.000000"
 preserveAspectRatio="xMidYMid meet">
<metadata>
Created by potrace 1.10, written by Peter Selinger 2001-2011
</metadata>
<g transform="translate(0.000000,306.000000) scale(0.100000,-0.100000)"
fill="#000000" stroke="none">
<path d="M13 3033 c-10 -20 -13 -116 -13 -366 l0 -339 55 4 c31 2 55 -1 56 -7
1 -5 -19 -21 -44 -35 -26 -13 -49 -30 -51 -37 -9 -23 26 -458 38 -465 6 -4 37
-8 69 -8 57 0 57 0 57 30 0 31 9 36 39 21 14 -8 17 -26 19 -106 2 -84 0 -99
-18 -122 -25 -32 -26 -67 -1 -92 15 -15 20 -41 26 -141 5 -98 10 -125 25 -140
19 -19 16 -30 -8 -30 -9 0 -24 -8 -35 -17 -10 -10 -42 -20 -70 -23 -53 -5 -73
-24 -37 -35 l22 -7 -21 -15 -21 -14 22 -19 23 -18 -44 -40 -44 -40 11 -74 c7
-40 14 -217 15 -393 4 -287 6 -324 22 -348 9 -15 21 -27 26 -27 14 0 10 44 -6
66 -8 10 -15 40 -15 66 0 39 5 52 34 82 31 33 38 36 90 36 53 0 61 -3 97 -39
37 -36 39 -42 41 -100 1 -57 -1 -65 -28 -92 -18 -18 -51 -36 -80 -43 -27 -7
-48 -18 -46 -25 1 -6 -5 -25 -13 -41 -8 -16 -15 -32 -15 -35 0 -10 1539 -5
1545 5 8 13 45 13 45 0 0 -6 40 -10 100 -10 l100 0 0 35 c0 31 3 35 25 35 22
0 25 -4 25 -35 l0 -35 92 0 c72 0 89 3 80 12 -15 15 -16 55 -1 64 15 9 232 5
242 -5 5 -5 1 -23 -7 -40 l-17 -31 640 0 639 0 7 85 c8 92 4 220 -8 231 -3 4
-13 1 -21 -5 -8 -7 -25 -11 -38 -9 -44 6 -31 78 14 78 10 0 21 -7 24 -15 4 -8
10 -15 15 -15 13 0 11 28 -2 32 -9 3 -8 9 1 24 10 17 10 26 -4 52 -9 17 -16
39 -16 48 0 10 -7 24 -15 33 -52 54 -91 144 -81 185 9 35 72 96 110 107 17 4
21 13 20 43 l-1 38 56 -6 c42 -4 65 -1 91 12 51 25 50 47 -4 74 -44 21 -46 21
-65 4 -29 -26 -51 -14 -51 29 0 19 4 35 10 35 5 0 18 9 29 21 13 15 21 17 26
9 4 -7 2 -16 -5 -20 -16 -10 -6 -40 13 -40 7 0 22 7 33 15 29 22 74 20 74 -5
0 -10 10 -25 23 -31 32 -16 77 -61 77 -75 0 -19 65 -34 143 -34 59 0 71 -3 88
-23 10 -12 19 -29 19 -37 0 -8 4 -21 9 -29 7 -12 15 -8 41 17 30 30 53 45 115
75 17 8 38 23 48 35 17 18 28 20 134 16 117 -3 159 5 149 31 -2 7 6 23 19 35
31 29 99 37 148 16 21 -8 44 -13 51 -10 7 3 16 -2 20 -12 5 -14 15 -15 58 -10
29 4 59 11 67 15 9 6 26 2 45 -10 17 -10 45 -19 61 -19 17 0 38 -7 48 -14 24
-18 57 -9 57 16 0 26 35 20 36 -7 1 -11 2 -28 3 -38 2 -29 64 -48 171 -51 146
-5 170 -32 170 -193 0 -68 3 -83 23 -103 12 -14 29 -54 39 -90 9 -36 24 -85
34 -110 28 -74 4 -137 -73 -190 -19 -13 -22 -26 -25 -113 l-4 -97 811 3 c445
2 815 5 820 6 6 1 25 -1 42 -5 18 -3 41 -3 50 1 10 5 41 9 69 10 57 3 104 30
123 71 9 21 8 26 -7 30 -34 11 -47 21 -50 40 -2 17 173 252 372 499 192 238
485 516 665 633 97 63 110 56 66 -33 -18 -37 -21 -51 -12 -57 41 -26 203 -56
310 -57 l37 -1 0 839 c0 830 0 839 -20 844 -15 4 -20 14 -20 41 0 25 -4 36
-15 36 -8 0 -15 7 -15 15 0 8 5 15 10 15 6 0 13 -7 16 -15 4 -8 15 -15 25 -15
15 0 19 7 19 38 l0 38 -77 12 c-55 8 -160 10 -354 5 -151 -3 -287 -3 -302 1
-22 5 -27 12 -27 36 l0 30 -261 0 -261 0 4 -24 c5 -27 -11 -36 -71 -36 -27 0
-32 3 -23 12 7 7 12 20 12 30 0 14 -8 18 -41 18 -40 0 -41 -1 -35 -27 4 -16
14 -32 23 -38 61 -39 103 -101 103 -152 0 -27 -24 -78 -49 -103 -42 -41 -119
-52 -170 -22 -33 18 -45 60 -13 47 9 -4 42 -10 73 -12 53 -5 57 -4 82 27 32
38 33 49 7 100 -26 51 -49 62 -121 58 -63 -3 -70 0 -39 20 27 16 15 40 -23 45
-29 4 -30 5 -9 12 12 4 22 16 22 26 0 18 -15 19 -425 19 -409 0 -425 -1 -425
-19 0 -10 -6 -24 -14 -30 -20 -17 -56 3 -56 29 0 20 -10 20 -512 20 -284 0
-507 -4 -500 -9 10 -6 8 -10 -10 -14 -31 -9 -153 -9 -214 0 -42 6 -45 8 -24
14 21 6 20 7 -13 8 -23 1 -36 -3 -32 -9 3 -5 -5 -21 -19 -35 -24 -24 -31 -25
-134 -25 -93 0 -111 3 -125 18 -10 10 -17 26 -17 35 0 16 -35 17 -430 17 -321
0 -429 -3 -427 -12 2 -12 -32 -25 -70 -27 -17 -1 -23 5 -23 19 0 20 -7 20
-890 20 -766 0 -890 -2 -890 -14 0 -20 -21 -24 -130 -27 -129 -2 -130 -2 -130
21 0 20 -7 20 -480 20 -401 0 -480 -2 -480 -14 0 -25 -24 -35 -69 -29 -31 4
-45 11 -48 24 -7 26 -20 24 -27 -6 -7 -29 -36 -24 -36 6 0 18 -14 19 -387 19
l-388 0 -12 -27z m176 -19 c17 -4 31 -11 31 -16 0 -5 -9 -7 -19 -3 -34 10
-116 -32 -137 -70 -17 -32 -17 -36 -1 -69 24 -52 57 -70 112 -62 26 4 58 18
75 32 28 24 30 25 30 6 0 -11 -16 -34 -35 -51 -31 -27 -43 -31 -92 -31 -53 0
-58 2 -95 42 -45 49 -50 91 -17 153 26 48 46 62 110 74 4 0 21 -2 38 -5z m814
-75 l22 -24 -25 -26 c-24 -26 -28 -26 -112 -20 -47 3 -89 8 -91 11 -3 3 -7 21
-9 40 -4 41 8 46 118 44 65 -1 78 -5 97 -25z m6217 -25 c14 -35 -3 -58 -31
-44 -18 10 -17 31 4 58 13 17 16 16 27 -14z m-2755 -52 c-1 -23 -2 -90 -3
-149 l-2 -108 -59 -22 c-32 -13 -66 -23 -75 -23 -11 0 -18 -12 -22 -40 -5 -31
-11 -40 -26 -40 -16 0 -19 6 -17 35 4 42 -10 58 -47 53 -26 -3 -29 -7 -32 -41
-2 -22 -9 -40 -18 -44 -24 -9 -36 10 -25 39 12 31 -2 48 -38 48 -38 0 -49 -11
-53 -50 -2 -25 -9 -36 -22 -38 -17 -4 -18 0 -13 32 5 32 3 38 -18 48 -13 6
-35 8 -49 4 -20 -5 -25 -13 -28 -44 -4 -46 -29 -51 -38 -6 -11 50 -17 54 -88
54 -93 1 -112 18 -112 97 1 32 7 69 15 83 19 33 19 64 0 80 -15 12 -21 61 -9
73 3 3 180 5 393 4 l386 -2 0 -43z m2137 31 c23 -20 23 -41 -1 -72 -21 -28
-51 -23 -75 13 -14 22 -14 26 5 50 24 30 45 33 71 9z m-1332 -6 c156 -1 258
-6 262 -12 12 -15 9 -264 -2 -286 -7 -12 -21 -19 -41 -19 -17 0 -32 -6 -35
-15 -4 -10 -20 -15 -50 -15 l-44 0 0 -39 c0 -42 -14 -61 -32 -43 -6 6 -10 23
-10 39 0 35 -14 53 -43 53 -29 0 -43 -18 -43 -53 1 -34 -6 -41 -28 -33 -12 5
-15 14 -11 35 7 32 -7 51 -39 51 -27 0 -41 -17 -46 -55 -2 -20 -9 -31 -22 -33
-17 -4 -18 0 -13 32 6 39 -10 56 -52 56 -17 0 -47 -35 -43 -50 1 -3 -1 -13 -4
-23 -9 -29 -29 -13 -27 21 4 41 -21 55 -84 47 -44 -6 -51 -4 -80 24 -29 26
-33 37 -33 78 0 31 7 59 20 78 28 42 26 79 -5 93 -19 9 -25 19 -25 41 l0 30
108 3 c59 2 121 2 137 1 17 -2 145 -5 285 -6z m-760 -21 c0 -13 7 -41 16 -62
l16 -38 -24 16 c-18 12 -24 26 -26 62 -2 27 1 46 7 46 6 0 11 -11 11 -24z
m1420 0 c0 -33 -10 -57 -21 -50 -10 6 -12 57 -2 67 13 14 23 6 23 -17z m59
-27 c-12 -22 -29 -16 -29 10 0 25 11 33 26 20 10 -8 11 -16 3 -30z m146 6 c0
-16 -5 -30 -12 -32 -14 -5 -28 40 -18 57 12 19 30 4 30 -25z m2793 8 c-3 -32
-44 -46 -54 -19 -10 26 4 46 31 46 23 0 26 -4 23 -27z m-2848 7 c0 -13 -38
-32 -50 -25 -22 14 -10 35 20 35 17 0 30 -4 30 -10z m2436 -1 c10 -18 -13 -32
-40 -25 -37 9 -34 36 3 36 17 0 33 -5 37 -11z m59 1 c4 -7 11 -7 18 -2 15 12
186 12 193 1 3 -5 2 -24 -2 -44 -6 -36 -30 -48 -40 -20 -5 11 -10 13 -19 5 -7
-6 -28 -10 -46 -10 -19 0 -45 -1 -59 -2 -20 -3 -26 2 -31 27 -5 24 -7 25 -8 7
-1 -14 -11 -27 -26 -34 -23 -10 -25 -17 -25 -75 l0 -63 -57 2 c-56 3 -57 2
-64 -27 l-7 -30 -1 28 c-2 61 -12 67 -119 67 -61 0 -102 -4 -110 -12 -16 -16
-26 13 -19 57 4 23 1 38 -9 46 -19 15 -18 68 1 75 8 3 28 1 45 -4 18 -7 32 -7
35 -1 4 5 22 9 41 9 29 0 34 -3 34 -24 0 -28 33 -41 63 -24 18 9 19 8 14 -21
-6 -30 -5 -31 29 -31 24 0 37 5 41 18 9 23 23 32 56 32 22 0 27 5 27 23 0 13
3 27 7 30 10 10 31 8 38 -3z m-2285 -41 c0 -5 -7 -9 -15 -9 -15 0 -20 12 -9
23 8 8 24 -1 24 -14z m932 -20 c3 -19 3 -38 -1 -42 -4 -4 -38 -5 -74 -1 l-67
7 0 33 0 33 58 4 c77 4 76 5 84 -34z m702 35 c19 -7 22 -67 4 -81 -7 -5 -24
-7 -38 -3 -20 5 -25 12 -25 39 -1 31 4 36 42 50 1 1 8 -2 17 -5z m114 -6 c22
-22 14 -67 -13 -80 -44 -20 -71 24 -45 73 12 21 40 25 58 7z m-1748 -57 c0
-12 -21 -19 -37 -13 -22 8 -14 22 12 22 14 0 25 -4 25 -9z m475 -51 c21 -23
20 -26 -18 -35 -25 -7 -27 -5 -27 24 0 36 18 41 45 11z m-6309 -8 c5 -4 11
-16 12 -27 4 -56 15 -85 33 -85 29 0 32 -19 5 -30 -31 -11 -34 -30 -7 -30 32
0 35 -19 5 -30 -26 -10 -26 -11 -8 -31 15 -16 16 -22 5 -29 -9 -5 -11 -15 -6
-26 4 -11 7 -35 6 -55 -1 -21 3 -40 9 -44 7 -4 7 -11 2 -18 -5 -7 -9 -31 -10
-54 0 -23 -8 -55 -16 -72 -9 -16 -16 -36 -16 -44 0 -33 -85 -38 -95 -7 -4 13
-15 20 -32 20 -14 0 -38 9 -54 21 -27 19 -30 26 -28 73 0 28 -2 124 -5 213 -6
159 -6 162 16 177 12 9 36 16 54 16 17 0 34 3 37 7 13 12 -15 33 -44 33 -28 0
-37 9 -22 23 9 9 145 9 159 -1z m5881 -8 c3 -9 1 -25 -6 -36 -7 -11 -9 -33 -5
-52 3 -20 1 -36 -5 -40 -14 -9 -128 -12 -137 -3 -4 3 -1 21 7 39 8 18 13 35
13 38 -1 3 -4 17 -8 32 -6 26 -4 27 36 31 91 8 99 7 105 -9z m2562 -15 c17
-17 31 -33 31 -35 0 -19 -24 -44 -41 -44 -18 0 -21 5 -17 35 3 29 1 35 -14 35
-14 0 -18 -8 -18 -34 0 -30 -4 -35 -31 -41 -29 -7 -30 -9 -27 -53 3 -43 5 -47
32 -52 17 -3 29 -8 28 -12 -1 -5 -2 -13 -2 -19 0 -7 -10 -9 -25 -7 -21 4 -25
1 -25 -18 0 -17 7 -23 25 -26 54 -7 16 -23 -53 -23 -63 0 -73 2 -79 20 -6 20
-6 20 -14 0 -4 -11 -8 -28 -8 -38 -1 -15 4 -17 29 -12 25 6 30 4 30 -13 0 -10
-9 -27 -19 -36 -14 -12 -19 -31 -19 -63 0 -40 3 -46 28 -55 34 -11 39 -22 33
-66 -6 -37 -42 -53 -69 -31 -13 11 -15 26 -11 82 7 84 -1 107 -47 131 -41 22
-50 57 -13 53 20 -2 22 2 22 53 0 53 1 55 27 58 20 2 35 -4 53 -25 21 -24 26
-26 35 -13 16 25 11 58 -11 74 -19 13 -24 13 -36 0 -8 -8 -16 -14 -19 -14 -10
0 -22 49 -17 70 5 17 11 21 32 16 14 -2 41 0 59 7 28 10 32 15 32 49 0 53 18
78 57 78 22 0 41 -9 62 -31z m-7315 -11 c3 -18 7 -44 8 -58 3 -24 6 -25 68
-26 62 -1 65 -2 65 -25 0 -20 -7 -26 -46 -35 -78 -20 -89 -29 -89 -79 0 -69
-14 -95 -51 -95 -51 0 -104 29 -130 71 -13 21 -36 43 -51 48 -28 10 -45 48
-35 76 4 8 22 21 42 29 19 8 43 29 53 45 11 20 36 39 72 55 75 34 88 33 94 -6z
m5631 -3 c0 -28 -29 -25 -33 3 -3 19 0 23 15 20 10 -2 18 -12 18 -23z m-410
-42 c-3 -16 -10 -32 -15 -37 -10 -10 -67 -13 -76 -3 -13 13 6 37 29 37 14 0
30 7 37 15 20 24 33 18 25 -12z m1131 13 c7 -19 -13 -127 -26 -140 -7 -7 -16
-7 -28 0 -14 9 -16 23 -13 75 2 35 5 67 8 72 8 13 53 8 59 -7z m429 4 c3 -5 3
-38 -1 -73 l-7 -64 -60 -6 c-86 -8 -87 -7 -87 79 l0 74 74 0 c41 0 77 -4 81
-10z m-4909 -57 c51 -67 70 -158 37 -170 -10 -4 -29 -15 -42 -24 -12 -10 -38
-21 -57 -25 -19 -3 -31 -10 -28 -15 3 -5 -17 -9 -44 -9 -32 0 -54 -5 -62 -15
-7 -8 -25 -15 -41 -15 -15 0 -34 -7 -43 -15 -8 -8 -32 -15 -54 -15 -26 0 -42
-5 -46 -15 -3 -9 -19 -15 -41 -15 -19 0 -70 -9 -113 -21 l-77 -20 -17 21 c-10
12 -18 31 -18 42 0 10 -7 32 -15 48 -9 16 -18 50 -22 75 -5 43 -5 45 20 45 28
0 57 -32 57 -62 0 -25 15 -23 54 7 18 14 86 41 152 60 65 20 144 43 174 52 30
9 77 17 105 17 l50 2 0 42 c0 38 14 61 36 62 4 0 19 -16 35 -37z m4368 15 c8
-13 7 -21 -1 -29 -14 -14 -62 19 -55 39 6 18 42 11 56 -10z m748 -46 c7 -25 4
-40 -9 -63 -16 -27 -16 -31 -3 -39 46 -28 46 -28 30 -43 -18 -17 -107 -40
-121 -32 -22 14 -7 34 28 37 53 4 54 26 1 30 -39 3 -43 6 -48 33 -3 18 -11 30
-20 30 -11 0 -15 -13 -15 -55 l0 -55 -130 0 c-122 0 -130 1 -133 20 -3 11 -10
23 -17 28 -11 6 -11 13 2 37 17 36 26 37 45 8 13 -19 24 -22 104 -23 96 -2
114 4 114 41 0 21 3 23 32 17 18 -4 39 -12 46 -20 7 -7 22 -13 33 -13 16 0 19
7 19 51 0 42 3 50 17 47 9 -2 21 -18 25 -36z m68 -4 c0 -27 -19 -60 -31 -53
-10 7 -13 78 -2 88 10 11 33 -13 33 -35z m-2712 4 c2 -15 -2 -22 -12 -22 -11
0 -16 9 -16 26 0 31 23 28 28 -4z m62 9 c0 -23 -16 -36 -25 -21 -9 14 1 40 15
40 5 0 10 -9 10 -19z m60 -1 c9 -16 8 -20 -5 -20 -8 0 -15 9 -15 20 0 11 2 20
5 20 2 0 9 -9 15 -20z m90 6 c0 -8 -5 -18 -11 -22 -14 -8 -33 11 -25 25 10 16
36 13 36 -3z m778 -24 c13 -17 17 -120 4 -138 -8 -13 -87 -25 -108 -17 -10 4
-14 27 -14 87 0 46 3 86 7 90 13 12 97 -4 111 -22z m1602 9 c0 -11 -26 -22
-34 -14 -12 12 -5 23 14 23 11 0 20 -4 20 -9z m-801 -138 c-1 -76 -4 -127 -8
-114 -8 30 -27 38 -33 14 -3 -10 -3 -89 0 -175 l5 -157 42 34 42 35 419 -1
c230 -1 444 -4 474 -7 l55 -7 17 -115 c10 -63 20 -182 23 -265 5 -176 12 -160
-120 -261 -270 -206 -513 -440 -704 -679 -56 -72 -117 -147 -133 -167 -17 -21
-68 -88 -115 -150 -46 -62 -93 -116 -104 -120 -21 -8 -59 -65 -59 -90 0 -9
-14 -28 -31 -42 -25 -21 -41 -26 -88 -26 -90 0 -94 8 -85 175 6 126 9 137 28
145 53 21 86 74 86 139 0 100 -9 123 -67 170 -53 42 -55 45 -48 80 3 20 7 45
8 56 2 17 10 20 69 23 61 3 68 1 80 -20 7 -13 13 -29 13 -37 0 -20 29 -35 50
-27 12 4 15 13 11 30 -9 36 18 59 60 52 18 -4 35 -3 37 2 3 4 7 45 8 90 3 94
-1 102 -64 102 -25 0 -36 4 -31 11 4 7 20 9 40 6 22 -4 37 -1 45 9 14 17 26
323 15 367 -6 26 -26 33 -118 44 -30 3 -48 10 -48 18 0 18 46 28 70 15 36 -20
100 -9 100 16 0 9 -11 14 -29 14 -16 0 -34 7 -41 15 -17 20 -96 20 -104 0 -4
-11 -22 -15 -70 -15 -82 0 -90 12 -91 127 0 92 -1 93 -82 93 -33 0 -43 4 -43
16 0 13 7 15 36 11 20 -3 49 -3 66 0 27 5 29 8 26 47 l-3 41 -62 3 c-55 3 -63
6 -63 22 0 22 38 28 56 10 7 -7 21 -7 43 1 30 11 32 14 29 53 -2 31 -8 43 -25
51 -30 13 -29 25 1 25 29 0 34 13 29 62 -4 31 -9 37 -33 40 -16 3 -36 0 -45
-4 -21 -12 -55 0 -55 18 0 12 11 14 57 10 67 -6 83 4 83 50 0 40 -9 47 -74 49
-72 4 -72 3 -54 21 12 12 20 13 35 6 10 -6 34 -7 52 -3 l34 6 3 83 c1 46 5 86
9 90 9 10 136 2 158 -9 9 -6 17 -18 17 -28 0 -23 25 -45 40 -36 6 4 10 21 8
38 l-3 32 50 0 50 0 5 -50 c11 -101 40 -97 40 6 0 38 2 69 5 69 3 0 5 -62 4
-137z m-1473 76 c1 -24 0 -34 -3 -22 -5 25 -20 39 -48 45 -18 5 -18 6 5 16 37
16 45 10 46 -39z m-406 10 c0 -10 -4 -19 -10 -19 -5 0 -10 12 -10 26 0 14 4
23 10 19 6 -3 10 -15 10 -26z m-5070 -44 c0 -8 -7 -15 -15 -15 -8 0 -15 7 -15
15 0 8 7 15 15 15 8 0 15 -7 15 -15z m220 -5 c8 -5 15 -24 16 -42 1 -81 6
-105 24 -128 31 -40 44 -15 42 80 -1 44 1 80 5 80 17 0 43 -36 43 -60 0 -14 5
-31 12 -38 9 -9 8 -12 -5 -12 -10 0 -23 -12 -29 -26 -11 -24 -10 -29 10 -42
17 -11 22 -24 22 -58 0 -40 2 -44 25 -44 14 0 25 -4 25 -10 0 -5 -18 -10 -39
-10 -22 0 -43 -4 -46 -10 -11 -17 -27 -11 -20 9 3 10 -1 24 -10 31 -12 10 -13
16 -4 26 15 19 4 44 -20 44 -28 0 -57 -48 -42 -72 18 -29 13 -39 -16 -32 -56
12 -57 13 -38 34 12 14 15 27 10 50 -6 26 -3 35 14 46 32 23 27 51 -9 59 -25
6 -29 9 -19 21 7 9 10 34 7 64 -5 52 6 63 42 40z m4648 -14 c3 -12 -1 -17 -10
-14 -7 3 -15 13 -16 22 -3 12 1 17 10 14 7 -3 15 -13 16 -22z m420 -30 c2 -9
-2 -24 -9 -32 -11 -14 -13 -14 -21 1 -12 20 0 57 15 52 7 -2 13 -11 15 -21z
m297 7 c10 -27 3 -245 -8 -271 -22 -48 -29 -12 -31 136 -1 135 1 152 15 152 9
0 20 -8 24 -17z m-4293 -14 c9 -5 20 -23 23 -41 4 -18 12 -38 17 -45 5 -7 5
-13 -1 -17 -5 -3 -12 -24 -16 -46 -5 -32 -11 -40 -28 -40 -30 0 -44 -11 -56
-42 -5 -14 -23 -32 -38 -40 -21 -10 -29 -21 -31 -48 -5 -55 -17 -54 -19 2 -1
27 -7 56 -12 62 -16 19 15 56 45 56 35 0 28 29 -13 55 -38 24 -36 43 13 98 19
20 34 41 34 46 0 12 59 11 82 0z m3703 2 c8 -14 -28 -31 -44 -21 -8 4 -10 13
-7 19 9 13 43 15 51 2z m-1755 -21 c0 -11 -7 -20 -15 -20 -8 0 -15 -6 -15 -14
0 -23 -29 -41 -43 -27 -9 9 -9 16 1 31 7 12 8 21 2 25 -19 12 1 25 36 25 27 0
34 -4 34 -20z m3904 3 c11 -41 4 -132 -11 -145 -27 -22 -44 16 -37 81 3 31 7
62 10 69 5 18 32 15 38 -5z m-3653 -24 c28 -31 33 -53 7 -32 -7 6 -28 14 -45
18 -35 7 -40 14 -21 33 18 18 27 15 59 -19z m1609 14 c27 -15 30 -15 54 1 25
16 26 16 26 -4 0 -19 -15 -25 -49 -20 -7 1 -24 -9 -37 -21 -22 -20 -22 -23 -8
-51 19 -37 11 -60 -18 -56 -26 3 -37 50 -19 72 8 9 8 22 1 40 -10 28 -4 56 12
56 5 0 23 -8 38 -17z m-5100 -8 c0 -8 -7 -15 -15 -15 -16 0 -20 12 -8 23 11
12 23 8 23 -8z m4274 -10 c51 37 79 31 74 -16 -4 -45 -30 -59 -70 -36 -28 16
-32 16 -48 2 -35 -32 -72 10 -45 52 l16 24 26 -21 c24 -19 28 -19 47 -5z
m-986 -70 c1 -67 -1 -76 -20 -86 -17 -9 -24 -9 -32 2 -7 9 -27 13 -58 11 -27
-2 -48 1 -48 6 0 12 53 24 103 23 41 -1 40 -3 27 57 -11 46 -7 62 14 62 10 0
14 -20 14 -75z m1589 60 c8 -21 -1 -28 -26 -20 -12 4 -18 12 -14 21 7 19 32
18 40 -1z m-2013 -16 c-7 -11 -34 -12 -34 -1 0 14 11 21 26 15 8 -3 11 -9 8
-14z m1661 -9 c0 -18 -6 -26 -23 -28 -13 -2 -25 3 -28 12 -10 26 4 48 28 44
17 -2 23 -10 23 -28z m-1131 -13 c-3 -9 -10 -17 -15 -17 -11 0 -12 34 -2 44
11 11 24 -9 17 -27z m1877 -10 c-8 -8 -11 -3 -11 19 1 25 2 27 11 11 8 -14 8
-22 0 -30z m-4223 -7 c2 -14 8 -29 12 -35 4 -5 10 -26 12 -45 3 -30 0 -35 -20
-38 -13 -2 -29 2 -37 8 -11 9 -16 7 -25 -10 -7 -14 -19 -20 -33 -18 -20 3 -22
9 -23 68 -1 38 -6 66 -13 68 -19 6 -12 20 12 25 12 3 42 4 67 3 40 -1 45 -4
48 -26z m6367 20 c7 -12 -12 -50 -25 -50 -11 0 -14 43 -3 53 9 10 21 9 28 -3z
m133 0 c32 0 19 -16 -19 -24 -19 -4 -33 -13 -36 -26 -5 -20 -33 -29 -33 -10 0
6 5 10 11 10 6 0 8 9 4 20 -9 28 3 43 29 36 11 -3 31 -6 44 -6z m98 -26 c4
-14 2 -30 -5 -37 -14 -14 -17 -10 -24 31 -5 24 -3 32 8 32 8 0 18 -12 21 -26z
m-7646 -10 c0 -9 -5 -14 -12 -12 -18 6 -21 28 -4 28 9 0 16 -7 16 -16z m2817
-1 c4 -10 15 -24 25 -31 22 -16 24 -32 4 -32 -8 0 -18 9 -21 20 -3 11 -13 20
-21 20 -8 0 -14 9 -14 20 0 25 18 26 27 3z m1898 8 c7 -12 -12 -24 -25 -16
-11 7 -4 25 10 25 5 0 11 -4 15 -9z m135 -1 c13 -9 13 -11 0 -20 -18 -12 -21
-12 -39 -1 -15 10 -7 31 12 31 7 0 19 -5 27 -10z m-2090 -54 c0 -25 -17 -46
-37 -46 -18 0 -16 37 2 44 8 3 15 13 15 21 0 9 5 13 10 10 6 -3 10 -16 10 -29z
m719 15 c25 -3 46 -12 49 -18 3 -10 -17 -13 -77 -13 -72 0 -81 2 -81 18 0 27
11 34 40 26 14 -4 45 -10 69 -13z m2485 10 c13 -21 -24 -33 -76 -25 -29 4 -59
7 -65 5 -7 -1 -13 3 -13 8 0 18 144 29 154 12z m420 0 c4 -5 3 -16 0 -25 -5
-12 -11 -13 -24 -6 -10 6 -30 10 -44 10 -37 0 -32 18 7 23 17 2 37 5 44 5 6 1
14 -2 17 -7z m-4439 -79 c-11 -29 -25 3 -18 43 l7 40 8 -34 c5 -18 7 -40 3
-49z m-420 48 c0 -7 -6 -15 -12 -17 -8 -3 -13 4 -13 17 0 13 5 20 13 18 6 -3
12 -11 12 -18z m3755 -41 c0 -36 -4 -49 -12 -47 -15 5 -22 50 -13 85 9 39 25
16 25 -38z m-4440 27 c0 -31 -12 -39 -35 -22 -23 16 -13 46 15 46 15 0 20 -7
20 -24z m3625 -6 c0 -13 -6 -25 -12 -27 -16 -6 -27 21 -19 43 9 23 31 11 31
-16z m95 6 c0 -14 -5 -28 -10 -31 -13 -8 -24 20 -16 40 9 24 26 17 26 -9z
m-1980 -7 c0 -11 5 -30 12 -42 6 -12 13 -41 14 -64 1 -36 -2 -43 -17 -43 -26
0 -33 18 -14 36 24 24 15 58 -15 62 -40 6 -46 19 -19 46 30 30 39 31 39 5z
m1738 12 c16 -10 19 -168 4 -183 -6 -6 -18 -7 -28 -4 -16 5 -19 18 -22 91 -2
47 0 90 3 95 8 12 25 13 43 1z m527 -4 c21 -16 13 -37 -15 -37 -23 0 -32 13
-24 34 7 20 15 20 39 3z m-643 -9 c2 -7 4 -47 3 -88 0 -73 -1 -75 -25 -75 -21
0 -25 5 -25 30 -1 17 -5 38 -9 48 -5 11 -4 23 2 29 6 6 8 24 5 39 -5 26 -3 29
20 29 14 0 27 -6 29 -12z m-4202 -13 c0 -8 -7 -15 -15 -15 -16 0 -20 12 -8 23
11 12 23 8 23 -8z m744 -18 c-8 -22 -20 -22 -28 0 -7 18 14 37 27 24 4 -4 5
-15 1 -24z m3060 17 c9 -23 7 -177 -2 -191 -5 -8 -21 -10 -45 -6 -43 7 -45 26
-4 31 39 5 35 32 -4 32 -39 0 -34 23 7 30 37 7 37 23 -1 30 -41 7 -43 28 -3
32 41 4 43 21 4 28 -16 3 -31 11 -34 18 -6 19 74 16 82 -4z m251 1 c0 -5 -19
-11 -42 -13 -40 -3 -53 5 -36 22 11 10 78 3 78 -9z m663 -3 c2 -7 -6 -12 -17
-12 -21 0 -27 11 -14 24 9 9 26 2 31 -12z m-2250 -21 c2 -13 12 -26 23 -28 23
-6 20 -29 -3 -25 -10 1 -19 -15 -29 -55 -11 -47 -14 -53 -19 -33 -5 20 -13 25
-36 26 -17 1 -43 4 -58 8 -22 5 -28 2 -36 -19 -13 -34 -30 -32 -30 5 0 24 4
30 20 30 15 0 26 13 40 45 17 39 23 45 49 45 17 0 36 7 43 15 17 19 32 13 36
-14z m5392 -8 c0 -47 -8 -58 -42 -66 -33 -9 -43 5 -39 53 4 47 7 50 47 50 33
0 34 -1 34 -37z m-4747 -4 c6 -9 7 -24 4 -33 -6 -14 -11 -15 -28 -6 -17 10
-23 8 -35 -7 -12 -17 -13 -16 -14 9 0 49 49 75 73 37z m2831 15 c19 -7 21 -40
4 -47 -14 -4 -124 2 -145 8 -23 7 -2 34 30 38 56 7 95 7 111 1z m-2494 -57
c11 -12 50 10 50 28 0 8 4 15 9 15 15 0 23 -18 11 -25 -5 -3 -10 -20 -10 -37
0 -16 -8 -43 -17 -59 -16 -27 -16 -29 1 -48 26 -28 17 -55 -19 -59 -17 -2 -72
-1 -123 3 -122 9 -133 18 -138 111 -3 67 -4 69 -31 74 -30 6 -40 36 -10 34 61
-3 66 -5 69 -26 3 -21 9 -23 71 -25 66 -1 68 0 95 33 26 33 27 33 30 12 2 -13
7 -27 12 -31z m2933 40 c9 -24 -7 -34 -45 -29 -35 4 -48 19 -31 35 12 12 71 7
76 -6z m-4430 -34 c7 -38 0 -51 -35 -58 -23 -5 -35 -2 -53 15 -23 22 -23 22
-3 42 14 14 23 16 32 9 8 -7 15 -4 24 10 15 24 28 18 35 -18z m1047 1 c0 -24
-4 -34 -12 -32 -24 8 -22 68 2 68 5 0 10 -16 10 -36z m-1930 11 c0 -8 -6 -15
-14 -15 -17 0 -28 14 -19 24 12 12 33 6 33 -9z m1595 -6 c6 -19 0 -38 -9 -28
-10 12 -16 49 -7 49 5 0 13 -9 16 -21z m51 -16 c-11 -11 -19 6 -11 24 8 17 8
17 12 0 3 -10 2 -21 -1 -24z m584 11 c0 -8 -7 -14 -15 -14 -15 0 -21 21 -9 33
10 9 24 -2 24 -19z m755 11 c0 -5 -19 -11 -42 -13 -34 -3 -43 0 -43 13 0 13 9
16 43 13 23 -2 42 -7 42 -13z m720 -25 l0 -35 -55 0 c-64 0 -80 8 -80 41 0 17
6 24 19 24 11 0 23 -4 26 -10 10 -16 45 -12 52 5 11 30 38 12 38 -25z m-3975
-4 c0 -18 -30 -30 -43 -17 -5 5 -6 14 -3 20 10 16 46 13 46 -3z m90 -1 c0 -8
-9 -15 -20 -15 -20 0 -26 11 -13 23 12 13 33 7 33 -8z m5595 -5 c0 -9 -11 -16
-27 -18 -27 -3 -38 14 -21 32 12 12 48 2 48 -14z m-1487 -23 c2 -9 -4 -20 -13
-23 -20 -8 -50 19 -40 36 10 17 49 8 53 -13z m620 11 c5 -8 6 -22 1 -33 -4
-11 -8 -42 -8 -68 -1 -44 -3 -48 -23 -45 -20 3 -24 10 -28 60 -3 31 -9 60 -13
64 -8 8 29 33 49 34 6 0 16 -6 22 -12z m-4518 -8 c0 -5 -9 -10 -20 -10 -11 0
-20 5 -20 10 0 6 9 10 20 10 11 0 20 -4 20 -10z m1410 -5 c0 -8 -4 -15 -10
-15 -5 0 -10 7 -10 15 0 8 5 15 10 15 6 0 10 -7 10 -15z m1540 5 c13 -8 13
-10 0 -14 -39 -14 -74 -11 -78 7 -3 13 3 17 30 17 18 0 40 -4 48 -10z m2332
-23 c12 -20 -2 -27 -55 -26 -62 1 -110 13 -87 22 46 17 132 20 142 4z m-5554
-30 c4 -19 -13 -23 -23 -7 -5 8 -11 7 -20 0 -16 -13 -35 -5 -35 15 0 29 72 22
78 -8z m632 13 c6 -11 17 -20 25 -20 17 0 22 -75 6 -85 -6 -3 -1 -27 11 -55
24 -58 21 -72 -23 -94 -45 -22 -76 -21 -84 5 -4 11 -18 24 -31 29 -22 9 -24
15 -24 69 0 32 -3 72 -6 90 -6 26 -3 32 18 40 14 5 28 17 31 25 9 24 64 21 77
-4z m610 -1 c0 -5 -7 -9 -15 -9 -15 0 -20 12 -9 23 8 8 24 -1 24 -14z m1009 5
c1 -1 0 -7 -3 -13 -4 -6 -15 -7 -30 -1 -19 7 -28 4 -45 -16 -23 -27 -33 -29
-62 -14 -19 11 -26 40 -12 54 6 6 143 -2 152 -10z m93 -19 c-12 -22 -27 -2
-18 22 5 12 10 13 17 6 7 -7 8 -17 1 -28z m2102 29 c21 -8 22 -77 1 -94 -15
-12 -47 -7 -43 7 1 4 -2 20 -6 36 -5 17 -4 33 4 42 14 17 21 18 44 9z m143
-86 c-2 -18 -4 -4 -4 32 0 36 2 50 4 33 2 -18 2 -48 0 -65z m-238 68 c13 -15
5 -62 -11 -72 -5 -3 -20 -3 -34 0 -20 5 -24 12 -24 46 0 37 2 40 29 40 16 0
34 -6 40 -14z m-3420 -8 c13 -8 35 -8 82 -1 99 16 120 -5 92 -93 l-16 -53 -58
6 c-47 5 -65 2 -98 -15 l-40 -21 -16 21 c-24 35 -30 86 -12 106 8 9 18 27 21
40 8 25 18 27 45 10z m831 -11 c0 -8 -3 -17 -7 -21 -5 -4 -8 -18 -8 -29 0 -18
-7 -23 -34 -25 -32 -3 -33 -4 -28 -40 5 -26 1 -44 -14 -69 -26 -41 -33 -41
-49 -2 -10 24 -11 36 -2 50 17 26 15 59 -3 59 -10 0 -15 -10 -15 -31 0 -20 -4
-29 -12 -27 -23 8 -19 43 9 81 24 32 32 36 58 31 17 -4 35 -11 42 -16 16 -13
36 0 29 19 -3 8 -4 19 0 24 8 14 34 11 34 -4z m1460 3 c11 -7 8 -11 -15 -20
-36 -14 -59 -9 -63 13 -3 13 4 17 30 17 18 0 40 -4 48 -10z m-1808 -32 c-9 -9
-12 -7 -12 12 0 19 3 21 12 12 9 -9 9 -15 0 -24z m-963 -2 c-2 -2 -19 -7 -36
-11 -27 -5 -33 -3 -33 9 0 12 6 15 24 10 14 -3 27 -1 32 7 6 10 9 10 12 0 2
-7 2 -14 1 -15z m4693 13 c16 -8 19 -17 14 -40 -3 -18 1 -39 11 -58 22 -38 7
-75 -39 -94 -65 -27 -108 16 -108 106 0 32 24 83 42 90 23 9 59 7 80 -4z
m-3904 -71 c-2 -40 -7 -73 -13 -73 -5 0 -11 33 -13 73 -2 60 0 72 13 72 13 0
15 -12 13 -72z m-962 27 c-4 -11 -12 -15 -22 -11 -9 3 -27 6 -40 6 -14 0 -22
4 -19 10 3 6 17 10 30 10 13 0 27 5 31 11 10 17 28 -6 20 -26z m1204 -27 c0
-31 -18 -47 -31 -27 -7 13 -3 52 9 73 7 13 22 -16 22 -46z m-60 -15 c0 -14 -6
-23 -15 -23 -9 0 -15 9 -15 24 0 14 -5 28 -11 32 -8 4 -7 9 2 15 18 11 39 -16
39 -48z m4130 35 c0 -19 -11 -23 -24 -11 -4 4 -36 6 -72 4 -57 -2 -76 4 -58
21 3 3 39 5 80 4 63 -1 74 -4 74 -18z m-5462 5 c-10 -2 -26 -2 -35 0 -10 3 -2
5 17 5 19 0 27 -2 18 -5z m2084 -38 c10 -11 18 -23 18 -26 0 -14 -30 -17 -64
-8 -40 11 -46 31 -19 61 18 20 31 14 65 -27z m1946 28 c17 16 42 23 42 13 0
-2 3 -11 6 -20 5 -13 -2 -16 -43 -16 -55 0 -64 5 -56 27 5 14 8 13 19 -2 13
-17 15 -17 32 -2z m-2828 -18 c0 -8 -4 -15 -10 -15 -5 0 -10 7 -10 15 0 8 5
15 10 15 6 0 10 -7 10 -15z m2729 6 c22 -14 5 -41 -26 -43 -78 -4 -98 -1 -101
15 -6 29 91 50 127 28z m-3581 -23 c-2 -12 -9 -23 -15 -26 -19 -6 -29 28 -12
39 23 14 31 10 27 -13z m732 -7 c18 -35 12 -51 -20 -51 -25 0 -30 4 -30 23 0
23 16 47 32 47 4 0 12 -9 18 -19z m1180 0 c0 -12 -90 -22 -108 -12 -13 7 -12
10 6 15 11 4 31 4 45 1 14 -4 28 -2 32 4 7 12 25 6 25 -8z m104 0 c7 -11 -49
-25 -64 -16 -6 3 -8 11 -5 16 8 12 62 12 69 0z m136 -24 c25 -1 60 3 77 7 30
8 34 6 43 -19 6 -17 7 -38 2 -54 -8 -25 -10 -25 -111 -26 -98 0 -105 1 -122
24 -32 41 -6 87 41 75 14 -4 45 -7 70 -7z m1142 -11 c9 -14 10 -98 2 -121 -11
-28 -52 -37 -87 -20 -17 8 -39 13 -49 9 -19 -6 -24 -29 -8 -39 6 -3 10 -15 10
-25 0 -15 -6 -19 -30 -17 -26 2 -28 5 -23 27 3 14 7 27 9 29 3 3 -6 15 -18 28
-28 30 -14 46 39 47 37 1 38 2 41 41 5 56 16 66 66 58 22 -3 44 -11 48 -17z
m-4242 4 c12 -8 9 -10 -13 -10 -16 0 -26 4 -22 10 8 12 16 12 35 0z m1800 -30
c0 -22 -4 -40 -10 -40 -5 0 -10 18 -10 40 0 22 5 40 10 40 6 0 10 -18 10 -40z
m2835 10 c14 -16 15 -23 6 -34 -8 -9 -10 -28 -6 -49 5 -27 3 -36 -11 -41 -9
-3 -19 -5 -21 -3 -4 5 -23 114 -23 135 0 19 35 14 55 -8z m173 -13 c2 -18 -3
-29 -18 -37 -25 -13 -39 -5 -22 12 7 7 12 23 12 36 0 32 24 23 28 -11z m-2212
-4 l27 -27 21 27 c22 27 50 35 61 17 3 -5 30 -10 60 -10 61 0 75 -17 47 -56
-22 -30 -46 -27 -50 9 -4 34 -22 36 -22 3 0 -22 -4 -25 -40 -24 -22 0 -45 7
-51 14 -15 19 -43 18 -59 -1 -21 -25 -54 -15 -58 18 -7 62 20 74 64 30z m2698
-52 c7 -51 6 -65 -6 -78 -12 -12 -20 -13 -37 -4 -19 10 -20 17 -14 74 6 60 17
80 38 74 6 -2 14 -32 19 -66z m-4530 16 c12 -47 -8 -73 -48 -63 -50 12 -58 72
-13 94 35 17 51 9 61 -31z m2174 6 c-2 -30 -8 -39 -25 -41 -26 -4 -47 29 -38
58 4 14 15 20 36 20 29 0 30 -2 27 -37z m-3743 6 c8 -23 -7 -45 -24 -35 -12 8
-15 39 -4 49 12 12 22 7 28 -14z m452 5 c8 -20 -13 -42 -27 -28 -12 12 -3 44
11 44 5 0 12 -7 16 -16z m2025 4 c12 -10 14 -19 7 -37 -8 -19 -12 -21 -24 -11
-11 9 -25 9 -64 -1 -47 -12 -50 -11 -81 14 -26 22 -29 28 -15 33 9 4 40 4 70
0 32 -3 56 -2 60 4 8 14 28 13 47 -2z m254 -53 c-3 -8 -10 -15 -16 -15 -11 0
-14 63 -3 74 10 10 26 -41 19 -59z m-1557 46 c16 -10 6 -31 -15 -31 -8 0 -14
-9 -14 -21 0 -18 4 -20 26 -15 24 6 25 5 22 -31 l-3 -38 -55 0 c-47 0 -55 3
-58 20 -2 13 5 24 20 30 18 8 23 17 21 45 -2 44 22 62 56 41z m2985 3 c26 -10
20 -53 -9 -60 -23 -6 -24 -7 -8 -31 9 -14 27 -29 39 -33 50 -19 114 -151 114
-234 0 -62 -32 -126 -77 -155 -21 -14 -43 -31 -50 -39 -10 -11 -15 -11 -37 4
-21 13 -41 16 -90 12 -64 -6 -65 -5 -98 31 -56 59 -68 85 -68 149 0 89 26 139
99 189 33 23 68 44 78 47 26 8 47 46 34 59 -12 12 -15 50 -4 60 8 9 56 9 77 1z
m430 0 c20 -8 21 -54 1 -80 -15 -18 -17 -18 -27 -2 -11 15 -13 15 -23 1 -7 -9
-17 -13 -23 -9 -16 9 -15 69 0 84 13 13 47 16 72 6z m741 -13 c0 -19 -51 -32
-92 -25 -24 5 -33 12 -33 26 0 17 6 19 63 16 46 -2 62 -7 62 -17z m-2655 -54
c0 -24 -5 -40 -15 -43 -8 -4 -15 -14 -15 -24 0 -29 -11 -50 -23 -43 -5 3 -22
6 -36 7 -18 1 -27 7 -29 21 -3 30 13 51 30 37 11 -8 21 -5 45 14 28 21 31 29
27 62 -4 28 -3 33 5 22 6 -8 11 -32 11 -53z m3958 -12 c2 -75 -7 -101 -32 -92
-13 5 -16 21 -14 79 2 84 4 90 26 86 14 -3 18 -17 20 -73z m-5814 39 c9 -22
-1 -34 -29 -34 -23 0 -40 24 -29 41 9 15 51 10 58 -7z m979 -26 c-10 -21 -12
-21 -18 -5 -10 25 2 54 17 39 8 -8 8 -18 1 -34z m3963 31 c10 -17 -13 -36 -27
-22 -12 12 -4 33 11 33 5 0 12 -5 16 -11z m94 -14 c0 -28 -24 -34 -34 -9 -8
20 1 34 20 34 8 0 14 -10 14 -25z m-5409 -5 c29 0 32 -19 5 -30 -28 -10 -26
-40 2 -40 13 0 13 -2 -1 -18 -22 -24 -22 -48 1 -62 16 -10 16 -10 0 -20 -23
-14 -23 -36 -2 -44 15 -6 15 -8 0 -25 -17 -18 -17 -20 4 -31 20 -11 20 -13 6
-29 -8 -9 -12 -22 -8 -28 9 -14 8 -106 -2 -219 -7 -67 -5 -82 8 -93 16 -14 22
-51 9 -51 -23 1 -41 31 -47 75 -11 99 -13 133 -21 366 -8 238 -5 283 17 261 7
-7 20 -12 29 -12z m5724 -23 c-28 -10 -52 3 -41 21 4 7 17 6 36 -1 l31 -12
-26 -8z m-3435 -18 c0 -5 -7 -9 -15 -9 -15 0 -20 12 -9 23 8 8 24 -1 24 -14z
m-715 -1 c4 -4 15 -2 26 5 21 13 34 4 25 -18 -4 -11 -13 -14 -25 -10 -12 3
-21 0 -25 -10 -6 -17 -36 -21 -36 -5 0 6 -7 10 -15 10 -8 0 -15 -7 -15 -15 0
-21 -26 -19 -50 5 -21 21 -24 32 -14 43 9 8 121 4 129 -5z m115 -7 c0 -28 -17
-35 -29 -13 -11 21 -6 32 16 32 7 0 13 -9 13 -19z m3440 4 c0 -8 -9 -15 -20
-15 -11 0 -20 7 -20 15 0 8 9 15 20 15 11 0 20 -7 20 -15z m-3710 -10 c0 -8
-4 -15 -10 -15 -5 0 -10 7 -10 15 0 8 5 15 10 15 6 0 10 -7 10 -15z m2756 -18
c23 -12 61 -39 85 -60 l44 -38 -1 -87 c0 -122 -33 -180 -129 -231 -49 -26
-155 -30 -175 -6 -7 8 -18 15 -24 15 -14 0 -54 42 -79 82 -23 37 -23 154 0
188 47 71 166 160 212 160 15 0 45 -11 67 -23z m-3661 3 c11 -17 -5 -32 -21
-19 -7 6 -11 15 -8 20 7 12 21 11 29 -1z m804 -20 c6 0 11 7 11 15 0 8 7 15
15 15 37 0 4 -58 -35 -62 -22 -3 -25 1 -28 32 -2 31 -1 33 11 18 8 -10 19 -18
26 -18z m3579 13 c-5 -26 -131 -26 -136 0 -3 15 5 17 68 17 63 0 71 -2 68 -17z
m-4558 -13 c14 0 32 -4 40 -10 12 -8 12 -10 -2 -15 -9 -4 -31 -5 -50 -3 -27 2
-34 8 -36 28 -3 20 -1 23 9 13 7 -7 24 -13 39 -13z m118 8 c-3 -7 -11 -13 -18
-13 -7 0 -15 6 -17 13 -3 7 4 12 17 12 13 0 20 -5 18 -12z m5187 -44 c0 -33
-3 -39 -24 -42 -13 -2 -28 1 -34 7 -14 14 -54 14 -62 1 -16 -26 -75 6 -75 41
0 23 23 29 99 28 34 -1 65 1 68 5 15 15 28 -3 28 -40z m485 14 c0 -5 -11 -8
-25 -8 -18 0 -25 5 -25 19 0 17 3 18 25 8 14 -7 25 -15 25 -19z m-885 12 c4
-6 -5 -10 -20 -10 -15 0 -24 4 -20 10 3 6 12 10 20 10 8 0 17 -4 20 -10z m120
-1 c4 -5 0 -18 -8 -27 -9 -9 -16 -21 -16 -27 0 -5 -3 -11 -8 -12 -5 -2 -9 15
-10 37 -2 33 1 40 17 40 10 0 22 -5 25 -11z m-3741 -15 c9 -22 8 -24 -9 -24
-8 0 -15 9 -15 20 0 24 15 27 24 4z m-1171 -27 c-3 -5 -10 -4 -15 1 -6 6 -7
16 -3 22 6 9 9 9 16 -1 4 -7 5 -17 2 -22z m1232 3 c-5 -8 -11 -8 -17 -2 -6 6
-7 16 -3 22 5 8 11 8 17 2 6 -6 7 -16 3 -22z m1110 10 c4 -6 4 -17 1 -25 -4
-12 -10 -12 -37 2 -23 12 -28 18 -18 24 19 12 47 11 54 -1z m3063 4 c12 -4 25
-17 28 -30 4 -17 13 -24 31 -24 24 0 25 -2 18 -37 -4 -21 -8 -40 -10 -42 -8
-7 -25 11 -25 28 0 23 -52 61 -84 61 -54 0 -74 23 -33 40 27 11 45 12 75 4z
m-2988 -23 c-26 -21 -40 -19 -40 5 0 9 11 14 33 14 l32 0 -25 -19z m181 -11
c5 0 9 -4 9 -10 0 -11 -30 -13 -55 -4 -13 5 -14 8 -3 15 7 5 19 7 26 4 8 -3
18 -5 23 -5z m79 -10 c-19 -13 -30 -13 -30 0 0 6 10 10 23 10 18 0 19 -2 7
-10z m2005 -40 c0 -32 -2 -34 -35 -36 -39 -2 -60 10 -60 35 0 28 23 42 60 39
33 -3 35 -5 35 -38z m-4770 22 c15 -11 35 -50 35 -69 0 -25 -33 -91 -48 -98
-28 -11 -35 7 -28 71 6 58 5 64 -16 75 -22 12 -22 12 -3 20 26 10 48 10 60 1z
m100 -2 c4 -6 14 -9 23 -6 12 4 22 -5 33 -29 16 -34 16 -34 -10 -37 -33 -4
-42 -37 -12 -45 31 -8 24 -30 -16 -52 -33 -17 -41 -14 -48 20 -6 24 -3 34 9
41 14 8 14 12 -5 37 -14 20 -18 35 -14 54 7 27 28 36 40 17z m1713 2 l72 -5 0
-33 c0 -18 -5 -36 -10 -39 -11 -7 -481 -8 -487 -1 -2 2 -1 22 3 45 l7 43 171
-3 c94 -1 204 -4 244 -7z m4457 -13 c5 -6 5 -13 -3 -21 -9 -9 -20 -8 -47 5
-20 10 -33 22 -30 28 7 11 64 3 80 -12z m88 -4 c1 -5 -6 -11 -15 -13 -11 -2
-18 3 -18 13 0 17 30 18 33 0z m-5219 -14 c3 -4 -1 -17 -9 -27 -14 -18 -14
-18 -15 9 0 26 13 36 24 18z m4037 -7 c42 -21 32 -38 -24 -42 -51 -3 -71 15
-47 43 16 19 33 19 71 -1z m104 -14 c0 -20 -5 -25 -25 -25 -28 0 -41 32 -18
46 23 15 43 5 43 -21z m-2670 -105 c19 -10 35 -22 35 -27 0 -16 -36 -7 -62 17
-23 19 -28 33 -28 68 0 61 14 69 18 10 3 -44 6 -51 37 -68z m-2135 76 c16 -30
12 -41 -13 -41 -28 0 -47 17 -47 42 0 25 46 24 60 -1z m2025 3 c30 -20 32 -31
5 -39 -11 -3 -20 -13 -20 -22 0 -13 -3 -13 -15 -3 -9 8 -13 21 -9 36 8 33 -14
31 -26 -2 -6 -14 -8 -30 -4 -35 10 -16 -6 -31 -21 -19 -10 8 -19 8 -35 -2 -17
-11 -22 -11 -29 1 -20 32 12 73 69 89 50 14 58 14 85 -4z m3705 2 c0 -21 -21
-31 -30 -15 -5 7 -6 17 -4 21 9 14 34 9 34 -6z m-3503 -30 c-9 -22 -40 -36
-58 -25 -12 8 -11 12 6 24 11 8 25 18 30 24 13 12 29 -4 22 -23z m2063 10 c0
-8 12 -18 28 -24 38 -13 132 -100 132 -122 0 -11 5 -22 10 -25 7 -4 8 -11 2
-18 -6 -7 -10 -32 -10 -57 -3 -120 -129 -234 -239 -217 -135 22 -209 125 -188
263 5 39 16 55 71 110 35 35 72 64 83 64 10 0 21 9 24 20 4 16 14 20 46 20 29
0 41 -4 41 -14z m-2625 -34 c-8 -8 -25 10 -25 26 0 13 2 13 14 -4 8 -10 13
-21 11 -22z m42 13 c-4 -8 -11 -15 -17 -15 -7 0 -7 6 0 21 13 23 26 19 17 -6z
m-1618 -4 c9 -6 10 -11 2 -15 -15 -10 -53 3 -46 15 8 11 26 11 44 0z m176 -2
c10 -15 -1 -23 -20 -15 -9 3 -13 10 -10 16 8 13 22 13 30 -1z m345 -4 c0 -8
-4 -15 -10 -15 -5 0 -10 7 -10 15 0 8 5 15 10 15 6 0 10 -7 10 -15z m54 6 c3
-5 -1 -14 -9 -21 -13 -10 -15 -9 -15 9 0 21 14 28 24 12z m4426 -47 c-7 -13
-21 -26 -31 -29 -10 -3 -21 -15 -24 -25 -3 -10 -15 -22 -26 -25 -14 -5 -19
-15 -19 -40 0 -19 -4 -36 -9 -40 -15 -9 -23 32 -11 56 11 19 8 25 -24 51 -20
16 -36 33 -36 37 0 5 34 11 76 13 64 4 77 8 91 28 21 30 31 8 13 -26z m-4225
24 c2 -7 6 -113 9 -236 6 -198 5 -223 -10 -229 -8 -3 -23 1 -31 10 -14 14 -16
47 -15 232 1 119 4 221 8 226 8 13 34 11 39 -3z m-852 -31 c10 -4 16 -11 13
-16 -9 -15 -66 -18 -84 -5 -16 11 -15 14 2 33 17 18 22 19 35 8 9 -8 24 -17
34 -20z m1477 14 c0 -5 -7 -14 -15 -21 -13 -10 -15 -9 -15 9 0 12 6 21 15 21
8 0 15 -4 15 -9z m4368 -8 c-5 -25 -28 -28 -28 -4 0 12 6 21 16 21 9 0 14 -7
12 -17z m-5492 -4 c10 -17 -17 -30 -55 -27 -40 3 -53 24 -19 31 44 8 67 7 74
-4z m291 -1 c6 -7 10 -42 9 -77 -1 -85 -22 -93 -32 -14 -5 43 -9 53 -15 38 -4
-11 -8 -37 -8 -57 -2 -70 -21 -39 -21 32 0 64 2 72 23 80 30 12 33 12 44 -2z
m1053 -13 c0 -10 -11 -15 -35 -15 -33 0 -43 8 -28 23 13 14 63 7 63 -8z m308
-17 c26 -26 14 -46 -30 -50 -54 -6 -66 4 -44 36 18 28 54 34 74 14z m240 -28
c2 -13 11 -29 19 -35 25 -19 5 -138 -25 -149 -10 -3 -23 -9 -29 -12 -8 -3 -13
2 -13 13 0 10 -7 29 -17 42 -13 19 -14 27 -4 43 9 15 9 23 0 34 -15 18 -4 45
15 38 10 -4 16 -22 18 -52 3 -39 6 -47 23 -47 13 0 21 8 23 24 6 39 -7 71 -28
71 -11 0 -20 3 -20 8 0 4 -3 18 -7 30 -5 21 -3 23 18 20 17 -2 25 -11 27 -28z
m-2257 0 c10 0 19 -7 19 -15 0 -11 -12 -15 -45 -15 -32 0 -45 4 -45 14 0 16
19 26 38 20 8 -2 22 -4 33 -4z m-451 -19 c0 -17 -5 -19 -34 -14 -19 3 -36 1
-40 -6 -9 -14 -26 -14 -26 -1 0 6 6 10 14 10 8 0 16 7 20 15 3 9 18 15 36 15
23 0 30 -4 30 -19z m815 10 c10 -17 -14 -22 -63 -15 -45 8 -45 8 -17 15 45 10
73 10 80 0z m1347 -99 c2 -88 4 -103 20 -108 25 -7 13 -24 -18 -24 -25 0 -26
2 -28 95 -1 23 -6 30 -21 30 -15 0 -21 8 -23 33 -4 37 10 42 25 10 10 -21 11
-20 18 17 17 87 23 74 27 -53z m3397 79 c14 -26 -10 -48 -29 -26 -13 16 -7 45
9 45 6 0 15 -9 20 -19z m-3609 -18 c0 -10 -4 -24 -9 -32 -7 -11 -10 -9 -16 8
-7 22 0 41 16 41 5 0 9 -8 9 -17z m3395 -3 c3 -10 2 -28 -4 -38 -6 -11 -6 -23
-1 -28 14 -14 16 -87 2 -92 -16 -5 -15 -30 3 -48 15 -15 15 -63 0 -362 -4 -98
-15 -142 -34 -142 -5 0 -7 -9 -4 -20 5 -18 0 -20 -49 -20 -70 0 -84 15 -93 99
-6 50 -11 64 -26 68 -25 7 -24 33 1 33 11 0 20 7 20 15 0 8 -9 15 -20 15 -11
0 -20 7 -20 15 0 8 6 15 14 15 24 0 30 21 7 27 -27 7 -27 33 0 33 14 0 19 5
17 18 -2 9 -9 17 -16 17 -6 0 -11 5 -9 10 1 6 6 9 11 7 13 -4 25 18 19 35 -3
7 -15 13 -27 14 -19 1 -18 2 4 8 24 7 25 9 27 117 1 76 6 118 17 139 9 17 16
38 16 47 0 20 41 36 97 37 33 1 43 -3 48 -19z m-2870 -86 c-14 -19 -32 -34
-39 -34 -13 0 -56 53 -56 69 0 18 22 23 46 11 28 -16 53 0 55 34 1 14 4 11 10
-12 9 -29 7 -38 -16 -68z m-2005 59 c0 -10 -11 -13 -42 -11 -42 3 -64 23 -31
30 33 6 73 -4 73 -19z m345 8 c10 -17 -14 -23 -58 -15 -38 7 -40 8 -17 15 36
10 68 10 75 0z m-808 -41 c5 -27 -13 -43 -41 -36 -27 7 -37 40 -13 50 22 9 52
1 54 -14z m6208 9 c10 -15 -1 -23 -20 -15 -9 3 -13 10 -10 16 8 13 22 13 30
-1z m85 -15 c0 -17 -22 -14 -28 4 -2 7 3 12 12 12 9 0 16 -7 16 -16z m-860
-30 c0 -23 -14 -32 -24 -16 -8 13 5 52 15 46 5 -3 9 -16 9 -30z m-4966 17 c11
-17 -6 -41 -28 -41 -27 0 -68 28 -61 41 8 12 82 12 89 0z m344 1 c10 -7 10
-14 -1 -35 -13 -24 -16 -26 -27 -12 -7 9 -20 13 -28 10 -29 -11 -33 8 -5 26
31 21 42 23 61 11z m4740 -24 c-2 -13 -10 -23 -18 -23 -8 0 -16 10 -18 23 -3
17 2 22 18 22 16 0 21 -5 18 -22z m-2277 -24 c10 -12 5 -30 -25 -90 -36 -71
-65 -102 -86 -89 -6 3 -10 14 -10 24 0 21 27 78 41 86 17 11 9 25 -15 25 -36
0 -52 24 -29 47 22 22 105 20 124 -3z m349 -1 c0 -20 -3 -24 -11 -16 -7 7 -9
19 -6 27 10 24 17 19 17 -11z m-1681 -40 c-1 -32 1 -76 4 -98 8 -42 -3 -72
-22 -61 -7 5 -9 42 -7 109 5 117 3 107 16 107 6 0 10 -24 9 -57z m161 22 c0
-19 -4 -35 -10 -35 -11 0 -14 53 -3 63 11 12 13 8 13 -28z m-322 3 c-5 -14
-118 -24 -145 -14 -33 13 4 26 73 26 56 0 75 -3 72 -12z m472 -33 c0 -8 -6
-15 -14 -15 -17 0 -28 14 -19 24 12 12 33 6 33 -9z m1810 5 c0 -5 -12 -10 -26
-10 -14 0 -23 4 -19 10 3 6 15 10 26 10 10 0 19 -4 19 -10z m2265 0 c4 -6 -23
-10 -75 -10 -52 0 -79 4 -75 10 3 6 37 10 75 10 38 0 72 -4 75 -10z m-775 -51
c0 -10 -7 -19 -15 -19 -15 0 -21 31 -9 43 11 10 24 -3 24 -24z m-3142 -21 c2
-28 -1 -39 -17 -47 -26 -14 -51 10 -51 48 0 35 8 43 40 39 21 -3 25 -9 28 -40z
m110 -4 c4 -48 -16 -63 -47 -36 -15 13 -18 25 -14 50 5 29 9 33 32 30 23 -3
26 -8 29 -44z m2912 22 c0 -14 -5 -28 -10 -31 -7 -4 -6 -13 1 -26 13 -26 3
-62 -11 -39 -11 17 -13 103 -3 113 13 14 23 6 23 -17z m-3845 -6 c0 -11 -15
-16 -64 -18 -37 -2 -69 2 -75 8 -18 18 10 28 78 26 47 -1 61 -4 61 -16z m2716
-10 c10 -6 19 -17 19 -25 0 -8 7 -15 15 -15 8 0 15 -7 15 -15 0 -8 -5 -15 -10
-15 -6 0 -13 7 -16 15 -4 8 -12 15 -20 15 -8 0 -14 -7 -14 -15 0 -17 -26 -20
-35 -4 -4 6 2 13 14 16 26 7 27 21 4 39 -22 16 -1 19 28 4z m89 0 c0 -5 -11
-10 -25 -10 -14 0 -25 5 -25 10 0 6 11 10 25 10 14 0 25 -4 25 -10z m-4520
-32 c0 -16 -3 -19 -11 -11 -6 6 -8 16 -5 22 11 17 16 13 16 -11z m481 12 c5 0
9 -9 9 -20 0 -23 29 -41 62 -37 22 2 23 -1 26 -85 l2 -88 -29 0 c-17 0 -34 7
-39 16 -8 14 -12 14 -30 3 -19 -12 -24 -11 -44 8 -19 19 -22 35 -24 112 -2 76
1 91 15 94 9 3 22 3 29 1 8 -2 18 -4 23 -4z m1829 -5 c0 -15 -43 -12 -48 3 -3
10 4 13 22 10 15 -2 26 -7 26 -13z m73 0 c1 -5 -6 -11 -15 -13 -11 -2 -18 3
-18 13 0 17 30 18 33 0z m-1153 -15 c0 -11 -4 -20 -10 -20 -5 0 -10 9 -10 20
0 11 5 20 10 20 6 0 10 -9 10 -20z m3328 -8 c3 -17 -2 -22 -21 -22 -33 0 -40
10 -20 32 20 23 37 19 41 -10z m-4361 -24 c25 -9 33 -17 31 -33 -2 -15 -12
-21 -42 -23 -46 -4 -61 8 -52 42 7 29 16 31 63 14z m5483 -7 c0 -11 -5 -23
-11 -27 -14 -8 -29 14 -22 33 8 20 33 16 33 -6z m-790 0 c0 -6 -5 -13 -11 -16
-15 -10 -61 4 -54 15 8 13 65 13 65 1z m-2425 -31 c11 -49 -3 -90 -29 -90 -20
0 -24 6 -29 47 -6 59 -1 73 28 73 18 0 25 -7 30 -30z m-1230 -31 c0 -43 -1
-44 -30 -41 -37 4 -42 9 -27 24 7 7 12 19 12 28 0 20 21 41 35 37 5 -2 10 -24
10 -48z m-1225 11 c0 -10 -4 -21 -9 -25 -12 -7 -25 31 -16 45 9 15 25 2 25
-20z m4460 15 c0 -8 -9 -15 -20 -15 -20 0 -26 11 -13 23 12 13 33 7 33 -8z
m595 -14 c-3 -12 -14 -21 -23 -21 -16 1 -16 2 1 14 9 7 17 19 17 26 0 7 3 11
6 7 3 -3 3 -15 -1 -26z m-5299 -38 l1 -51 -43 1 c-47 0 -62 17 -49 57 4 12 1
28 -6 36 -11 13 -6 15 42 12 l54 -3 1 -52z m2352 45 c18 -18 15 -28 -8 -28
-13 0 -20 7 -20 20 0 23 10 26 28 8z m2502 2 c0 -5 -6 -10 -14 -10 -8 0 -18 5
-21 10 -3 6 3 10 14 10 12 0 21 -4 21 -10z m1204 -26 c9 -8 16 -26 16 -40 0
-14 7 -27 16 -31 26 -10 49 11 46 40 -4 30 27 52 62 43 22 -5 23 -13 30 -111
4 -66 3 -112 -4 -124 -14 -27 -13 -63 4 -87 12 -17 12 -39 0 -159 -8 -77 -11
-166 -8 -197 8 -68 -5 -92 -40 -78 -30 11 -100 7 -118 -7 -17 -14 -119 -26
-134 -16 -26 19 -34 78 -28 205 6 128 6 128 -17 137 l-24 10 23 0 c12 1 23 4
24 9 0 4 2 95 3 203 1 108 5 201 9 207 11 18 121 15 140 -4z m247 -3 c31 -25
21 -34 -22 -19 -45 16 -46 18 -29 28 21 13 25 13 51 -9z m109 -2 c0 -5 -11 -9
-25 -9 -28 0 -34 16 -7 23 20 4 32 -1 32 -14z m-5820 -10 c0 -11 -4 -17 -10
-14 -5 3 -10 13 -10 21 0 8 5 14 10 14 6 0 10 -9 10 -21z m2310 11 c0 -11 -14
-11 -50 0 -22 7 -21 8 13 9 20 1 37 -3 37 -9z m-686 -26 c15 -40 -6 -44 -240
-44 -214 0 -224 1 -234 20 -6 11 -8 25 -5 30 4 6 98 10 240 10 206 0 234 -2
239 -16z m301 -5 c8 -23 1 -34 -14 -24 -13 8 -15 45 -2 45 5 0 13 -9 16 -21z
m-2277 -109 c-1 -44 -5 -80 -9 -80 -8 0 -17 115 -11 147 9 49 22 8 20 -67z
m317 27 c-6 -51 -4 -65 9 -76 11 -9 13 -18 6 -31 -6 -11 -5 -21 2 -28 17 -17
-2 -33 -29 -26 -20 6 -22 13 -25 111 -2 58 -1 107 1 109 2 2 13 4 23 4 18 0
19 -5 13 -63z m-557 -9 c3 -23 -1 -26 -35 -31 -30 -4 -42 0 -56 16 -21 24 -13
34 33 40 50 5 55 3 58 -25z m2672 17 c0 -8 -4 -15 -10 -15 -5 0 -10 7 -10 15
0 8 5 15 10 15 6 0 10 -7 10 -15z m-937 -12 c-13 -2 -33 -2 -45 0 -13 2 -3 4
22 4 25 0 35 -2 23 -4z m-2135 -19 c30 -21 31 -83 1 -110 l-20 -18 21 -8 c13
-5 20 -15 18 -25 -3 -15 -15 -19 -66 -21 -80 -4 -90 13 -38 67 20 20 36 40 36
44 0 4 -14 7 -30 7 -40 0 -48 24 -19 55 27 28 65 32 97 9z m1212 -14 c0 -24
-41 -28 -59 -7 -14 18 -4 27 31 27 21 0 28 -5 28 -20z m-665 -82 c-6 -76 -15
-89 -15 -20 0 27 -3 57 -6 66 -4 11 -1 16 10 16 13 0 15 -10 11 -62z m1661 28
c11 -18 13 -30 6 -42 -5 -9 -7 -25 -5 -34 3 -13 -4 -21 -28 -29 -30 -10 -31
-12 -17 -29 9 -9 19 -33 22 -52 6 -30 5 -32 -5 -15 -17 29 -29 35 -69 35 -24
0 -39 6 -48 20 -18 30 -7 40 42 40 l43 0 1 55 c0 30 3 59 7 65 11 17 34 11 51
-14z m4713 -4 c15 -22 17 -32 9 -40 -9 -9 -7 -16 5 -30 23 -25 21 -44 -6 -75
-17 -21 -32 -27 -62 -27 -56 0 -85 32 -85 93 0 93 92 145 139 79z m-4894 9 c3
-5 1 -13 -5 -16 -15 -9 -43 3 -35 15 8 13 32 13 40 1z m-867 -13 c6 -6 27 -11
47 -10 25 1 35 -3 35 -13 0 -10 -9 -15 -27 -13 -39 2 -73 -11 -73 -28 0 -8 10
-14 26 -14 14 0 22 -4 19 -10 -3 -5 -9 -28 -13 -51 l-7 -42 -53 -3 c-42 -2
-54 1 -59 14 -3 9 -13 25 -21 35 -14 16 -13 19 6 38 29 26 28 45 -5 62 l-27
14 30 16 c34 19 105 22 122 5z m4285 -13 c8 -18 -11 -31 -25 -17 -11 11 -3 32
12 32 4 0 10 -7 13 -15z m-2563 -22 c0 -19 -23 -53 -36 -53 -2 0 -9 11 -14 25
-8 21 -13 23 -33 16 -17 -7 -33 -5 -52 5 -15 8 -35 15 -44 15 -42 3 52 16 111
15 63 -1 68 -3 68 -23z m2662 5 c-9 -9 -15 -9 -24 0 -9 9 -7 12 12 12 19 0 21
-3 12 -12z m236 5 c-10 -2 -28 -2 -40 0 -13 2 -5 4 17 4 22 1 32 -1 23 -4z
m-4540 -55 c-3 -7 -11 -13 -18 -13 -7 0 -15 6 -17 13 -3 7 4 12 17 12 13 0 20
-5 18 -12z m783 -33 c0 -5 -9 -11 -21 -13 -20 -3 -27 8 -13 22 10 9 34 3 34
-9z m-1148 -19 c16 -24 2 -50 -32 -57 -42 -9 -58 -3 -67 23 -10 31 22 58 60
51 17 -3 34 -11 39 -17z m1397 -6 c14 -26 47 -25 69 2 10 12 23 18 29 14 16
-9 16 -93 0 -98 -7 -3 -9 -11 -4 -24 5 -10 10 -40 13 -66 3 -39 1 -48 -12 -48
-9 0 -18 7 -21 15 -8 20 -53 19 -75 -1 -10 -9 -23 -13 -28 -9 -12 7 -10 83 2
103 5 6 5 17 2 22 -9 14 -16 91 -9 101 9 15 23 10 34 -11z m3222 -12 c-15 -15
-26 -4 -18 18 5 13 9 15 18 6 9 -9 9 -15 0 -24z m-3458 -32 c15 -23 14 -25 -4
-31 -29 -9 -90 5 -90 21 0 8 9 14 19 14 11 0 23 5 26 10 11 17 32 11 49 -14z
m392 -13 c-11 -11 -17 4 -9 23 7 18 8 18 11 1 2 -10 1 -21 -2 -24z m3778 3
l27 -14 -27 -6 c-29 -8 -51 5 -40 23 9 14 8 14 40 -3z m-4070 -5 c8 -12 -4
-71 -14 -71 -4 0 -10 10 -13 22 -6 21 -7 21 -27 3 -20 -18 -20 -18 -20 3 0 38
57 71 74 43z m3661 -11 c3 -5 16 -10 29 -10 12 0 27 -5 34 -12 7 -7 38 -12 69
-12 l58 -1 3 -125 c3 -151 0 -170 -32 -170 -32 0 -50 23 -38 47 6 11 7 42 4
72 l-7 54 -158 1 c-117 1 -161 -2 -169 -12 -6 -7 -9 -38 -6 -76 5 -55 3 -64
-14 -75 -36 -22 -45 1 -53 128 -9 150 -4 161 68 161 29 0 62 6 72 14 10 7 26
11 34 9 9 -2 27 0 41 6 33 13 57 13 65 1z m-3775 -55 c0 -16 -12 -18 -49 -8
-23 6 -23 7 -5 14 31 12 54 10 54 -6z m603 5 c16 0 18 -3 10 -11 -7 -7 -25 -9
-49 -4 -28 5 -34 9 -23 16 8 5 20 7 27 4 8 -3 23 -5 35 -5z m-1972 -53 c-8 -8
-11 -3 -11 19 1 25 2 27 11 11 8 -14 8 -22 0 -30z m1877 -5 c2 -7 -3 -12 -12
-12 -9 0 -16 7 -16 16 0 17 22 14 28 -4z m72 -26 c0 -20 1 -20 13 3 15 30 29
30 43 1 l12 -22 7 21 c8 25 33 28 42 5 5 -15 7 -15 15 0 12 21 34 20 47 -1 6
-11 11 -13 11 -5 0 22 30 26 45 6 14 -18 15 -18 26 -1 9 15 13 16 26 6 11 -10
19 -10 33 -1 12 7 21 8 25 2 4 -6 36 -8 75 -6 59 4 70 2 74 -12 7 -20 59 -52
85 -52 30 0 41 -22 41 -87 l0 -63 -32 0 c-19 0 -41 -9 -55 -22 -23 -21 -33
-22 -277 -26 -166 -3 -256 -1 -260 6 -3 6 -30 8 -65 5 -54 -5 -59 -4 -66 16
-4 14 -15 21 -31 21 -23 0 -24 2 -24 78 0 84 7 106 29 92 8 -4 25 -4 38 1 14
5 35 9 49 9 14 0 27 7 29 15 3 8 7 22 10 30 6 22 35 7 35 -19z m3595 25 c7
-12 -12 -24 -25 -16 -11 7 -4 25 10 25 5 0 11 -4 15 -9z m-5967 -100 c27 -23
27 -26 2 -51 -43 -43 -98 -4 -65 46 19 29 32 30 63 5z m915 4 c-1 -5 -13 -11
-27 -13 -13 -2 -30 -10 -36 -18 -19 -22 -40 -17 -40 10 0 20 6 25 33 29 47 6
72 3 70 -8z m0 -51 c4 -4 -4 -17 -16 -30 -26 -28 -87 -34 -87 -9 0 11 11 15
40 15 29 0 40 4 40 15 0 15 12 20 23 9z m5059 -39 c10 -22 9 -29 -10 -48 l-22
-21 -22 22 -22 22 24 25 c29 31 38 31 52 0z"/>
<path d="M8450 2726 c0 -16 5 -26 15 -26 8 0 15 6 15 14 0 7 -7 19 -15 26 -13
11 -15 8 -15 -14z"/>
<path d="M7101 2806 c-12 -14 -5 -26 16 -26 15 0 18 26 4 34 -5 3 -14 0 -20
-8z"/>
<path d="M291 2541 c-11 -20 -5 -31 16 -31 7 0 13 11 13 25 0 29 -15 33 -29 6z"/>
<path d="M290 2285 c0 -8 7 -15 15 -15 8 0 15 7 15 15 0 8 -7 15 -15 15 -8 0
-15 -7 -15 -15z"/>
<path d="M6230 2665 c-15 -18 -10 -45 13 -59 15 -9 21 -7 33 8 18 25 18 31 -2
50 -19 20 -28 20 -44 1z"/>
<path d="M1760 2255 c0 -8 7 -15 15 -15 8 0 15 7 15 15 0 8 -7 15 -15 15 -8 0
-15 -7 -15 -15z"/>
<path d="M3150 2120 c0 -11 7 -20 15 -20 8 0 19 9 25 20 9 18 8 20 -15 20 -18
0 -25 -5 -25 -20z"/>
<path d="M4065 2040 c-17 -18 -17 -21 -1 -45 19 -29 24 -30 46 -10 15 14 20
14 46 0 36 -19 48 -19 63 -1 8 9 8 22 2 38 -13 36 -40 43 -66 18 l-22 -20 -18
20 c-22 25 -27 25 -50 0z"/>
<path d="M2665 1970 c-8 -14 3 -30 21 -30 16 0 16 2 8 24 -7 18 -20 21 -29 6z"/>
<path d="M2480 1951 c0 -11 4 -22 9 -25 11 -7 23 22 15 35 -9 16 -24 10 -24
-10z"/>
<path d="M4282 1611 c-49 -37 -57 -48 -42 -66 8 -10 25 -12 58 -9 26 3 67 1
92 -4 25 -6 35 -10 23 -11 -13 -1 -23 -5 -23 -11 0 -16 50 -12 67 6 11 11 19
12 26 5 18 -18 27 -12 27 17 0 48 -76 102 -143 102 -33 0 -54 -8 -85 -29z"/>
<path d="M4290 1450 c0 -5 10 -10 23 -10 18 0 19 2 7 10 -19 13 -30 13 -30 0z"/>
<path d="M4380 1452 c0 -5 7 -13 16 -16 24 -9 54 -7 54 4 0 6 -9 10 -19 10
-11 0 -26 3 -35 6 -9 3 -16 2 -16 -4z"/>
<path d="M4254 1395 c-10 -26 9 -37 41 -25 30 11 26 23 -13 35 -16 4 -24 2
-28 -10z"/>
<path d="M4341 1397 c-9 -12 -6 -18 13 -31 47 -30 63 -15 23 23 -20 18 -26 19
-36 8z"/>
<path d="M4440 1365 c0 -9 9 -15 25 -15 28 0 34 15 9 24 -25 10 -34 7 -34 -9z"/>
<path d="M4765 1619 c-45 -24 -75 -48 -75 -61 0 -4 56 -8 125 -8 69 0 125 4
125 8 0 18 -63 60 -115 76 -12 3 -37 -3 -60 -15z"/>
<path d="M5730 1380 c-54 -31 -76 -56 -61 -73 9 -12 20 -13 54 -5 23 5 78 8
121 6 52 -1 81 1 83 9 2 6 -15 27 -38 47 -50 42 -102 47 -159 16z"/>
<path d="M5676 1162 c-10 -17 11 -35 29 -24 17 9 17 10 -3 21 -11 6 -23 7 -26
3z"/>
<path d="M1522 909 c2 -6 8 -10 13 -10 5 0 11 4 13 10 2 6 -4 11 -13 11 -9 0
-15 -5 -13 -11z"/>
<path d="M2662 453 c5 -25 28 -28 28 -4 0 12 -6 21 -16 21 -9 0 -14 -7 -12
-17z"/>
<path d="M180 1474 c0 -21 4 -33 10 -29 6 3 10 19 10 36 0 16 -4 29 -10 29 -5
0 -10 -16 -10 -36z"/>
<path d="M8710 1073 c-41 -7 -80 -25 -74 -34 3 -5 6 -80 7 -167 l1 -157 -53
-100 c-87 -163 -114 -217 -144 -285 -37 -85 -52 -119 -68 -155 -16 -36 -38
-114 -38 -135 -1 -30 60 61 121 180 7 14 18 31 25 38 7 7 13 22 13 32 0 10 7
20 15 24 8 3 15 14 15 25 0 10 7 21 15 25 8 3 15 17 15 31 0 18 5 25 20 25 13
0 20 7 20 19 0 10 7 21 15 25 8 3 15 17 15 31 0 16 6 25 15 25 9 0 15 9 15 24
0 13 7 26 15 30 8 3 15 15 15 26 0 11 7 20 15 20 8 0 15 -4 15 -10 0 -5 4 -10
10 -10 5 0 7 13 3 31 -3 17 -1 34 4 38 6 3 24 33 40 66 17 33 37 74 46 90 8
17 19 41 24 55 6 14 26 59 47 100 20 41 36 81 36 88 0 9 -26 12 -97 11 -54 -1
-109 -4 -123 -6z"/>
<path d="M4790 988 c0 -30 15 -54 24 -39 4 6 18 11 30 11 15 0 26 7 29 19 6
25 -2 34 -19 20 -9 -7 -19 -7 -33 0 -28 15 -31 14 -31 -11z"/>
<path d="M8966 915 c-8 -30 -1 -45 20 -45 9 0 14 11 14 35 0 42 -24 49 -34 10z"/>
<path d="M5121 862 c-40 -40 -49 -56 -54 -96 -10 -69 2 -126 34 -167 16 -20
29 -42 29 -48 0 -6 5 -11 10 -11 6 0 20 -23 32 -50 l22 -50 35 33 c20 19 43
37 51 41 48 21 99 59 128 96 29 38 32 47 32 115 0 52 -4 76 -15 85 -8 7 -15
17 -15 22 0 12 -28 40 -62 61 -19 12 -49 17 -103 17 l-76 0 -48 -48z m162 -44
c29 -14 40 -41 30 -77 -3 -14 -1 -26 7 -31 21 -13 -5 -63 -41 -79 -25 -11 -35
-11 -67 2 l-37 15 -2 68 c-2 64 0 71 25 91 31 26 47 28 85 11z"/>
<path d="M8942 756 c-55 -59 -83 -108 -110 -191 -13 -38 -27 -79 -32 -90 -4
-11 -18 -49 -30 -85 -12 -36 -29 -79 -36 -97 -8 -17 -14 -36 -14 -42 0 -6 -4
-19 -10 -29 -28 -50 -50 -115 -50 -146 0 -34 1 -35 58 -46 31 -6 73 -15 93
-20 20 -6 71 -10 113 -10 l76 0 0 400 c0 221 -4 400 -9 400 -5 0 -27 -20 -49
-44z"/>
<path d="M4214 702 c-31 -21 -36 -82 -7 -104 29 -24 45 -22 66 8 35 47 -14
127 -59 96z"/>
<path d="M5121 326 c-7 -8 -11 -34 -9 -58 3 -36 7 -44 26 -46 29 -4 51 23 52
64 0 48 -42 73 -69 40z"/>
<path d="M196 309 c-26 -20 -56 -68 -56 -88 0 -6 16 -26 35 -46 39 -38 69 -44
113 -21 64 33 85 95 49 150 -15 22 -25 26 -66 26 -34 0 -56 -6 -75 -21z"/>
<path d="M8576 198 c-5 -16 -12 -28 -16 -28 -10 0 -34 -69 -27 -76 8 -8 37 27
37 45 0 9 5 22 11 28 6 6 9 21 7 34 -4 24 -5 23 -12 -3z"/>
</g>
</svg>
