M48
; DRILL file {KiCad 9.0.0} date 2025-05-04T10:29:45+1000
; FORMAT={-:-/ absolute / inch / decimal}
; #@! TF.CreationDate,2025-05-04T10:29:45+10:00
; #@! TF.GenerationSoftware,Kicad,Pcbnew,9.0.0
; #@! TF.FileFunction,Plated,1,2,PTH
FMAT,2
INCH
; #@! TA.AperFunction,Plated,PTH,ViaDrill
T1C0.0118
; #@! TA.AperFunction,Plated,PTH,ComponentDrill
T2C0.0315
; #@! TA.AperFunction,Plated,PTH,ComponentDrill
T3C0.0354
; #@! TA.AperFunction,Plated,PTH,ComponentDrill
T4C0.0374
; #@! TA.AperFunction,Plated,PTH,ComponentDrill
T5C0.0394
; #@! TA.AperFunction,Plated,PTH,ComponentDrill
T6C0.0417
; #@! TA.AperFunction,Plated,PTH,ComponentDrill
T7C0.0591
%
G90
G05
T1
X2.813Y-2.4587
X3.7165Y-2.7953
X3.7253Y-2.7559
X3.7283Y-2.6614
X3.7283Y-2.8524
X3.7323Y-3.0453
X3.923Y-3.2463
X3.9429Y-2.4606
X4.0394Y-2.9085
X4.0931Y-2.7553
T2
X2.8012Y-2.6543
X2.8012Y-3.0543
X3.1386Y-2.7992
X3.1575Y-2.2969
X3.1575Y-2.6969
X3.2795Y-2.2969
X3.2795Y-2.6969
X3.4016Y-2.2969
X3.4016Y-2.6969
X3.5236Y-2.2961
X3.5236Y-2.6961
X3.5386Y-2.7992
T3
X3.7976Y-2.7461
X3.8476Y-2.7461
X3.8976Y-2.7461
X3.9476Y-2.7461
T4
X2.5787Y-2.2559
X2.6772Y-2.2559
X2.7756Y-2.2559
X2.874Y-2.2559
X3.7559Y-3.5827
X3.8543Y-3.5827
X3.8701Y-2.1575
X3.8701Y-2.2559
X3.8701Y-2.3543
X3.8701Y-2.4528
X3.9528Y-3.5827
X4.0512Y-3.5827
X4.2087Y-2.7362
X4.2087Y-2.8346
X4.2087Y-2.9331
X4.2087Y-3.0315
X4.2087Y-3.1299
T5
X2.4229Y-2.4587
X2.4229Y-2.5587
X2.4229Y-2.6587
X2.4229Y-2.7587
X2.4229Y-2.8587
X2.4229Y-2.9587
X2.4229Y-3.0587
X2.4229Y-3.1587
X2.7047Y-3.558
X2.7229Y-3.1587
X2.7835Y-3.3346
X2.7835Y-3.5315
X2.8229Y-3.1587
X2.8622Y-3.3082
X2.9229Y-2.4587
X2.9229Y-2.5587
X2.9229Y-2.6587
X2.9229Y-2.7587
X2.9229Y-2.8587
X2.9229Y-2.9587
X2.9229Y-3.0587
X2.9229Y-3.1587
X3.0472Y-2.1354
X3.0472Y-2.2354
X3.0472Y-2.3354
X3.0472Y-2.4354
X3.0472Y-2.5354
X3.0472Y-2.6354
X3.0472Y-2.7354
X3.0472Y-2.8354
X3.0472Y-2.9354
X3.1058Y-3.5433
X3.1472Y-2.9354
X3.2048Y-3.5433
X3.2472Y-2.9354
X3.3472Y-2.9354
X3.3937Y-3.1063
X3.3937Y-3.2053
X3.4213Y-3.5827
X3.4472Y-2.9354
X3.5197Y-3.5827
X3.5472Y-2.9354
X3.6472Y-2.1354
X3.6472Y-2.2354
X3.6472Y-2.3354
X3.6472Y-2.4354
X3.6472Y-2.5354
X3.6472Y-2.6354
X3.6472Y-2.7354
X3.6472Y-2.8354
X3.6472Y-2.9354
X3.6772Y-3.1063
X3.6772Y-3.2053
X4.1535Y-2.5453
X4.252Y-2.2016
X4.252Y-2.3016
X4.252Y-2.4016
X4.2535Y-2.5453
T6
X3.7533Y-3.3691
X3.9921Y-3.263
X3.9931Y-2.9791
X4.0372Y-3.3701
T7
X2.5531Y-2.0571
X4.1181Y-2.0571
M30
