<?xml version="1.0" standalone="no"?>
<!DOCTYPE svg PUBLIC "-//W3C//DTD SVG 20010904//EN"
 "http://www.w3.org/TR/2001/REC-SVG-20010904/DTD/svg10.dtd">
<svg version="1.0" xmlns="http://www.w3.org/2000/svg"
 width="225.000000pt" height="225.000000pt" viewBox="0 0 225.000000 225.000000"
 preserveAspectRatio="xMidYMid meet">
<metadata>
Created by potrace 1.10, written by Peter Selinger 2001-2011
</metadata>
<g transform="translate(0.000000,225.000000) scale(0.100000,-0.100000)"
fill="#000000" stroke="none">
<path d="M800 1900 l-275 -5 0 -483 c0 -265 2 -482 4 -482 3 0 88 33 190 74
102 40 225 88 273 107 l88 34 0 383 c0 210 -1 381 -2 380 -2 -2 -127 -5 -278
-8z m231 -40 c18 -10 19 -25 19 -345 l0 -335 -22 -14 c-13 -8 -35 -18 -50 -21
-15 -4 -32 -13 -39 -21 -6 -8 -15 -12 -19 -9 -6 4 -143 -46 -205 -75 -58 -27
-130 -50 -142 -46 -11 4 -13 82 -13 421 0 268 4 423 10 436 10 18 23 19 226
19 129 0 223 -4 235 -10z"/>
<path d="M1170 1660 l0 -245 266 -105 c146 -58 270 -106 275 -108 5 -2 9 145
9 347 l0 350 -275 3 -275 3 0 -245z m504 194 c14 -14 16 -52 14 -302 l-3 -287
-25 2 c-14 1 -43 9 -65 19 -22 10 -44 19 -50 20 -5 1 -67 25 -138 53 -70 28
-132 51 -137 51 -6 0 -10 5 -10 11 0 5 -4 8 -10 4 -5 -3 -18 3 -30 15 -19 19
-20 32 -20 206 0 109 4 193 10 205 10 18 23 19 230 19 186 0 221 -2 234 -16z"/>
<path d="M1170 834 l0 -489 275 0 275 0 0 380 0 380 -263 103 c-144 57 -268
106 -274 109 -10 4 -13 -96 -13 -483z m142 392 c45 -19 121 -48 168 -66 47
-17 99 -38 117 -46 17 -8 35 -14 40 -14 5 0 19 -9 31 -20 22 -21 22 -24 22
-341 0 -202 -4 -327 -10 -340 -10 -18 -23 -19 -233 -19 -160 0 -226 3 -235 12
-9 9 -12 119 -12 433 0 232 3 425 7 428 10 11 16 9 105 -27z"/>
<path d="M970 1009 c-52 -21 -173 -69 -268 -106 l-173 -68 0 -243 0 -243 276
-2 275 -2 0 353 c0 193 -3 352 -7 351 -5 -1 -51 -18 -103 -40z m80 -318 l0
-299 -22 -6 c-45 -12 -443 -7 -456 6 -17 17 -17 388 1 409 16 19 114 61 386
165 100 38 91 65 91 -275z"/>
</g>
</svg>
