<?xml version="1.0" standalone="no"?>
<!DOCTYPE svg PUBLIC "-//W3C//DTD SVG 20010904//EN"
 "http://www.w3.org/TR/2001/REC-SVG-20010904/DTD/svg10.dtd">
<svg version="1.0" xmlns="http://www.w3.org/2000/svg"
 width="249.000000pt" height="202.000000pt" viewBox="0 0 249.000000 202.000000"
 preserveAspectRatio="xMidYMid meet">
<metadata>
Created by potrace 1.10, written by Peter Selinger 2001-2011
</metadata>
<g transform="translate(0.000000,202.000000) scale(0.100000,-0.100000)"
fill="#000000" stroke="none">
<path d="M100 1682 l0 -228 412 -402 411 -402 123 0 c112 0 123 2 117 17 -4
11 -8 12 -11 5 -2 -8 -35 -12 -106 -12 l-102 0 -160 158 c-88 86 -274 268
-412 405 l-252 248 0 194 c1 107 4 195 8 195 4 0 95 -87 202 -193 107 -106
338 -335 513 -508 174 -173 317 -309 317 -303 0 6 -33 42 -72 80 -135 126
-968 948 -968 954 0 3 37 4 82 2 l83 -3 145 -143 c723 -712 800 -785 820 -786
14 0 894 884 913 916 6 10 31 14 93 14 47 0 84 -4 82 -9 -1 -4 -229 -237 -505
-517 l-503 -509 0 -97 c0 -54 -4 -100 -10 -103 -6 -3 -10 -19 -10 -35 0 -19
-7 -33 -19 -39 -20 -11 -407 -15 -448 -5 -26 7 -31 39 -7 48 9 3 34 6 57 6 31
0 38 3 27 10 -21 14 -94 12 -108 -2 -15 -15 -15 -61 0 -76 17 -17 489 -17 506
0 7 7 12 29 12 50 l0 38 123 0 122 0 397 406 398 405 0 224 0 225 -97 0 -98 1
-465 -471 -465 -470 -475 469 -475 470 -97 1 -98 0 0 -228z m2240 -20 l0 -199
-132 -134 c-72 -74 -248 -252 -391 -396 l-259 -263 -108 0 -108 0 -1 92 -1 92
213 215 c475 482 782 791 785 791 1 0 2 -89 2 -198z"/>
<path d="M1151 794 c0 -11 3 -14 6 -6 3 7 2 16 -1 19 -3 4 -6 -2 -5 -13z"/>
<path d="M1151 724 c0 -11 3 -14 6 -6 3 7 2 16 -1 19 -3 4 -6 -2 -5 -13z"/>
<path d="M150 415 l0 -255 50 0 50 0 0 126 c0 81 4 123 10 119 6 -3 10 -18 10
-33 0 -21 21 -49 93 -120 87 -87 95 -92 135 -92 70 0 58 29 -60 147 l-101 102
101 106 c119 125 131 155 59 155 -40 0 -47 -5 -135 -93 -71 -71 -92 -99 -92
-120 0 -48 31 -31 142 80 60 59 108 103 108 98 0 -6 -36 -46 -81 -90 -44 -44
-90 -92 -101 -108 l-20 -27 107 -115 c59 -63 103 -115 98 -115 -5 0 -56 47
-112 105 -56 57 -114 110 -129 117 -22 11 -28 21 -30 57 -2 28 0 41 7 36 6 -3
11 1 11 9 0 9 -4 16 -10 16 -6 0 -10 32 -10 75 l0 75 -50 0 -50 0 0 -255z m85
115 c3 -60 4 -113 2 -118 -3 -4 -7 -58 -8 -120 l-2 -112 -29 0 -28 0 0 230 0
230 29 0 28 0 8 -110z m239 88 c-10 -13 -52 -58 -94 -100 -71 -74 -100 -93
-100 -65 0 19 172 185 194 186 19 1 19 1 0 -21z m-78 -330 c52 -50 94 -95 94
-100 0 -26 -41 2 -115 79 -75 77 -100 113 -79 113 4 0 49 -41 100 -92z"/>
<path d="M620 415 l0 -255 40 0 40 0 0 255 0 255 -40 0 -40 0 0 -255z m50 -5
c0 -198 -2 -230 -15 -230 -13 0 -15 32 -15 230 0 198 2 230 15 230 13 0 15
-32 15 -230z"/>
<path d="M1013 503 l-33 -4 0 -230 0 -229 41 0 41 0 -4 70 c-2 60 -1 69 12 63
36 -17 115 -14 146 5 66 42 90 166 48 247 -38 74 -109 95 -251 78z m164 -28
c58 -23 84 -69 82 -143 -3 -108 -57 -160 -153 -148 -64 7 -76 -3 -76 -65 0
-37 -4 -49 -15 -49 -13 0 -15 27 -13 202 l3 203 35 6 c62 11 99 9 137 -6z"/>
<path d="M1046 451 c-14 -15 -17 -37 -15 -116 l2 -97 31 -19 c47 -29 92 -25
127 12 65 70 45 191 -37 225 -46 19 -88 17 -108 -5z m131 -33 c30 -28 39 -94
19 -141 -19 -46 -53 -64 -98 -51 l-33 10 -3 101 c-2 90 -1 102 15 106 30 8 77
-4 100 -25z"/>
<path d="M1405 502 l-30 -7 -3 -228 -2 -227 40 0 40 0 0 70 c0 67 1 70 19 60
32 -16 103 -12 138 10 47 28 67 73 68 150 0 73 -20 118 -68 154 -22 16 -45 21
-100 23 -40 1 -85 -1 -102 -5z m183 -36 c17 -9 39 -30 47 -46 19 -37 22 -130
5 -170 -23 -56 -100 -85 -164 -61 -33 13 -44 -2 -48 -63 -2 -28 -8 -51 -15
-54 -10 -3 -13 42 -13 202 l0 205 28 4 c51 7 128 -1 160 -17z"/>
<path d="M1447 452 c-13 -15 -17 -39 -17 -113 0 -52 4 -99 8 -106 10 -15 57
-33 87 -33 14 0 39 13 56 28 27 24 33 37 37 84 3 39 -1 66 -13 91 -28 59 -122
88 -158 49z m85 -13 c50 -13 72 -54 65 -123 -7 -77 -55 -111 -121 -86 -26 9
-26 11 -26 109 0 102 -1 101 40 110 3 0 22 -4 42 -10z"/>
<path d="M1834 500 c-11 -4 -33 -22 -47 -40 -75 -89 -52 -236 45 -286 30 -16
134 -19 171 -5 20 8 23 15 19 41 -3 20 -9 29 -18 26 -69 -27 -146 -11 -169 34
-8 16 -15 31 -15 35 0 3 52 5 116 5 l117 0 -7 56 c-8 66 -28 105 -66 128 -30
17 -110 21 -146 6z m126 -25 c52 -27 83 -127 43 -137 -32 -8 -47 3 -25 18 25
17 19 48 -16 87 -47 49 -127 29 -153 -39 -9 -25 -7 -31 11 -46 l22 -18 -23
-19 c-21 -17 -22 -21 -9 -50 19 -46 54 -65 130 -71 l65 -6 -47 -8 c-105 -18
-176 24 -187 110 -15 114 37 193 127 194 18 0 46 -7 62 -15z m-13 -47 c13 -12
23 -30 23 -40 0 -16 -9 -18 -75 -18 -41 0 -75 2 -75 5 0 14 31 64 42 68 29 12
63 6 85 -15z m0 -84 c-3 -3 -12 -4 -19 -1 -8 3 -5 6 6 6 11 1 17 -2 13 -5z"/>
<path d="M800 331 l0 -169 40 -4 40 -4 0 173 0 173 -40 0 -40 0 0 -169z m50
-1 c0 -93 -4 -150 -10 -150 -11 0 -11 -7 -11 160 -1 147 -2 140 11 140 6 0 10
-57 10 -150z"/>
<path d="M2160 491 l-25 -7 -3 -162 -2 -162 40 0 40 0 0 135 0 135 25 6 c14 3
41 3 60 0 25 -5 35 -3 35 6 0 7 3 23 6 36 6 21 5 22 -72 21 -44 -1 -90 -4
-104 -8z m130 -21 c11 -8 4 -10 -27 -8 -62 3 -72 -15 -74 -137 -3 -139 -3
-138 -16 -142 -10 -4 -13 29 -13 140 0 143 0 146 23 150 42 8 92 7 107 -3z"/>
</g>
</svg>
