%TF.GenerationSoftware,KiCad,Pcbnew,9.0.0*%
%TF.CreationDate,2025-05-04T19:05:18+10:00*%
%TF.ProjectId,CombinedMBTHB,436f6d62-696e-4656-944d-425448422e6b,rev?*%
%TF.SameCoordinates,Original*%
%TF.FileFunction,Legend,Bot*%
%TF.FilePolarity,Positive*%
%FSLAX46Y46*%
G04 Gerber Fmt 4.6, Leading zero omitted, Abs format (unit mm)*
G04 Created by KiCad (PCBNEW 9.0.0) date 2025-05-04 19:05:18*
%MOMM*%
%LPD*%
G01*
G04 APERTURE LIST*
%ADD10C,0.150000*%
%ADD11C,0.120000*%
%ADD12C,0.300000*%
G04 APERTURE END LIST*
D10*
X102887089Y-84683319D02*
X102887089Y-83683319D01*
X102887089Y-83683319D02*
X102553756Y-84397604D01*
X102553756Y-84397604D02*
X102220423Y-83683319D01*
X102220423Y-83683319D02*
X102220423Y-84683319D01*
X101315661Y-84016652D02*
X101315661Y-84683319D01*
X101553756Y-83635700D02*
X101791851Y-84349985D01*
X101791851Y-84349985D02*
X101172804Y-84349985D01*
%TO.C,M1*%
D11*
X231740707Y-93430000D02*
X216240707Y-93430000D01*
X216240707Y-72850000D01*
X231740707Y-72850000D01*
X231740707Y-93430000D01*
X229070707Y-90760000D02*
X229070707Y-93427000D01*
X229070707Y-90760000D02*
X229070707Y-72853000D01*
X229070707Y-90760000D02*
X223990707Y-90760000D01*
X223990707Y-90760000D02*
X223990707Y-93430000D01*
X218910707Y-72853000D02*
X218910707Y-93427000D01*
%TO.C,F1*%
X180895001Y-96249999D02*
X176095000Y-96250000D01*
X180895000Y-103650001D02*
X176095000Y-103650000D01*
X176095000Y-88850001D01*
X180895000Y-88849999D01*
X180895000Y-103650001D01*
%TO.C,M4*%
X95730000Y-85920000D02*
X95730000Y-83253000D01*
X95730000Y-85920000D02*
X95730000Y-103827000D01*
X95730000Y-85920000D02*
X100810000Y-85920000D01*
X100810000Y-85920000D02*
X100810000Y-83250000D01*
X105890000Y-103827000D02*
X105890000Y-83253000D01*
X93060000Y-83250000D02*
X108560000Y-83250000D01*
X108560000Y-103830000D01*
X93060000Y-103830000D01*
X93060000Y-83250000D01*
%TO.C,M1*%
X141890000Y-86570000D02*
X141890000Y-83903000D01*
X141890000Y-86570000D02*
X141890000Y-104477000D01*
X141890000Y-86570000D02*
X146970000Y-86570000D01*
X146970000Y-86570000D02*
X146970000Y-83900000D01*
X152050000Y-104477000D02*
X152050000Y-83903000D01*
X139220000Y-83900000D02*
X154720000Y-83900000D01*
X154720000Y-104480000D01*
X139220000Y-104480000D01*
X139220000Y-83900000D01*
%TO.C,M3*%
X118980000Y-85920000D02*
X118980000Y-83253000D01*
X118980000Y-85920000D02*
X118980000Y-103827000D01*
X118980000Y-85920000D02*
X124060000Y-85920000D01*
X124060000Y-85920000D02*
X124060000Y-83250000D01*
X129140000Y-103827000D02*
X129140000Y-83253000D01*
X116310000Y-83250000D02*
X131810000Y-83250000D01*
X131810000Y-103830000D01*
X116310000Y-103830000D01*
X116310000Y-83250000D01*
%TO.C,M2*%
X73230000Y-85880000D02*
X73230000Y-83213000D01*
X73230000Y-85880000D02*
X73230000Y-103787000D01*
X73230000Y-85880000D02*
X78310000Y-85880000D01*
X78310000Y-85880000D02*
X78310000Y-83210000D01*
X83390000Y-103787000D02*
X83390000Y-83213000D01*
X70560000Y-83210000D02*
X86060000Y-83210000D01*
X86060000Y-103790000D01*
X70560000Y-103790000D01*
X70560000Y-83210000D01*
%TO.C,U1*%
X151264000Y-50270000D02*
X100464000Y-50270000D01*
X100464000Y-47730000D01*
X151264000Y-47730000D01*
X151264000Y-50270000D01*
X151264000Y-65510000D02*
X100464000Y-65510000D01*
X100464000Y-62970000D01*
X151264000Y-62970000D01*
X151264000Y-65510000D01*
D12*
%TO.C,J10*%
X170295000Y-99857000D02*
X170295000Y-101571500D01*
X170295000Y-101571500D02*
X169660000Y-100873000D01*
X170930000Y-100873000D02*
X170295000Y-101571500D01*
D11*
X165215000Y-91602000D02*
X175375000Y-91602000D01*
X175375000Y-103794000D01*
X165215000Y-103794000D01*
X165215000Y-91602000D01*
%TD*%
M02*
