%TF.GenerationSoftware,KiCad,Pcbnew,9.0.0*%
%TF.CreationDate,2025-03-23T11:29:05+11:00*%
%TF.ProjectId,OpenA1K,4f70656e-4131-44b2-9e6b-696361645f70,1*%
%TF.SameCoordinates,Original*%
%TF.FileFunction,Soldermask,Top*%
%TF.FilePolarity,Negative*%
%FSLAX46Y46*%
G04 Gerber Fmt 4.6, Leading zero omitted, Abs format (unit mm)*
G04 Created by KiCad (PCBNEW 9.0.0) date 2025-03-23 11:29:05*
%MOMM*%
%LPD*%
G01*
G04 APERTURE LIST*
G04 Aperture macros list*
%AMRoundRect*
0 Rectangle with rounded corners*
0 $1 Rounding radius*
0 $2 $3 $4 $5 $6 $7 $8 $9 X,Y pos of 4 corners*
0 Add a 4 corners polygon primitive as box body*
4,1,4,$2,$3,$4,$5,$6,$7,$8,$9,$2,$3,0*
0 Add four circle primitives for the rounded corners*
1,1,$1+$1,$2,$3*
1,1,$1+$1,$4,$5*
1,1,$1+$1,$6,$7*
1,1,$1+$1,$8,$9*
0 Add four rect primitives between the rounded corners*
20,1,$1+$1,$2,$3,$4,$5,0*
20,1,$1+$1,$4,$5,$6,$7,0*
20,1,$1+$1,$6,$7,$8,$9,0*
20,1,$1+$1,$8,$9,$2,$3,0*%
%AMOutline5P*
0 Free polygon, 5 corners , with rotation*
0 The origin of the aperture is its center*
0 number of corners: always 5*
0 $1 to $10 corner X, Y*
0 $11 Rotation angle, in degrees counterclockwise*
0 create outline with 5 corners*
4,1,5,$1,$2,$3,$4,$5,$6,$7,$8,$9,$10,$1,$2,$11*%
%AMOutline6P*
0 Free polygon, 6 corners , with rotation*
0 The origin of the aperture is its center*
0 number of corners: always 6*
0 $1 to $12 corner X, Y*
0 $13 Rotation angle, in degrees counterclockwise*
0 create outline with 6 corners*
4,1,6,$1,$2,$3,$4,$5,$6,$7,$8,$9,$10,$11,$12,$1,$2,$13*%
%AMOutline7P*
0 Free polygon, 7 corners , with rotation*
0 The origin of the aperture is its center*
0 number of corners: always 7*
0 $1 to $14 corner X, Y*
0 $15 Rotation angle, in degrees counterclockwise*
0 create outline with 7 corners*
4,1,7,$1,$2,$3,$4,$5,$6,$7,$8,$9,$10,$11,$12,$13,$14,$1,$2,$15*%
%AMOutline8P*
0 Free polygon, 8 corners , with rotation*
0 The origin of the aperture is its center*
0 number of corners: always 8*
0 $1 to $16 corner X, Y*
0 $17 Rotation angle, in degrees counterclockwise*
0 create outline with 8 corners*
4,1,8,$1,$2,$3,$4,$5,$6,$7,$8,$9,$10,$11,$12,$13,$14,$15,$16,$1,$2,$17*%
G04 Aperture macros list end*
%ADD10C,3.000000*%
%ADD11RoundRect,0.250001X-0.499999X-0.759999X0.499999X-0.759999X0.499999X0.759999X-0.499999X0.759999X0*%
%ADD12O,1.500000X2.020000*%
%ADD13O,2.000000X1.700000*%
%ADD14RoundRect,0.250000X-0.750000X0.600000X-0.750000X-0.600000X0.750000X-0.600000X0.750000X0.600000X0*%
%ADD15C,1.200000*%
%ADD16RoundRect,0.250000X-0.600000X-0.725000X0.600000X-0.725000X0.600000X0.725000X-0.600000X0.725000X0*%
%ADD17O,1.700000X1.950000*%
%ADD18RoundRect,0.250000X-0.725000X0.600000X-0.725000X-0.600000X0.725000X-0.600000X0.725000X0.600000X0*%
%ADD19O,1.950000X1.700000*%
%ADD20O,1.700000X1.700000*%
%ADD21R,1.700000X1.700000*%
%ADD22RoundRect,0.250000X0.725000X-0.600000X0.725000X0.600000X-0.725000X0.600000X-0.725000X-0.600000X0*%
%ADD23C,1.700000*%
%ADD24C,1.600000*%
%ADD25O,1.600000X1.600000*%
%ADD26O,3.000000X6.500000*%
%ADD27Outline8P,-1.200000X0.720000X-0.720000X1.200000X0.720000X1.200000X1.200000X0.720000X1.200000X-0.720000X0.720000X-1.200000X-0.720000X-1.200000X-1.200000X-0.720000X0.000000*%
%ADD28O,6.400000X2.400000*%
%ADD29Outline8P,-1.200000X0.720000X-0.720000X1.200000X0.720000X1.200000X1.200000X0.720000X1.200000X-0.720000X0.720000X-1.200000X-0.720000X-1.200000X-1.200000X-0.720000X180.000000*%
%ADD30R,2.600000X2.600000*%
%ADD31C,2.600000*%
G04 APERTURE END LIST*
D10*
%TO.C,J26*%
X80500000Y-103000000D03*
D11*
X77500000Y-107320000D03*
D12*
X80500000Y-107320000D03*
X83500000Y-107320000D03*
%TD*%
D13*
%TO.C,J16*%
X62000000Y-113500000D03*
D14*
X62000000Y-111000000D03*
D15*
X60000000Y-109400000D03*
%TD*%
%TO.C,J17*%
X60000000Y-98400000D03*
D14*
X62000000Y-100000000D03*
D13*
X62000000Y-102500000D03*
%TD*%
D15*
%TO.C,J18*%
X84400000Y-133000000D03*
D16*
X86000000Y-131000000D03*
D17*
X88500000Y-131000000D03*
X91000000Y-131000000D03*
X93500000Y-131000000D03*
%TD*%
D15*
%TO.C,J19*%
X99000000Y-111900000D03*
D18*
X101000000Y-113500000D03*
D19*
X101000000Y-116000000D03*
X101000000Y-118500000D03*
X101000000Y-121000000D03*
X101000000Y-123500000D03*
%TD*%
D20*
%TO.C,J25*%
X121540000Y-110000000D03*
X119000000Y-110000000D03*
X116460000Y-110000000D03*
X113920000Y-110000000D03*
X111380000Y-110000000D03*
D21*
X108840000Y-110000000D03*
%TD*%
D19*
%TO.C,ExtruderMotor1*%
X100500000Y-99900000D03*
X100500000Y-102400000D03*
X100500000Y-104900000D03*
D22*
X100500000Y-107400000D03*
D15*
X102500000Y-109000000D03*
%TD*%
D20*
%TO.C,J23*%
X138540000Y-110000000D03*
X136000000Y-110000000D03*
X133460000Y-110000000D03*
X130920000Y-110000000D03*
X128380000Y-110000000D03*
D21*
X125840000Y-110000000D03*
%TD*%
D20*
%TO.C,U2*%
X106920000Y-115720000D03*
D21*
X109460000Y-115720000D03*
D23*
X112000000Y-115720000D03*
D20*
X114540000Y-115720000D03*
X117080000Y-115720000D03*
X119620000Y-115720000D03*
X122160000Y-115720000D03*
D23*
X124700000Y-115720000D03*
D20*
X127240000Y-115720000D03*
X129780000Y-115720000D03*
X132320000Y-115720000D03*
X134860000Y-115720000D03*
D23*
X137400000Y-115720000D03*
D20*
X139940000Y-115720000D03*
X142480000Y-115720000D03*
X145020000Y-115720000D03*
X147560000Y-115720000D03*
D23*
X150100000Y-115720000D03*
D20*
X152640000Y-115720000D03*
X155180000Y-115720000D03*
X155180000Y-133500000D03*
D21*
X152640000Y-133500000D03*
D23*
X150100000Y-133500000D03*
D20*
X147560000Y-133500000D03*
X145020000Y-133500000D03*
X142480000Y-133500000D03*
X139940000Y-133500000D03*
D23*
X137400000Y-133500000D03*
D20*
X134860000Y-133500000D03*
X132320000Y-133500000D03*
X129780000Y-133500000D03*
X127240000Y-133500000D03*
D23*
X124700000Y-133500000D03*
D20*
X122160000Y-133500000D03*
X119620000Y-133500000D03*
X117080000Y-133500000D03*
X114540000Y-133500000D03*
D23*
X112000000Y-133500000D03*
D20*
X109460000Y-133500000D03*
X106920000Y-133500000D03*
%TD*%
%TO.C,J22*%
X155160000Y-110000000D03*
X152620000Y-110000000D03*
X150080000Y-110000000D03*
X147540000Y-110000000D03*
X145000000Y-110000000D03*
D21*
X142460000Y-110000000D03*
%TD*%
%TO.C,J24*%
X67500000Y-120300000D03*
D20*
X67500000Y-122840000D03*
X67500000Y-125380000D03*
X67500000Y-127920000D03*
X67500000Y-130460000D03*
X67500000Y-133000000D03*
%TD*%
D24*
%TO.C,R5*%
X132500000Y-76340000D03*
D25*
X132500000Y-86500000D03*
%TD*%
D26*
%TO.C,F1*%
X116404999Y-75670000D03*
X116405000Y-83170000D03*
%TD*%
D27*
%TO.C,C4*%
X103500000Y-78000000D03*
D28*
X108960000Y-78000000D03*
%TD*%
D29*
%TO.C,C3*%
X95000000Y-78000000D03*
D28*
X89540000Y-78000000D03*
%TD*%
D27*
%TO.C,C2*%
X76500000Y-78000000D03*
D28*
X81960000Y-78000000D03*
%TD*%
D29*
%TO.C,C1*%
X68000000Y-78000000D03*
D28*
X62540000Y-78000000D03*
%TD*%
D20*
%TO.C,U1*%
X137610000Y-37370000D03*
X137610000Y-39910000D03*
D23*
X137610000Y-42450000D03*
D20*
X137610000Y-44990000D03*
X137610000Y-47530000D03*
X137610000Y-50070000D03*
X137610000Y-52610000D03*
D23*
X137610000Y-55150000D03*
D20*
X137610000Y-57690000D03*
X137610000Y-60230000D03*
X137610000Y-62770000D03*
X137610000Y-65310000D03*
D23*
X137610000Y-67850000D03*
D20*
X137610000Y-70390000D03*
X137610000Y-72930000D03*
X137610000Y-75470000D03*
X137610000Y-78010000D03*
D23*
X137610000Y-80550000D03*
D21*
X137610000Y-83090000D03*
D20*
X137610000Y-85630000D03*
X155390000Y-85630000D03*
X155390000Y-83090000D03*
D23*
X155390000Y-80550000D03*
D20*
X155390000Y-78010000D03*
X155390000Y-75470000D03*
X155390000Y-72930000D03*
X155390000Y-70390000D03*
D23*
X155390000Y-67850000D03*
D20*
X155390000Y-65310000D03*
X155390000Y-62770000D03*
X155390000Y-60230000D03*
X155390000Y-57690000D03*
D23*
X155390000Y-55150000D03*
D20*
X155390000Y-52610000D03*
X155390000Y-50070000D03*
X155390000Y-47530000D03*
X155390000Y-44990000D03*
D23*
X155390000Y-42450000D03*
D21*
X155390000Y-39910000D03*
D20*
X155390000Y-37370000D03*
%TD*%
D21*
%TO.C,M6*%
X104981700Y-69662300D03*
D23*
X104981700Y-67122300D03*
X104981700Y-64582300D03*
X104981700Y-62042300D03*
X104981700Y-59502300D03*
X104981700Y-56962300D03*
X104981700Y-54422300D03*
X104981700Y-51882300D03*
X92281700Y-51882300D03*
X92281700Y-54422300D03*
X92281700Y-56962300D03*
X92281700Y-59502300D03*
X92281700Y-62042300D03*
X92281700Y-64582300D03*
X92281700Y-67122300D03*
X92281700Y-69662300D03*
X102441700Y-69662300D03*
X99901700Y-69662300D03*
%TD*%
D21*
%TO.C,M5*%
X101781700Y-57462300D03*
D20*
X99241700Y-57462300D03*
X96701700Y-57462300D03*
X101781700Y-54922300D03*
X99241700Y-54922300D03*
X96701700Y-54922300D03*
D23*
X101781700Y-52382300D03*
X99241700Y-52382300D03*
X96701700Y-52382300D03*
%TD*%
D21*
%TO.C,M4*%
X88624800Y-69539700D03*
D23*
X88624800Y-66999700D03*
X88624800Y-64459700D03*
X88624800Y-61919700D03*
X88624800Y-59379700D03*
X88624800Y-56839700D03*
X88624800Y-54299700D03*
X88624800Y-51759700D03*
X75924800Y-51759700D03*
X75924800Y-54299700D03*
X75924800Y-56839700D03*
X75924800Y-59379700D03*
X75924800Y-61919700D03*
X75924800Y-64459700D03*
X75924800Y-66999700D03*
X75924800Y-69539700D03*
X86084800Y-69539700D03*
X83544800Y-69539700D03*
%TD*%
D21*
%TO.C,M3*%
X85364800Y-57149700D03*
D20*
X82824800Y-57149700D03*
X80284800Y-57149700D03*
X85364800Y-54609700D03*
X82824800Y-54609700D03*
X80284800Y-54609700D03*
D23*
X85364800Y-52069700D03*
X82824800Y-52069700D03*
X80284800Y-52069700D03*
%TD*%
D21*
%TO.C,M2*%
X72460800Y-69535600D03*
D23*
X72460800Y-66995600D03*
X72460800Y-64455600D03*
X72460800Y-61915600D03*
X72460800Y-59375600D03*
X72460800Y-56835600D03*
X72460800Y-54295600D03*
X72460800Y-51755600D03*
X59760800Y-51755600D03*
X59760800Y-54295600D03*
X59760800Y-56835600D03*
X59760800Y-59375600D03*
X59760800Y-61915600D03*
X59760800Y-64455600D03*
X59760800Y-66995600D03*
X59760800Y-69535600D03*
X69920800Y-69535600D03*
X67380800Y-69535600D03*
%TD*%
D21*
%TO.C,M1*%
X69536800Y-57197500D03*
D20*
X66996800Y-57197500D03*
X64456800Y-57197500D03*
X69536800Y-54657500D03*
X66996800Y-54657500D03*
X64456800Y-54657500D03*
D23*
X69536800Y-52117500D03*
X66996800Y-52117500D03*
X64456800Y-52117500D03*
%TD*%
D16*
%TO.C,J13*%
X110500000Y-45500000D03*
D17*
X113000000Y-45500000D03*
X115500000Y-45500000D03*
%TD*%
D16*
%TO.C,J12*%
X77500000Y-45500000D03*
D17*
X80000000Y-45500000D03*
X82500000Y-45500000D03*
%TD*%
D16*
%TO.C,J11*%
X93750000Y-45475000D03*
D17*
X96250000Y-45475000D03*
X98750000Y-45475000D03*
%TD*%
D16*
%TO.C,J10*%
X61000000Y-45500000D03*
D17*
X63500000Y-45500000D03*
X66000000Y-45500000D03*
%TD*%
D24*
%TO.C,R3*%
X95281700Y-69922300D03*
D25*
X95281700Y-59762300D03*
%TD*%
D24*
%TO.C,R2*%
X79284800Y-69729700D03*
D25*
X79284800Y-59569700D03*
%TD*%
D24*
%TO.C,R1*%
X63241600Y-59901600D03*
D25*
X63241600Y-70061600D03*
%TD*%
D21*
%TO.C,J21*%
X73500000Y-122880000D03*
D20*
X73500000Y-125420000D03*
X73500000Y-127960000D03*
X73500000Y-130500000D03*
X73500000Y-133040000D03*
%TD*%
D21*
%TO.C,J20*%
X77500000Y-122880000D03*
D20*
X77500000Y-125420000D03*
X77500000Y-127960000D03*
X77500000Y-130500000D03*
X77500000Y-133040000D03*
%TD*%
D21*
%TO.C,J15*%
X63500000Y-120340000D03*
D20*
X63500000Y-122880000D03*
X63500000Y-125420000D03*
X63500000Y-127960000D03*
X63500000Y-130500000D03*
X63500000Y-133040000D03*
%TD*%
D21*
%TO.C,J14*%
X59500000Y-120300000D03*
D20*
X59500000Y-122840000D03*
X59500000Y-125380000D03*
X59500000Y-127920000D03*
X59500000Y-130460000D03*
X59500000Y-133000000D03*
%TD*%
D30*
%TO.C,J9*%
X122500000Y-80920000D03*
D31*
X127580000Y-80920000D03*
%TD*%
D21*
%TO.C,J5*%
X101538500Y-66355000D03*
D20*
X98998500Y-66355000D03*
X101538500Y-63815000D03*
X98998500Y-63815000D03*
X101538500Y-61275000D03*
X98998500Y-61275000D03*
%TD*%
D21*
%TO.C,J3*%
X85284800Y-66189700D03*
D20*
X82744800Y-66189700D03*
X85284800Y-63649700D03*
X82744800Y-63649700D03*
X85284800Y-61109700D03*
X82744800Y-61109700D03*
%TD*%
D21*
%TO.C,J1*%
X69241600Y-66347100D03*
D20*
X66701600Y-66347100D03*
X69241600Y-63807100D03*
X66701600Y-63807100D03*
X69241600Y-61267100D03*
X66701600Y-61267100D03*
%TD*%
D21*
%TO.C,M8*%
X121424800Y-69469700D03*
D23*
X121424800Y-66929700D03*
X121424800Y-64389700D03*
X121424800Y-61849700D03*
X121424800Y-59309700D03*
X121424800Y-56769700D03*
X121424800Y-54229700D03*
X121424800Y-51689700D03*
X108724800Y-51689700D03*
X108724800Y-54229700D03*
X108724800Y-56769700D03*
X108724800Y-59309700D03*
X108724800Y-61849700D03*
X108724800Y-64389700D03*
X108724800Y-66929700D03*
X108724800Y-69469700D03*
X118884800Y-69469700D03*
X116344800Y-69469700D03*
%TD*%
D21*
%TO.C,M7*%
X118507100Y-57085400D03*
D20*
X115967100Y-57085400D03*
X113427100Y-57085400D03*
X118507100Y-54545400D03*
X115967100Y-54545400D03*
X113427100Y-54545400D03*
D23*
X118507100Y-52005400D03*
X115967100Y-52005400D03*
X113427100Y-52005400D03*
%TD*%
D21*
%TO.C,J7*%
X118153100Y-66256700D03*
D20*
X115613100Y-66256700D03*
X118153100Y-63716700D03*
X115613100Y-63716700D03*
X118153100Y-61176700D03*
X115613100Y-61176700D03*
%TD*%
D24*
%TO.C,R4*%
X112224800Y-69729700D03*
D25*
X112224800Y-59569700D03*
%TD*%
D15*
%TO.C,J8*%
X92150000Y-40475000D03*
D16*
X93750000Y-38475000D03*
D17*
X96250000Y-38475000D03*
X98750000Y-38475000D03*
X101250000Y-38475000D03*
%TD*%
D15*
%TO.C,J6*%
X75900000Y-40500000D03*
D16*
X77500000Y-38500000D03*
D17*
X80000000Y-38500000D03*
X82500000Y-38500000D03*
X85000000Y-38500000D03*
%TD*%
D15*
%TO.C,J4*%
X59400000Y-40500000D03*
D16*
X61000000Y-38500000D03*
D17*
X63500000Y-38500000D03*
X66000000Y-38500000D03*
X68500000Y-38500000D03*
%TD*%
D15*
%TO.C,J2*%
X108900000Y-40500000D03*
D16*
X110500000Y-38500000D03*
D17*
X113000000Y-38500000D03*
X115500000Y-38500000D03*
X118000000Y-38500000D03*
%TD*%
M02*
