%TF.GenerationSoftware,KiCad,Pcbnew,9.0.0*%
%TF.CreationDate,2025-03-23T11:29:05+11:00*%
%TF.ProjectId,OpenA1K,4f70656e-4131-44b2-9e6b-696361645f70,1*%
%TF.SameCoordinates,Original*%
%TF.FileFunction,Legend,Top*%
%TF.FilePolarity,Positive*%
%FSLAX46Y46*%
G04 Gerber Fmt 4.6, Leading zero omitted, Abs format (unit mm)*
G04 Created by KiCad (PCBNEW 9.0.0) date 2025-03-23 11:29:05*
%MOMM*%
%LPD*%
G01*
G04 APERTURE LIST*
%ADD10C,0.200000*%
%ADD11C,0.150000*%
%ADD12C,0.120000*%
%ADD13C,0.100000*%
%ADD14C,0.020000*%
%ADD15C,0.300000*%
G04 APERTURE END LIST*
D10*
X57532031Y-35244252D02*
X157532031Y-35244252D01*
X157532031Y-91244252D01*
X57532031Y-91244252D01*
X57532031Y-35244252D01*
D11*
X79690476Y-96654819D02*
X79690476Y-97369104D01*
X79690476Y-97369104D02*
X79642857Y-97511961D01*
X79642857Y-97511961D02*
X79547619Y-97607200D01*
X79547619Y-97607200D02*
X79404762Y-97654819D01*
X79404762Y-97654819D02*
X79309524Y-97654819D01*
X80119048Y-96750057D02*
X80166667Y-96702438D01*
X80166667Y-96702438D02*
X80261905Y-96654819D01*
X80261905Y-96654819D02*
X80500000Y-96654819D01*
X80500000Y-96654819D02*
X80595238Y-96702438D01*
X80595238Y-96702438D02*
X80642857Y-96750057D01*
X80642857Y-96750057D02*
X80690476Y-96845295D01*
X80690476Y-96845295D02*
X80690476Y-96940533D01*
X80690476Y-96940533D02*
X80642857Y-97083390D01*
X80642857Y-97083390D02*
X80071429Y-97654819D01*
X80071429Y-97654819D02*
X80690476Y-97654819D01*
X81547619Y-96654819D02*
X81357143Y-96654819D01*
X81357143Y-96654819D02*
X81261905Y-96702438D01*
X81261905Y-96702438D02*
X81214286Y-96750057D01*
X81214286Y-96750057D02*
X81119048Y-96892914D01*
X81119048Y-96892914D02*
X81071429Y-97083390D01*
X81071429Y-97083390D02*
X81071429Y-97464342D01*
X81071429Y-97464342D02*
X81119048Y-97559580D01*
X81119048Y-97559580D02*
X81166667Y-97607200D01*
X81166667Y-97607200D02*
X81261905Y-97654819D01*
X81261905Y-97654819D02*
X81452381Y-97654819D01*
X81452381Y-97654819D02*
X81547619Y-97607200D01*
X81547619Y-97607200D02*
X81595238Y-97559580D01*
X81595238Y-97559580D02*
X81642857Y-97464342D01*
X81642857Y-97464342D02*
X81642857Y-97226247D01*
X81642857Y-97226247D02*
X81595238Y-97131009D01*
X81595238Y-97131009D02*
X81547619Y-97083390D01*
X81547619Y-97083390D02*
X81452381Y-97035771D01*
X81452381Y-97035771D02*
X81261905Y-97035771D01*
X81261905Y-97035771D02*
X81166667Y-97083390D01*
X81166667Y-97083390D02*
X81119048Y-97131009D01*
X81119048Y-97131009D02*
X81071429Y-97226247D01*
X65004819Y-113059523D02*
X65719104Y-113059523D01*
X65719104Y-113059523D02*
X65861961Y-113107142D01*
X65861961Y-113107142D02*
X65957200Y-113202380D01*
X65957200Y-113202380D02*
X66004819Y-113345237D01*
X66004819Y-113345237D02*
X66004819Y-113440475D01*
X66004819Y-112059523D02*
X66004819Y-112630951D01*
X66004819Y-112345237D02*
X65004819Y-112345237D01*
X65004819Y-112345237D02*
X65147676Y-112440475D01*
X65147676Y-112440475D02*
X65242914Y-112535713D01*
X65242914Y-112535713D02*
X65290533Y-112630951D01*
X65004819Y-111202380D02*
X65004819Y-111392856D01*
X65004819Y-111392856D02*
X65052438Y-111488094D01*
X65052438Y-111488094D02*
X65100057Y-111535713D01*
X65100057Y-111535713D02*
X65242914Y-111630951D01*
X65242914Y-111630951D02*
X65433390Y-111678570D01*
X65433390Y-111678570D02*
X65814342Y-111678570D01*
X65814342Y-111678570D02*
X65909580Y-111630951D01*
X65909580Y-111630951D02*
X65957200Y-111583332D01*
X65957200Y-111583332D02*
X66004819Y-111488094D01*
X66004819Y-111488094D02*
X66004819Y-111297618D01*
X66004819Y-111297618D02*
X65957200Y-111202380D01*
X65957200Y-111202380D02*
X65909580Y-111154761D01*
X65909580Y-111154761D02*
X65814342Y-111107142D01*
X65814342Y-111107142D02*
X65576247Y-111107142D01*
X65576247Y-111107142D02*
X65481009Y-111154761D01*
X65481009Y-111154761D02*
X65433390Y-111202380D01*
X65433390Y-111202380D02*
X65385771Y-111297618D01*
X65385771Y-111297618D02*
X65385771Y-111488094D01*
X65385771Y-111488094D02*
X65433390Y-111583332D01*
X65433390Y-111583332D02*
X65481009Y-111630951D01*
X65481009Y-111630951D02*
X65576247Y-111678570D01*
X65004819Y-102059523D02*
X65719104Y-102059523D01*
X65719104Y-102059523D02*
X65861961Y-102107142D01*
X65861961Y-102107142D02*
X65957200Y-102202380D01*
X65957200Y-102202380D02*
X66004819Y-102345237D01*
X66004819Y-102345237D02*
X66004819Y-102440475D01*
X66004819Y-101059523D02*
X66004819Y-101630951D01*
X66004819Y-101345237D02*
X65004819Y-101345237D01*
X65004819Y-101345237D02*
X65147676Y-101440475D01*
X65147676Y-101440475D02*
X65242914Y-101535713D01*
X65242914Y-101535713D02*
X65290533Y-101630951D01*
X65004819Y-100726189D02*
X65004819Y-100059523D01*
X65004819Y-100059523D02*
X66004819Y-100488094D01*
X88940476Y-126904819D02*
X88940476Y-127619104D01*
X88940476Y-127619104D02*
X88892857Y-127761961D01*
X88892857Y-127761961D02*
X88797619Y-127857200D01*
X88797619Y-127857200D02*
X88654762Y-127904819D01*
X88654762Y-127904819D02*
X88559524Y-127904819D01*
X89940476Y-127904819D02*
X89369048Y-127904819D01*
X89654762Y-127904819D02*
X89654762Y-126904819D01*
X89654762Y-126904819D02*
X89559524Y-127047676D01*
X89559524Y-127047676D02*
X89464286Y-127142914D01*
X89464286Y-127142914D02*
X89369048Y-127190533D01*
X90511905Y-127333390D02*
X90416667Y-127285771D01*
X90416667Y-127285771D02*
X90369048Y-127238152D01*
X90369048Y-127238152D02*
X90321429Y-127142914D01*
X90321429Y-127142914D02*
X90321429Y-127095295D01*
X90321429Y-127095295D02*
X90369048Y-127000057D01*
X90369048Y-127000057D02*
X90416667Y-126952438D01*
X90416667Y-126952438D02*
X90511905Y-126904819D01*
X90511905Y-126904819D02*
X90702381Y-126904819D01*
X90702381Y-126904819D02*
X90797619Y-126952438D01*
X90797619Y-126952438D02*
X90845238Y-127000057D01*
X90845238Y-127000057D02*
X90892857Y-127095295D01*
X90892857Y-127095295D02*
X90892857Y-127142914D01*
X90892857Y-127142914D02*
X90845238Y-127238152D01*
X90845238Y-127238152D02*
X90797619Y-127285771D01*
X90797619Y-127285771D02*
X90702381Y-127333390D01*
X90702381Y-127333390D02*
X90511905Y-127333390D01*
X90511905Y-127333390D02*
X90416667Y-127381009D01*
X90416667Y-127381009D02*
X90369048Y-127428628D01*
X90369048Y-127428628D02*
X90321429Y-127523866D01*
X90321429Y-127523866D02*
X90321429Y-127714342D01*
X90321429Y-127714342D02*
X90369048Y-127809580D01*
X90369048Y-127809580D02*
X90416667Y-127857200D01*
X90416667Y-127857200D02*
X90511905Y-127904819D01*
X90511905Y-127904819D02*
X90702381Y-127904819D01*
X90702381Y-127904819D02*
X90797619Y-127857200D01*
X90797619Y-127857200D02*
X90845238Y-127809580D01*
X90845238Y-127809580D02*
X90892857Y-127714342D01*
X90892857Y-127714342D02*
X90892857Y-127523866D01*
X90892857Y-127523866D02*
X90845238Y-127428628D01*
X90845238Y-127428628D02*
X90797619Y-127381009D01*
X90797619Y-127381009D02*
X90702381Y-127333390D01*
X104004819Y-119309523D02*
X104719104Y-119309523D01*
X104719104Y-119309523D02*
X104861961Y-119357142D01*
X104861961Y-119357142D02*
X104957200Y-119452380D01*
X104957200Y-119452380D02*
X105004819Y-119595237D01*
X105004819Y-119595237D02*
X105004819Y-119690475D01*
X105004819Y-118309523D02*
X105004819Y-118880951D01*
X105004819Y-118595237D02*
X104004819Y-118595237D01*
X104004819Y-118595237D02*
X104147676Y-118690475D01*
X104147676Y-118690475D02*
X104242914Y-118785713D01*
X104242914Y-118785713D02*
X104290533Y-118880951D01*
X105004819Y-117833332D02*
X105004819Y-117642856D01*
X105004819Y-117642856D02*
X104957200Y-117547618D01*
X104957200Y-117547618D02*
X104909580Y-117499999D01*
X104909580Y-117499999D02*
X104766723Y-117404761D01*
X104766723Y-117404761D02*
X104576247Y-117357142D01*
X104576247Y-117357142D02*
X104195295Y-117357142D01*
X104195295Y-117357142D02*
X104100057Y-117404761D01*
X104100057Y-117404761D02*
X104052438Y-117452380D01*
X104052438Y-117452380D02*
X104004819Y-117547618D01*
X104004819Y-117547618D02*
X104004819Y-117738094D01*
X104004819Y-117738094D02*
X104052438Y-117833332D01*
X104052438Y-117833332D02*
X104100057Y-117880951D01*
X104100057Y-117880951D02*
X104195295Y-117928570D01*
X104195295Y-117928570D02*
X104433390Y-117928570D01*
X104433390Y-117928570D02*
X104528628Y-117880951D01*
X104528628Y-117880951D02*
X104576247Y-117833332D01*
X104576247Y-117833332D02*
X104623866Y-117738094D01*
X104623866Y-117738094D02*
X104623866Y-117547618D01*
X104623866Y-117547618D02*
X104576247Y-117452380D01*
X104576247Y-117452380D02*
X104528628Y-117404761D01*
X104528628Y-117404761D02*
X104433390Y-117357142D01*
X96881009Y-109054762D02*
X96881009Y-108721429D01*
X97404819Y-108578572D02*
X97404819Y-109054762D01*
X97404819Y-109054762D02*
X96404819Y-109054762D01*
X96404819Y-109054762D02*
X96404819Y-108578572D01*
X97404819Y-108245238D02*
X96738152Y-107721429D01*
X96738152Y-108245238D02*
X97404819Y-107721429D01*
X96738152Y-107483333D02*
X96738152Y-107102381D01*
X96404819Y-107340476D02*
X97261961Y-107340476D01*
X97261961Y-107340476D02*
X97357200Y-107292857D01*
X97357200Y-107292857D02*
X97404819Y-107197619D01*
X97404819Y-107197619D02*
X97404819Y-107102381D01*
X97404819Y-106769047D02*
X96738152Y-106769047D01*
X96928628Y-106769047D02*
X96833390Y-106721428D01*
X96833390Y-106721428D02*
X96785771Y-106673809D01*
X96785771Y-106673809D02*
X96738152Y-106578571D01*
X96738152Y-106578571D02*
X96738152Y-106483333D01*
X96738152Y-105721428D02*
X97404819Y-105721428D01*
X96738152Y-106149999D02*
X97261961Y-106149999D01*
X97261961Y-106149999D02*
X97357200Y-106102380D01*
X97357200Y-106102380D02*
X97404819Y-106007142D01*
X97404819Y-106007142D02*
X97404819Y-105864285D01*
X97404819Y-105864285D02*
X97357200Y-105769047D01*
X97357200Y-105769047D02*
X97309580Y-105721428D01*
X97404819Y-104816666D02*
X96404819Y-104816666D01*
X97357200Y-104816666D02*
X97404819Y-104911904D01*
X97404819Y-104911904D02*
X97404819Y-105102380D01*
X97404819Y-105102380D02*
X97357200Y-105197618D01*
X97357200Y-105197618D02*
X97309580Y-105245237D01*
X97309580Y-105245237D02*
X97214342Y-105292856D01*
X97214342Y-105292856D02*
X96928628Y-105292856D01*
X96928628Y-105292856D02*
X96833390Y-105245237D01*
X96833390Y-105245237D02*
X96785771Y-105197618D01*
X96785771Y-105197618D02*
X96738152Y-105102380D01*
X96738152Y-105102380D02*
X96738152Y-104911904D01*
X96738152Y-104911904D02*
X96785771Y-104816666D01*
X97357200Y-103959523D02*
X97404819Y-104054761D01*
X97404819Y-104054761D02*
X97404819Y-104245237D01*
X97404819Y-104245237D02*
X97357200Y-104340475D01*
X97357200Y-104340475D02*
X97261961Y-104388094D01*
X97261961Y-104388094D02*
X96881009Y-104388094D01*
X96881009Y-104388094D02*
X96785771Y-104340475D01*
X96785771Y-104340475D02*
X96738152Y-104245237D01*
X96738152Y-104245237D02*
X96738152Y-104054761D01*
X96738152Y-104054761D02*
X96785771Y-103959523D01*
X96785771Y-103959523D02*
X96881009Y-103911904D01*
X96881009Y-103911904D02*
X96976247Y-103911904D01*
X96976247Y-103911904D02*
X97071485Y-104388094D01*
X97404819Y-103483332D02*
X96738152Y-103483332D01*
X96928628Y-103483332D02*
X96833390Y-103435713D01*
X96833390Y-103435713D02*
X96785771Y-103388094D01*
X96785771Y-103388094D02*
X96738152Y-103292856D01*
X96738152Y-103292856D02*
X96738152Y-103197618D01*
X97404819Y-102864284D02*
X96404819Y-102864284D01*
X96404819Y-102864284D02*
X97119104Y-102530951D01*
X97119104Y-102530951D02*
X96404819Y-102197618D01*
X96404819Y-102197618D02*
X97404819Y-102197618D01*
X97404819Y-101578570D02*
X97357200Y-101673808D01*
X97357200Y-101673808D02*
X97309580Y-101721427D01*
X97309580Y-101721427D02*
X97214342Y-101769046D01*
X97214342Y-101769046D02*
X96928628Y-101769046D01*
X96928628Y-101769046D02*
X96833390Y-101721427D01*
X96833390Y-101721427D02*
X96785771Y-101673808D01*
X96785771Y-101673808D02*
X96738152Y-101578570D01*
X96738152Y-101578570D02*
X96738152Y-101435713D01*
X96738152Y-101435713D02*
X96785771Y-101340475D01*
X96785771Y-101340475D02*
X96833390Y-101292856D01*
X96833390Y-101292856D02*
X96928628Y-101245237D01*
X96928628Y-101245237D02*
X97214342Y-101245237D01*
X97214342Y-101245237D02*
X97309580Y-101292856D01*
X97309580Y-101292856D02*
X97357200Y-101340475D01*
X97357200Y-101340475D02*
X97404819Y-101435713D01*
X97404819Y-101435713D02*
X97404819Y-101578570D01*
X96738152Y-100959522D02*
X96738152Y-100578570D01*
X96404819Y-100816665D02*
X97261961Y-100816665D01*
X97261961Y-100816665D02*
X97357200Y-100769046D01*
X97357200Y-100769046D02*
X97404819Y-100673808D01*
X97404819Y-100673808D02*
X97404819Y-100578570D01*
X97404819Y-100102379D02*
X97357200Y-100197617D01*
X97357200Y-100197617D02*
X97309580Y-100245236D01*
X97309580Y-100245236D02*
X97214342Y-100292855D01*
X97214342Y-100292855D02*
X96928628Y-100292855D01*
X96928628Y-100292855D02*
X96833390Y-100245236D01*
X96833390Y-100245236D02*
X96785771Y-100197617D01*
X96785771Y-100197617D02*
X96738152Y-100102379D01*
X96738152Y-100102379D02*
X96738152Y-99959522D01*
X96738152Y-99959522D02*
X96785771Y-99864284D01*
X96785771Y-99864284D02*
X96833390Y-99816665D01*
X96833390Y-99816665D02*
X96928628Y-99769046D01*
X96928628Y-99769046D02*
X97214342Y-99769046D01*
X97214342Y-99769046D02*
X97309580Y-99816665D01*
X97309580Y-99816665D02*
X97357200Y-99864284D01*
X97357200Y-99864284D02*
X97404819Y-99959522D01*
X97404819Y-99959522D02*
X97404819Y-100102379D01*
X97404819Y-99340474D02*
X96738152Y-99340474D01*
X96928628Y-99340474D02*
X96833390Y-99292855D01*
X96833390Y-99292855D02*
X96785771Y-99245236D01*
X96785771Y-99245236D02*
X96738152Y-99149998D01*
X96738152Y-99149998D02*
X96738152Y-99054760D01*
X97404819Y-98197617D02*
X97404819Y-98769045D01*
X97404819Y-98483331D02*
X96404819Y-98483331D01*
X96404819Y-98483331D02*
X96547676Y-98578569D01*
X96547676Y-98578569D02*
X96642914Y-98673807D01*
X96642914Y-98673807D02*
X96690533Y-98769045D01*
X66690476Y-117424819D02*
X66690476Y-118139104D01*
X66690476Y-118139104D02*
X66642857Y-118281961D01*
X66642857Y-118281961D02*
X66547619Y-118377200D01*
X66547619Y-118377200D02*
X66404762Y-118424819D01*
X66404762Y-118424819D02*
X66309524Y-118424819D01*
X67119048Y-117520057D02*
X67166667Y-117472438D01*
X67166667Y-117472438D02*
X67261905Y-117424819D01*
X67261905Y-117424819D02*
X67500000Y-117424819D01*
X67500000Y-117424819D02*
X67595238Y-117472438D01*
X67595238Y-117472438D02*
X67642857Y-117520057D01*
X67642857Y-117520057D02*
X67690476Y-117615295D01*
X67690476Y-117615295D02*
X67690476Y-117710533D01*
X67690476Y-117710533D02*
X67642857Y-117853390D01*
X67642857Y-117853390D02*
X67071429Y-118424819D01*
X67071429Y-118424819D02*
X67690476Y-118424819D01*
X68547619Y-117758152D02*
X68547619Y-118424819D01*
X68309524Y-117377200D02*
X68071429Y-118091485D01*
X68071429Y-118091485D02*
X68690476Y-118091485D01*
X135324819Y-81586666D02*
X134848628Y-81919999D01*
X135324819Y-82158094D02*
X134324819Y-82158094D01*
X134324819Y-82158094D02*
X134324819Y-81777142D01*
X134324819Y-81777142D02*
X134372438Y-81681904D01*
X134372438Y-81681904D02*
X134420057Y-81634285D01*
X134420057Y-81634285D02*
X134515295Y-81586666D01*
X134515295Y-81586666D02*
X134658152Y-81586666D01*
X134658152Y-81586666D02*
X134753390Y-81634285D01*
X134753390Y-81634285D02*
X134801009Y-81681904D01*
X134801009Y-81681904D02*
X134848628Y-81777142D01*
X134848628Y-81777142D02*
X134848628Y-82158094D01*
X134324819Y-80681904D02*
X134324819Y-81158094D01*
X134324819Y-81158094D02*
X134801009Y-81205713D01*
X134801009Y-81205713D02*
X134753390Y-81158094D01*
X134753390Y-81158094D02*
X134705771Y-81062856D01*
X134705771Y-81062856D02*
X134705771Y-80824761D01*
X134705771Y-80824761D02*
X134753390Y-80729523D01*
X134753390Y-80729523D02*
X134801009Y-80681904D01*
X134801009Y-80681904D02*
X134896247Y-80634285D01*
X134896247Y-80634285D02*
X135134342Y-80634285D01*
X135134342Y-80634285D02*
X135229580Y-80681904D01*
X135229580Y-80681904D02*
X135277200Y-80729523D01*
X135277200Y-80729523D02*
X135324819Y-80824761D01*
X135324819Y-80824761D02*
X135324819Y-81062856D01*
X135324819Y-81062856D02*
X135277200Y-81158094D01*
X135277200Y-81158094D02*
X135229580Y-81205713D01*
D10*
X102480333Y-78036980D02*
X102432714Y-78084600D01*
X102432714Y-78084600D02*
X102289857Y-78132219D01*
X102289857Y-78132219D02*
X102194619Y-78132219D01*
X102194619Y-78132219D02*
X102051762Y-78084600D01*
X102051762Y-78084600D02*
X101956524Y-77989361D01*
X101956524Y-77989361D02*
X101908905Y-77894123D01*
X101908905Y-77894123D02*
X101861286Y-77703647D01*
X101861286Y-77703647D02*
X101861286Y-77560790D01*
X101861286Y-77560790D02*
X101908905Y-77370314D01*
X101908905Y-77370314D02*
X101956524Y-77275076D01*
X101956524Y-77275076D02*
X102051762Y-77179838D01*
X102051762Y-77179838D02*
X102194619Y-77132219D01*
X102194619Y-77132219D02*
X102289857Y-77132219D01*
X102289857Y-77132219D02*
X102432714Y-77179838D01*
X102432714Y-77179838D02*
X102480333Y-77227457D01*
X103337476Y-77465552D02*
X103337476Y-78132219D01*
X103099381Y-77084600D02*
X102861286Y-77798885D01*
X102861286Y-77798885D02*
X103480333Y-77798885D01*
X100944142Y-84251552D02*
X100944142Y-84918219D01*
X100706047Y-83870600D02*
X100467952Y-84584885D01*
X100467952Y-84584885D02*
X101086999Y-84584885D01*
X101372714Y-83918219D02*
X102039380Y-83918219D01*
X102039380Y-83918219D02*
X101610809Y-84918219D01*
X102610809Y-83918219D02*
X102706047Y-83918219D01*
X102706047Y-83918219D02*
X102801285Y-83965838D01*
X102801285Y-83965838D02*
X102848904Y-84013457D01*
X102848904Y-84013457D02*
X102896523Y-84108695D01*
X102896523Y-84108695D02*
X102944142Y-84299171D01*
X102944142Y-84299171D02*
X102944142Y-84537266D01*
X102944142Y-84537266D02*
X102896523Y-84727742D01*
X102896523Y-84727742D02*
X102848904Y-84822980D01*
X102848904Y-84822980D02*
X102801285Y-84870600D01*
X102801285Y-84870600D02*
X102706047Y-84918219D01*
X102706047Y-84918219D02*
X102610809Y-84918219D01*
X102610809Y-84918219D02*
X102515571Y-84870600D01*
X102515571Y-84870600D02*
X102467952Y-84822980D01*
X102467952Y-84822980D02*
X102420333Y-84727742D01*
X102420333Y-84727742D02*
X102372714Y-84537266D01*
X102372714Y-84537266D02*
X102372714Y-84299171D01*
X102372714Y-84299171D02*
X102420333Y-84108695D01*
X102420333Y-84108695D02*
X102467952Y-84013457D01*
X102467952Y-84013457D02*
X102515571Y-83965838D01*
X102515571Y-83965838D02*
X102610809Y-83918219D01*
X103801285Y-84251552D02*
X103801285Y-84918219D01*
X103372714Y-84251552D02*
X103372714Y-84775361D01*
X103372714Y-84775361D02*
X103420333Y-84870600D01*
X103420333Y-84870600D02*
X103515571Y-84918219D01*
X103515571Y-84918219D02*
X103658428Y-84918219D01*
X103658428Y-84918219D02*
X103753666Y-84870600D01*
X103753666Y-84870600D02*
X103801285Y-84822980D01*
X104610809Y-84394409D02*
X104277476Y-84394409D01*
X104277476Y-84918219D02*
X104277476Y-83918219D01*
X104277476Y-83918219D02*
X104753666Y-83918219D01*
X101920333Y-85347219D02*
X101729857Y-85347219D01*
X101729857Y-85347219D02*
X101634619Y-85394838D01*
X101634619Y-85394838D02*
X101587000Y-85442457D01*
X101587000Y-85442457D02*
X101491762Y-85585314D01*
X101491762Y-85585314D02*
X101444143Y-85775790D01*
X101444143Y-85775790D02*
X101444143Y-86156742D01*
X101444143Y-86156742D02*
X101491762Y-86251980D01*
X101491762Y-86251980D02*
X101539381Y-86299600D01*
X101539381Y-86299600D02*
X101634619Y-86347219D01*
X101634619Y-86347219D02*
X101825095Y-86347219D01*
X101825095Y-86347219D02*
X101920333Y-86299600D01*
X101920333Y-86299600D02*
X101967952Y-86251980D01*
X101967952Y-86251980D02*
X102015571Y-86156742D01*
X102015571Y-86156742D02*
X102015571Y-85918647D01*
X102015571Y-85918647D02*
X101967952Y-85823409D01*
X101967952Y-85823409D02*
X101920333Y-85775790D01*
X101920333Y-85775790D02*
X101825095Y-85728171D01*
X101825095Y-85728171D02*
X101634619Y-85728171D01*
X101634619Y-85728171D02*
X101539381Y-85775790D01*
X101539381Y-85775790D02*
X101491762Y-85823409D01*
X101491762Y-85823409D02*
X101444143Y-85918647D01*
X102348905Y-85347219D02*
X102967952Y-85347219D01*
X102967952Y-85347219D02*
X102634619Y-85728171D01*
X102634619Y-85728171D02*
X102777476Y-85728171D01*
X102777476Y-85728171D02*
X102872714Y-85775790D01*
X102872714Y-85775790D02*
X102920333Y-85823409D01*
X102920333Y-85823409D02*
X102967952Y-85918647D01*
X102967952Y-85918647D02*
X102967952Y-86156742D01*
X102967952Y-86156742D02*
X102920333Y-86251980D01*
X102920333Y-86251980D02*
X102872714Y-86299600D01*
X102872714Y-86299600D02*
X102777476Y-86347219D01*
X102777476Y-86347219D02*
X102491762Y-86347219D01*
X102491762Y-86347219D02*
X102396524Y-86299600D01*
X102396524Y-86299600D02*
X102348905Y-86251980D01*
X103301286Y-85680552D02*
X103539381Y-86347219D01*
X103539381Y-86347219D02*
X103777476Y-85680552D01*
X94686333Y-82176980D02*
X94638714Y-82224600D01*
X94638714Y-82224600D02*
X94495857Y-82272219D01*
X94495857Y-82272219D02*
X94400619Y-82272219D01*
X94400619Y-82272219D02*
X94257762Y-82224600D01*
X94257762Y-82224600D02*
X94162524Y-82129361D01*
X94162524Y-82129361D02*
X94114905Y-82034123D01*
X94114905Y-82034123D02*
X94067286Y-81843647D01*
X94067286Y-81843647D02*
X94067286Y-81700790D01*
X94067286Y-81700790D02*
X94114905Y-81510314D01*
X94114905Y-81510314D02*
X94162524Y-81415076D01*
X94162524Y-81415076D02*
X94257762Y-81319838D01*
X94257762Y-81319838D02*
X94400619Y-81272219D01*
X94400619Y-81272219D02*
X94495857Y-81272219D01*
X94495857Y-81272219D02*
X94638714Y-81319838D01*
X94638714Y-81319838D02*
X94686333Y-81367457D01*
X95019667Y-81272219D02*
X95638714Y-81272219D01*
X95638714Y-81272219D02*
X95305381Y-81653171D01*
X95305381Y-81653171D02*
X95448238Y-81653171D01*
X95448238Y-81653171D02*
X95543476Y-81700790D01*
X95543476Y-81700790D02*
X95591095Y-81748409D01*
X95591095Y-81748409D02*
X95638714Y-81843647D01*
X95638714Y-81843647D02*
X95638714Y-82081742D01*
X95638714Y-82081742D02*
X95591095Y-82176980D01*
X95591095Y-82176980D02*
X95543476Y-82224600D01*
X95543476Y-82224600D02*
X95448238Y-82272219D01*
X95448238Y-82272219D02*
X95162524Y-82272219D01*
X95162524Y-82272219D02*
X95067286Y-82224600D01*
X95067286Y-82224600D02*
X95019667Y-82176980D01*
X96555857Y-75248447D02*
X96555857Y-74581780D01*
X96793952Y-75629400D02*
X97032047Y-74915114D01*
X97032047Y-74915114D02*
X96413000Y-74915114D01*
X96127285Y-75581780D02*
X95460619Y-75581780D01*
X95460619Y-75581780D02*
X95889190Y-74581780D01*
X94889190Y-75581780D02*
X94793952Y-75581780D01*
X94793952Y-75581780D02*
X94698714Y-75534161D01*
X94698714Y-75534161D02*
X94651095Y-75486542D01*
X94651095Y-75486542D02*
X94603476Y-75391304D01*
X94603476Y-75391304D02*
X94555857Y-75200828D01*
X94555857Y-75200828D02*
X94555857Y-74962733D01*
X94555857Y-74962733D02*
X94603476Y-74772257D01*
X94603476Y-74772257D02*
X94651095Y-74677019D01*
X94651095Y-74677019D02*
X94698714Y-74629400D01*
X94698714Y-74629400D02*
X94793952Y-74581780D01*
X94793952Y-74581780D02*
X94889190Y-74581780D01*
X94889190Y-74581780D02*
X94984428Y-74629400D01*
X94984428Y-74629400D02*
X95032047Y-74677019D01*
X95032047Y-74677019D02*
X95079666Y-74772257D01*
X95079666Y-74772257D02*
X95127285Y-74962733D01*
X95127285Y-74962733D02*
X95127285Y-75200828D01*
X95127285Y-75200828D02*
X95079666Y-75391304D01*
X95079666Y-75391304D02*
X95032047Y-75486542D01*
X95032047Y-75486542D02*
X94984428Y-75534161D01*
X94984428Y-75534161D02*
X94889190Y-75581780D01*
X93698714Y-75248447D02*
X93698714Y-74581780D01*
X94127285Y-75248447D02*
X94127285Y-74724638D01*
X94127285Y-74724638D02*
X94079666Y-74629400D01*
X94079666Y-74629400D02*
X93984428Y-74581780D01*
X93984428Y-74581780D02*
X93841571Y-74581780D01*
X93841571Y-74581780D02*
X93746333Y-74629400D01*
X93746333Y-74629400D02*
X93698714Y-74677019D01*
X92889190Y-75105590D02*
X93222523Y-75105590D01*
X93222523Y-74581780D02*
X93222523Y-75581780D01*
X93222523Y-75581780D02*
X92746333Y-75581780D01*
X95579666Y-74152780D02*
X95770142Y-74152780D01*
X95770142Y-74152780D02*
X95865380Y-74105161D01*
X95865380Y-74105161D02*
X95912999Y-74057542D01*
X95912999Y-74057542D02*
X96008237Y-73914685D01*
X96008237Y-73914685D02*
X96055856Y-73724209D01*
X96055856Y-73724209D02*
X96055856Y-73343257D01*
X96055856Y-73343257D02*
X96008237Y-73248019D01*
X96008237Y-73248019D02*
X95960618Y-73200400D01*
X95960618Y-73200400D02*
X95865380Y-73152780D01*
X95865380Y-73152780D02*
X95674904Y-73152780D01*
X95674904Y-73152780D02*
X95579666Y-73200400D01*
X95579666Y-73200400D02*
X95532047Y-73248019D01*
X95532047Y-73248019D02*
X95484428Y-73343257D01*
X95484428Y-73343257D02*
X95484428Y-73581352D01*
X95484428Y-73581352D02*
X95532047Y-73676590D01*
X95532047Y-73676590D02*
X95579666Y-73724209D01*
X95579666Y-73724209D02*
X95674904Y-73771828D01*
X95674904Y-73771828D02*
X95865380Y-73771828D01*
X95865380Y-73771828D02*
X95960618Y-73724209D01*
X95960618Y-73724209D02*
X96008237Y-73676590D01*
X96008237Y-73676590D02*
X96055856Y-73581352D01*
X95151094Y-74152780D02*
X94532047Y-74152780D01*
X94532047Y-74152780D02*
X94865380Y-73771828D01*
X94865380Y-73771828D02*
X94722523Y-73771828D01*
X94722523Y-73771828D02*
X94627285Y-73724209D01*
X94627285Y-73724209D02*
X94579666Y-73676590D01*
X94579666Y-73676590D02*
X94532047Y-73581352D01*
X94532047Y-73581352D02*
X94532047Y-73343257D01*
X94532047Y-73343257D02*
X94579666Y-73248019D01*
X94579666Y-73248019D02*
X94627285Y-73200400D01*
X94627285Y-73200400D02*
X94722523Y-73152780D01*
X94722523Y-73152780D02*
X95008237Y-73152780D01*
X95008237Y-73152780D02*
X95103475Y-73200400D01*
X95103475Y-73200400D02*
X95151094Y-73248019D01*
X94198713Y-73819447D02*
X93960618Y-73152780D01*
X93960618Y-73152780D02*
X93722523Y-73819447D01*
X76480333Y-74536980D02*
X76432714Y-74584600D01*
X76432714Y-74584600D02*
X76289857Y-74632219D01*
X76289857Y-74632219D02*
X76194619Y-74632219D01*
X76194619Y-74632219D02*
X76051762Y-74584600D01*
X76051762Y-74584600D02*
X75956524Y-74489361D01*
X75956524Y-74489361D02*
X75908905Y-74394123D01*
X75908905Y-74394123D02*
X75861286Y-74203647D01*
X75861286Y-74203647D02*
X75861286Y-74060790D01*
X75861286Y-74060790D02*
X75908905Y-73870314D01*
X75908905Y-73870314D02*
X75956524Y-73775076D01*
X75956524Y-73775076D02*
X76051762Y-73679838D01*
X76051762Y-73679838D02*
X76194619Y-73632219D01*
X76194619Y-73632219D02*
X76289857Y-73632219D01*
X76289857Y-73632219D02*
X76432714Y-73679838D01*
X76432714Y-73679838D02*
X76480333Y-73727457D01*
X76861286Y-73727457D02*
X76908905Y-73679838D01*
X76908905Y-73679838D02*
X77004143Y-73632219D01*
X77004143Y-73632219D02*
X77242238Y-73632219D01*
X77242238Y-73632219D02*
X77337476Y-73679838D01*
X77337476Y-73679838D02*
X77385095Y-73727457D01*
X77385095Y-73727457D02*
X77432714Y-73822695D01*
X77432714Y-73822695D02*
X77432714Y-73917933D01*
X77432714Y-73917933D02*
X77385095Y-74060790D01*
X77385095Y-74060790D02*
X76813667Y-74632219D01*
X76813667Y-74632219D02*
X77432714Y-74632219D01*
X74944142Y-80751552D02*
X74944142Y-81418219D01*
X74706047Y-80370600D02*
X74467952Y-81084885D01*
X74467952Y-81084885D02*
X75086999Y-81084885D01*
X75372714Y-80418219D02*
X76039380Y-80418219D01*
X76039380Y-80418219D02*
X75610809Y-81418219D01*
X76610809Y-80418219D02*
X76706047Y-80418219D01*
X76706047Y-80418219D02*
X76801285Y-80465838D01*
X76801285Y-80465838D02*
X76848904Y-80513457D01*
X76848904Y-80513457D02*
X76896523Y-80608695D01*
X76896523Y-80608695D02*
X76944142Y-80799171D01*
X76944142Y-80799171D02*
X76944142Y-81037266D01*
X76944142Y-81037266D02*
X76896523Y-81227742D01*
X76896523Y-81227742D02*
X76848904Y-81322980D01*
X76848904Y-81322980D02*
X76801285Y-81370600D01*
X76801285Y-81370600D02*
X76706047Y-81418219D01*
X76706047Y-81418219D02*
X76610809Y-81418219D01*
X76610809Y-81418219D02*
X76515571Y-81370600D01*
X76515571Y-81370600D02*
X76467952Y-81322980D01*
X76467952Y-81322980D02*
X76420333Y-81227742D01*
X76420333Y-81227742D02*
X76372714Y-81037266D01*
X76372714Y-81037266D02*
X76372714Y-80799171D01*
X76372714Y-80799171D02*
X76420333Y-80608695D01*
X76420333Y-80608695D02*
X76467952Y-80513457D01*
X76467952Y-80513457D02*
X76515571Y-80465838D01*
X76515571Y-80465838D02*
X76610809Y-80418219D01*
X77801285Y-80751552D02*
X77801285Y-81418219D01*
X77372714Y-80751552D02*
X77372714Y-81275361D01*
X77372714Y-81275361D02*
X77420333Y-81370600D01*
X77420333Y-81370600D02*
X77515571Y-81418219D01*
X77515571Y-81418219D02*
X77658428Y-81418219D01*
X77658428Y-81418219D02*
X77753666Y-81370600D01*
X77753666Y-81370600D02*
X77801285Y-81322980D01*
X78610809Y-80894409D02*
X78277476Y-80894409D01*
X78277476Y-81418219D02*
X78277476Y-80418219D01*
X78277476Y-80418219D02*
X78753666Y-80418219D01*
X75920333Y-81847219D02*
X75729857Y-81847219D01*
X75729857Y-81847219D02*
X75634619Y-81894838D01*
X75634619Y-81894838D02*
X75587000Y-81942457D01*
X75587000Y-81942457D02*
X75491762Y-82085314D01*
X75491762Y-82085314D02*
X75444143Y-82275790D01*
X75444143Y-82275790D02*
X75444143Y-82656742D01*
X75444143Y-82656742D02*
X75491762Y-82751980D01*
X75491762Y-82751980D02*
X75539381Y-82799600D01*
X75539381Y-82799600D02*
X75634619Y-82847219D01*
X75634619Y-82847219D02*
X75825095Y-82847219D01*
X75825095Y-82847219D02*
X75920333Y-82799600D01*
X75920333Y-82799600D02*
X75967952Y-82751980D01*
X75967952Y-82751980D02*
X76015571Y-82656742D01*
X76015571Y-82656742D02*
X76015571Y-82418647D01*
X76015571Y-82418647D02*
X75967952Y-82323409D01*
X75967952Y-82323409D02*
X75920333Y-82275790D01*
X75920333Y-82275790D02*
X75825095Y-82228171D01*
X75825095Y-82228171D02*
X75634619Y-82228171D01*
X75634619Y-82228171D02*
X75539381Y-82275790D01*
X75539381Y-82275790D02*
X75491762Y-82323409D01*
X75491762Y-82323409D02*
X75444143Y-82418647D01*
X76348905Y-81847219D02*
X76967952Y-81847219D01*
X76967952Y-81847219D02*
X76634619Y-82228171D01*
X76634619Y-82228171D02*
X76777476Y-82228171D01*
X76777476Y-82228171D02*
X76872714Y-82275790D01*
X76872714Y-82275790D02*
X76920333Y-82323409D01*
X76920333Y-82323409D02*
X76967952Y-82418647D01*
X76967952Y-82418647D02*
X76967952Y-82656742D01*
X76967952Y-82656742D02*
X76920333Y-82751980D01*
X76920333Y-82751980D02*
X76872714Y-82799600D01*
X76872714Y-82799600D02*
X76777476Y-82847219D01*
X76777476Y-82847219D02*
X76491762Y-82847219D01*
X76491762Y-82847219D02*
X76396524Y-82799600D01*
X76396524Y-82799600D02*
X76348905Y-82751980D01*
X77301286Y-82180552D02*
X77539381Y-82847219D01*
X77539381Y-82847219D02*
X77777476Y-82180552D01*
X66686333Y-85676980D02*
X66638714Y-85724600D01*
X66638714Y-85724600D02*
X66495857Y-85772219D01*
X66495857Y-85772219D02*
X66400619Y-85772219D01*
X66400619Y-85772219D02*
X66257762Y-85724600D01*
X66257762Y-85724600D02*
X66162524Y-85629361D01*
X66162524Y-85629361D02*
X66114905Y-85534123D01*
X66114905Y-85534123D02*
X66067286Y-85343647D01*
X66067286Y-85343647D02*
X66067286Y-85200790D01*
X66067286Y-85200790D02*
X66114905Y-85010314D01*
X66114905Y-85010314D02*
X66162524Y-84915076D01*
X66162524Y-84915076D02*
X66257762Y-84819838D01*
X66257762Y-84819838D02*
X66400619Y-84772219D01*
X66400619Y-84772219D02*
X66495857Y-84772219D01*
X66495857Y-84772219D02*
X66638714Y-84819838D01*
X66638714Y-84819838D02*
X66686333Y-84867457D01*
X67638714Y-85772219D02*
X67067286Y-85772219D01*
X67353000Y-85772219D02*
X67353000Y-84772219D01*
X67353000Y-84772219D02*
X67257762Y-84915076D01*
X67257762Y-84915076D02*
X67162524Y-85010314D01*
X67162524Y-85010314D02*
X67067286Y-85057933D01*
X68555857Y-78748447D02*
X68555857Y-78081780D01*
X68793952Y-79129400D02*
X69032047Y-78415114D01*
X69032047Y-78415114D02*
X68413000Y-78415114D01*
X68127285Y-79081780D02*
X67460619Y-79081780D01*
X67460619Y-79081780D02*
X67889190Y-78081780D01*
X66889190Y-79081780D02*
X66793952Y-79081780D01*
X66793952Y-79081780D02*
X66698714Y-79034161D01*
X66698714Y-79034161D02*
X66651095Y-78986542D01*
X66651095Y-78986542D02*
X66603476Y-78891304D01*
X66603476Y-78891304D02*
X66555857Y-78700828D01*
X66555857Y-78700828D02*
X66555857Y-78462733D01*
X66555857Y-78462733D02*
X66603476Y-78272257D01*
X66603476Y-78272257D02*
X66651095Y-78177019D01*
X66651095Y-78177019D02*
X66698714Y-78129400D01*
X66698714Y-78129400D02*
X66793952Y-78081780D01*
X66793952Y-78081780D02*
X66889190Y-78081780D01*
X66889190Y-78081780D02*
X66984428Y-78129400D01*
X66984428Y-78129400D02*
X67032047Y-78177019D01*
X67032047Y-78177019D02*
X67079666Y-78272257D01*
X67079666Y-78272257D02*
X67127285Y-78462733D01*
X67127285Y-78462733D02*
X67127285Y-78700828D01*
X67127285Y-78700828D02*
X67079666Y-78891304D01*
X67079666Y-78891304D02*
X67032047Y-78986542D01*
X67032047Y-78986542D02*
X66984428Y-79034161D01*
X66984428Y-79034161D02*
X66889190Y-79081780D01*
X65698714Y-78748447D02*
X65698714Y-78081780D01*
X66127285Y-78748447D02*
X66127285Y-78224638D01*
X66127285Y-78224638D02*
X66079666Y-78129400D01*
X66079666Y-78129400D02*
X65984428Y-78081780D01*
X65984428Y-78081780D02*
X65841571Y-78081780D01*
X65841571Y-78081780D02*
X65746333Y-78129400D01*
X65746333Y-78129400D02*
X65698714Y-78177019D01*
X64889190Y-78605590D02*
X65222523Y-78605590D01*
X65222523Y-78081780D02*
X65222523Y-79081780D01*
X65222523Y-79081780D02*
X64746333Y-79081780D01*
X67579666Y-77652780D02*
X67770142Y-77652780D01*
X67770142Y-77652780D02*
X67865380Y-77605161D01*
X67865380Y-77605161D02*
X67912999Y-77557542D01*
X67912999Y-77557542D02*
X68008237Y-77414685D01*
X68008237Y-77414685D02*
X68055856Y-77224209D01*
X68055856Y-77224209D02*
X68055856Y-76843257D01*
X68055856Y-76843257D02*
X68008237Y-76748019D01*
X68008237Y-76748019D02*
X67960618Y-76700400D01*
X67960618Y-76700400D02*
X67865380Y-76652780D01*
X67865380Y-76652780D02*
X67674904Y-76652780D01*
X67674904Y-76652780D02*
X67579666Y-76700400D01*
X67579666Y-76700400D02*
X67532047Y-76748019D01*
X67532047Y-76748019D02*
X67484428Y-76843257D01*
X67484428Y-76843257D02*
X67484428Y-77081352D01*
X67484428Y-77081352D02*
X67532047Y-77176590D01*
X67532047Y-77176590D02*
X67579666Y-77224209D01*
X67579666Y-77224209D02*
X67674904Y-77271828D01*
X67674904Y-77271828D02*
X67865380Y-77271828D01*
X67865380Y-77271828D02*
X67960618Y-77224209D01*
X67960618Y-77224209D02*
X68008237Y-77176590D01*
X68008237Y-77176590D02*
X68055856Y-77081352D01*
X67151094Y-77652780D02*
X66532047Y-77652780D01*
X66532047Y-77652780D02*
X66865380Y-77271828D01*
X66865380Y-77271828D02*
X66722523Y-77271828D01*
X66722523Y-77271828D02*
X66627285Y-77224209D01*
X66627285Y-77224209D02*
X66579666Y-77176590D01*
X66579666Y-77176590D02*
X66532047Y-77081352D01*
X66532047Y-77081352D02*
X66532047Y-76843257D01*
X66532047Y-76843257D02*
X66579666Y-76748019D01*
X66579666Y-76748019D02*
X66627285Y-76700400D01*
X66627285Y-76700400D02*
X66722523Y-76652780D01*
X66722523Y-76652780D02*
X67008237Y-76652780D01*
X67008237Y-76652780D02*
X67103475Y-76700400D01*
X67103475Y-76700400D02*
X67151094Y-76748019D01*
X66198713Y-77319447D02*
X65960618Y-76652780D01*
X65960618Y-76652780D02*
X65722523Y-77319447D01*
D11*
X96675873Y-70180619D02*
X96675873Y-69180619D01*
X96675873Y-69180619D02*
X97009206Y-69894904D01*
X97009206Y-69894904D02*
X97342539Y-69180619D01*
X97342539Y-69180619D02*
X97342539Y-70180619D01*
X98247301Y-69180619D02*
X98056825Y-69180619D01*
X98056825Y-69180619D02*
X97961587Y-69228238D01*
X97961587Y-69228238D02*
X97913968Y-69275857D01*
X97913968Y-69275857D02*
X97818730Y-69418714D01*
X97818730Y-69418714D02*
X97771111Y-69609190D01*
X97771111Y-69609190D02*
X97771111Y-69990142D01*
X97771111Y-69990142D02*
X97818730Y-70085380D01*
X97818730Y-70085380D02*
X97866349Y-70133000D01*
X97866349Y-70133000D02*
X97961587Y-70180619D01*
X97961587Y-70180619D02*
X98152063Y-70180619D01*
X98152063Y-70180619D02*
X98247301Y-70133000D01*
X98247301Y-70133000D02*
X98294920Y-70085380D01*
X98294920Y-70085380D02*
X98342539Y-69990142D01*
X98342539Y-69990142D02*
X98342539Y-69752047D01*
X98342539Y-69752047D02*
X98294920Y-69656809D01*
X98294920Y-69656809D02*
X98247301Y-69609190D01*
X98247301Y-69609190D02*
X98152063Y-69561571D01*
X98152063Y-69561571D02*
X97961587Y-69561571D01*
X97961587Y-69561571D02*
X97866349Y-69609190D01*
X97866349Y-69609190D02*
X97818730Y-69656809D01*
X97818730Y-69656809D02*
X97771111Y-69752047D01*
X80318973Y-70058019D02*
X80318973Y-69058019D01*
X80318973Y-69058019D02*
X80652306Y-69772304D01*
X80652306Y-69772304D02*
X80985639Y-69058019D01*
X80985639Y-69058019D02*
X80985639Y-70058019D01*
X81890401Y-69391352D02*
X81890401Y-70058019D01*
X81652306Y-69010400D02*
X81414211Y-69724685D01*
X81414211Y-69724685D02*
X82033258Y-69724685D01*
X64154973Y-70053919D02*
X64154973Y-69053919D01*
X64154973Y-69053919D02*
X64488306Y-69768204D01*
X64488306Y-69768204D02*
X64821639Y-69053919D01*
X64821639Y-69053919D02*
X64821639Y-70053919D01*
X65250211Y-69149157D02*
X65297830Y-69101538D01*
X65297830Y-69101538D02*
X65393068Y-69053919D01*
X65393068Y-69053919D02*
X65631163Y-69053919D01*
X65631163Y-69053919D02*
X65726401Y-69101538D01*
X65726401Y-69101538D02*
X65774020Y-69149157D01*
X65774020Y-69149157D02*
X65821639Y-69244395D01*
X65821639Y-69244395D02*
X65821639Y-69339633D01*
X65821639Y-69339633D02*
X65774020Y-69482490D01*
X65774020Y-69482490D02*
X65202592Y-70053919D01*
X65202592Y-70053919D02*
X65821639Y-70053919D01*
X112190476Y-41404819D02*
X112190476Y-42119104D01*
X112190476Y-42119104D02*
X112142857Y-42261961D01*
X112142857Y-42261961D02*
X112047619Y-42357200D01*
X112047619Y-42357200D02*
X111904762Y-42404819D01*
X111904762Y-42404819D02*
X111809524Y-42404819D01*
X113190476Y-42404819D02*
X112619048Y-42404819D01*
X112904762Y-42404819D02*
X112904762Y-41404819D01*
X112904762Y-41404819D02*
X112809524Y-41547676D01*
X112809524Y-41547676D02*
X112714286Y-41642914D01*
X112714286Y-41642914D02*
X112619048Y-41690533D01*
X113523810Y-41404819D02*
X114142857Y-41404819D01*
X114142857Y-41404819D02*
X113809524Y-41785771D01*
X113809524Y-41785771D02*
X113952381Y-41785771D01*
X113952381Y-41785771D02*
X114047619Y-41833390D01*
X114047619Y-41833390D02*
X114095238Y-41881009D01*
X114095238Y-41881009D02*
X114142857Y-41976247D01*
X114142857Y-41976247D02*
X114142857Y-42214342D01*
X114142857Y-42214342D02*
X114095238Y-42309580D01*
X114095238Y-42309580D02*
X114047619Y-42357200D01*
X114047619Y-42357200D02*
X113952381Y-42404819D01*
X113952381Y-42404819D02*
X113666667Y-42404819D01*
X113666667Y-42404819D02*
X113571429Y-42357200D01*
X113571429Y-42357200D02*
X113523810Y-42309580D01*
X79190476Y-41404819D02*
X79190476Y-42119104D01*
X79190476Y-42119104D02*
X79142857Y-42261961D01*
X79142857Y-42261961D02*
X79047619Y-42357200D01*
X79047619Y-42357200D02*
X78904762Y-42404819D01*
X78904762Y-42404819D02*
X78809524Y-42404819D01*
X80190476Y-42404819D02*
X79619048Y-42404819D01*
X79904762Y-42404819D02*
X79904762Y-41404819D01*
X79904762Y-41404819D02*
X79809524Y-41547676D01*
X79809524Y-41547676D02*
X79714286Y-41642914D01*
X79714286Y-41642914D02*
X79619048Y-41690533D01*
X80571429Y-41500057D02*
X80619048Y-41452438D01*
X80619048Y-41452438D02*
X80714286Y-41404819D01*
X80714286Y-41404819D02*
X80952381Y-41404819D01*
X80952381Y-41404819D02*
X81047619Y-41452438D01*
X81047619Y-41452438D02*
X81095238Y-41500057D01*
X81095238Y-41500057D02*
X81142857Y-41595295D01*
X81142857Y-41595295D02*
X81142857Y-41690533D01*
X81142857Y-41690533D02*
X81095238Y-41833390D01*
X81095238Y-41833390D02*
X80523810Y-42404819D01*
X80523810Y-42404819D02*
X81142857Y-42404819D01*
X95440476Y-41379819D02*
X95440476Y-42094104D01*
X95440476Y-42094104D02*
X95392857Y-42236961D01*
X95392857Y-42236961D02*
X95297619Y-42332200D01*
X95297619Y-42332200D02*
X95154762Y-42379819D01*
X95154762Y-42379819D02*
X95059524Y-42379819D01*
X96440476Y-42379819D02*
X95869048Y-42379819D01*
X96154762Y-42379819D02*
X96154762Y-41379819D01*
X96154762Y-41379819D02*
X96059524Y-41522676D01*
X96059524Y-41522676D02*
X95964286Y-41617914D01*
X95964286Y-41617914D02*
X95869048Y-41665533D01*
X97392857Y-42379819D02*
X96821429Y-42379819D01*
X97107143Y-42379819D02*
X97107143Y-41379819D01*
X97107143Y-41379819D02*
X97011905Y-41522676D01*
X97011905Y-41522676D02*
X96916667Y-41617914D01*
X96916667Y-41617914D02*
X96821429Y-41665533D01*
X62690476Y-41404819D02*
X62690476Y-42119104D01*
X62690476Y-42119104D02*
X62642857Y-42261961D01*
X62642857Y-42261961D02*
X62547619Y-42357200D01*
X62547619Y-42357200D02*
X62404762Y-42404819D01*
X62404762Y-42404819D02*
X62309524Y-42404819D01*
X63690476Y-42404819D02*
X63119048Y-42404819D01*
X63404762Y-42404819D02*
X63404762Y-41404819D01*
X63404762Y-41404819D02*
X63309524Y-41547676D01*
X63309524Y-41547676D02*
X63214286Y-41642914D01*
X63214286Y-41642914D02*
X63119048Y-41690533D01*
X64309524Y-41404819D02*
X64404762Y-41404819D01*
X64404762Y-41404819D02*
X64500000Y-41452438D01*
X64500000Y-41452438D02*
X64547619Y-41500057D01*
X64547619Y-41500057D02*
X64595238Y-41595295D01*
X64595238Y-41595295D02*
X64642857Y-41785771D01*
X64642857Y-41785771D02*
X64642857Y-42023866D01*
X64642857Y-42023866D02*
X64595238Y-42214342D01*
X64595238Y-42214342D02*
X64547619Y-42309580D01*
X64547619Y-42309580D02*
X64500000Y-42357200D01*
X64500000Y-42357200D02*
X64404762Y-42404819D01*
X64404762Y-42404819D02*
X64309524Y-42404819D01*
X64309524Y-42404819D02*
X64214286Y-42357200D01*
X64214286Y-42357200D02*
X64166667Y-42309580D01*
X64166667Y-42309580D02*
X64119048Y-42214342D01*
X64119048Y-42214342D02*
X64071429Y-42023866D01*
X64071429Y-42023866D02*
X64071429Y-41785771D01*
X64071429Y-41785771D02*
X64119048Y-41595295D01*
X64119048Y-41595295D02*
X64166667Y-41500057D01*
X64166667Y-41500057D02*
X64214286Y-41452438D01*
X64214286Y-41452438D02*
X64309524Y-41404819D01*
X93366519Y-65008966D02*
X92890328Y-65342299D01*
X93366519Y-65580394D02*
X92366519Y-65580394D01*
X92366519Y-65580394D02*
X92366519Y-65199442D01*
X92366519Y-65199442D02*
X92414138Y-65104204D01*
X92414138Y-65104204D02*
X92461757Y-65056585D01*
X92461757Y-65056585D02*
X92556995Y-65008966D01*
X92556995Y-65008966D02*
X92699852Y-65008966D01*
X92699852Y-65008966D02*
X92795090Y-65056585D01*
X92795090Y-65056585D02*
X92842709Y-65104204D01*
X92842709Y-65104204D02*
X92890328Y-65199442D01*
X92890328Y-65199442D02*
X92890328Y-65580394D01*
X92366519Y-64675632D02*
X92366519Y-64056585D01*
X92366519Y-64056585D02*
X92747471Y-64389918D01*
X92747471Y-64389918D02*
X92747471Y-64247061D01*
X92747471Y-64247061D02*
X92795090Y-64151823D01*
X92795090Y-64151823D02*
X92842709Y-64104204D01*
X92842709Y-64104204D02*
X92937947Y-64056585D01*
X92937947Y-64056585D02*
X93176042Y-64056585D01*
X93176042Y-64056585D02*
X93271280Y-64104204D01*
X93271280Y-64104204D02*
X93318900Y-64151823D01*
X93318900Y-64151823D02*
X93366519Y-64247061D01*
X93366519Y-64247061D02*
X93366519Y-64532775D01*
X93366519Y-64532775D02*
X93318900Y-64628013D01*
X93318900Y-64628013D02*
X93271280Y-64675632D01*
X77369619Y-64816366D02*
X76893428Y-65149699D01*
X77369619Y-65387794D02*
X76369619Y-65387794D01*
X76369619Y-65387794D02*
X76369619Y-65006842D01*
X76369619Y-65006842D02*
X76417238Y-64911604D01*
X76417238Y-64911604D02*
X76464857Y-64863985D01*
X76464857Y-64863985D02*
X76560095Y-64816366D01*
X76560095Y-64816366D02*
X76702952Y-64816366D01*
X76702952Y-64816366D02*
X76798190Y-64863985D01*
X76798190Y-64863985D02*
X76845809Y-64911604D01*
X76845809Y-64911604D02*
X76893428Y-65006842D01*
X76893428Y-65006842D02*
X76893428Y-65387794D01*
X76464857Y-64435413D02*
X76417238Y-64387794D01*
X76417238Y-64387794D02*
X76369619Y-64292556D01*
X76369619Y-64292556D02*
X76369619Y-64054461D01*
X76369619Y-64054461D02*
X76417238Y-63959223D01*
X76417238Y-63959223D02*
X76464857Y-63911604D01*
X76464857Y-63911604D02*
X76560095Y-63863985D01*
X76560095Y-63863985D02*
X76655333Y-63863985D01*
X76655333Y-63863985D02*
X76798190Y-63911604D01*
X76798190Y-63911604D02*
X77369619Y-64483032D01*
X77369619Y-64483032D02*
X77369619Y-63863985D01*
X66066419Y-65148266D02*
X65590228Y-65481599D01*
X66066419Y-65719694D02*
X65066419Y-65719694D01*
X65066419Y-65719694D02*
X65066419Y-65338742D01*
X65066419Y-65338742D02*
X65114038Y-65243504D01*
X65114038Y-65243504D02*
X65161657Y-65195885D01*
X65161657Y-65195885D02*
X65256895Y-65148266D01*
X65256895Y-65148266D02*
X65399752Y-65148266D01*
X65399752Y-65148266D02*
X65494990Y-65195885D01*
X65494990Y-65195885D02*
X65542609Y-65243504D01*
X65542609Y-65243504D02*
X65590228Y-65338742D01*
X65590228Y-65338742D02*
X65590228Y-65719694D01*
X66066419Y-64195885D02*
X66066419Y-64767313D01*
X66066419Y-64481599D02*
X65066419Y-64481599D01*
X65066419Y-64481599D02*
X65209276Y-64576837D01*
X65209276Y-64576837D02*
X65304514Y-64672075D01*
X65304514Y-64672075D02*
X65352133Y-64767313D01*
X72690476Y-120004819D02*
X72690476Y-120719104D01*
X72690476Y-120719104D02*
X72642857Y-120861961D01*
X72642857Y-120861961D02*
X72547619Y-120957200D01*
X72547619Y-120957200D02*
X72404762Y-121004819D01*
X72404762Y-121004819D02*
X72309524Y-121004819D01*
X73119048Y-120100057D02*
X73166667Y-120052438D01*
X73166667Y-120052438D02*
X73261905Y-120004819D01*
X73261905Y-120004819D02*
X73500000Y-120004819D01*
X73500000Y-120004819D02*
X73595238Y-120052438D01*
X73595238Y-120052438D02*
X73642857Y-120100057D01*
X73642857Y-120100057D02*
X73690476Y-120195295D01*
X73690476Y-120195295D02*
X73690476Y-120290533D01*
X73690476Y-120290533D02*
X73642857Y-120433390D01*
X73642857Y-120433390D02*
X73071429Y-121004819D01*
X73071429Y-121004819D02*
X73690476Y-121004819D01*
X74642857Y-121004819D02*
X74071429Y-121004819D01*
X74357143Y-121004819D02*
X74357143Y-120004819D01*
X74357143Y-120004819D02*
X74261905Y-120147676D01*
X74261905Y-120147676D02*
X74166667Y-120242914D01*
X74166667Y-120242914D02*
X74071429Y-120290533D01*
X76690476Y-120004819D02*
X76690476Y-120719104D01*
X76690476Y-120719104D02*
X76642857Y-120861961D01*
X76642857Y-120861961D02*
X76547619Y-120957200D01*
X76547619Y-120957200D02*
X76404762Y-121004819D01*
X76404762Y-121004819D02*
X76309524Y-121004819D01*
X77119048Y-120100057D02*
X77166667Y-120052438D01*
X77166667Y-120052438D02*
X77261905Y-120004819D01*
X77261905Y-120004819D02*
X77500000Y-120004819D01*
X77500000Y-120004819D02*
X77595238Y-120052438D01*
X77595238Y-120052438D02*
X77642857Y-120100057D01*
X77642857Y-120100057D02*
X77690476Y-120195295D01*
X77690476Y-120195295D02*
X77690476Y-120290533D01*
X77690476Y-120290533D02*
X77642857Y-120433390D01*
X77642857Y-120433390D02*
X77071429Y-121004819D01*
X77071429Y-121004819D02*
X77690476Y-121004819D01*
X78309524Y-120004819D02*
X78404762Y-120004819D01*
X78404762Y-120004819D02*
X78500000Y-120052438D01*
X78500000Y-120052438D02*
X78547619Y-120100057D01*
X78547619Y-120100057D02*
X78595238Y-120195295D01*
X78595238Y-120195295D02*
X78642857Y-120385771D01*
X78642857Y-120385771D02*
X78642857Y-120623866D01*
X78642857Y-120623866D02*
X78595238Y-120814342D01*
X78595238Y-120814342D02*
X78547619Y-120909580D01*
X78547619Y-120909580D02*
X78500000Y-120957200D01*
X78500000Y-120957200D02*
X78404762Y-121004819D01*
X78404762Y-121004819D02*
X78309524Y-121004819D01*
X78309524Y-121004819D02*
X78214286Y-120957200D01*
X78214286Y-120957200D02*
X78166667Y-120909580D01*
X78166667Y-120909580D02*
X78119048Y-120814342D01*
X78119048Y-120814342D02*
X78071429Y-120623866D01*
X78071429Y-120623866D02*
X78071429Y-120385771D01*
X78071429Y-120385771D02*
X78119048Y-120195295D01*
X78119048Y-120195295D02*
X78166667Y-120100057D01*
X78166667Y-120100057D02*
X78214286Y-120052438D01*
X78214286Y-120052438D02*
X78309524Y-120004819D01*
X62690476Y-117464819D02*
X62690476Y-118179104D01*
X62690476Y-118179104D02*
X62642857Y-118321961D01*
X62642857Y-118321961D02*
X62547619Y-118417200D01*
X62547619Y-118417200D02*
X62404762Y-118464819D01*
X62404762Y-118464819D02*
X62309524Y-118464819D01*
X63690476Y-118464819D02*
X63119048Y-118464819D01*
X63404762Y-118464819D02*
X63404762Y-117464819D01*
X63404762Y-117464819D02*
X63309524Y-117607676D01*
X63309524Y-117607676D02*
X63214286Y-117702914D01*
X63214286Y-117702914D02*
X63119048Y-117750533D01*
X64595238Y-117464819D02*
X64119048Y-117464819D01*
X64119048Y-117464819D02*
X64071429Y-117941009D01*
X64071429Y-117941009D02*
X64119048Y-117893390D01*
X64119048Y-117893390D02*
X64214286Y-117845771D01*
X64214286Y-117845771D02*
X64452381Y-117845771D01*
X64452381Y-117845771D02*
X64547619Y-117893390D01*
X64547619Y-117893390D02*
X64595238Y-117941009D01*
X64595238Y-117941009D02*
X64642857Y-118036247D01*
X64642857Y-118036247D02*
X64642857Y-118274342D01*
X64642857Y-118274342D02*
X64595238Y-118369580D01*
X64595238Y-118369580D02*
X64547619Y-118417200D01*
X64547619Y-118417200D02*
X64452381Y-118464819D01*
X64452381Y-118464819D02*
X64214286Y-118464819D01*
X64214286Y-118464819D02*
X64119048Y-118417200D01*
X64119048Y-118417200D02*
X64071429Y-118369580D01*
X58690476Y-117424819D02*
X58690476Y-118139104D01*
X58690476Y-118139104D02*
X58642857Y-118281961D01*
X58642857Y-118281961D02*
X58547619Y-118377200D01*
X58547619Y-118377200D02*
X58404762Y-118424819D01*
X58404762Y-118424819D02*
X58309524Y-118424819D01*
X59690476Y-118424819D02*
X59119048Y-118424819D01*
X59404762Y-118424819D02*
X59404762Y-117424819D01*
X59404762Y-117424819D02*
X59309524Y-117567676D01*
X59309524Y-117567676D02*
X59214286Y-117662914D01*
X59214286Y-117662914D02*
X59119048Y-117710533D01*
X60547619Y-117758152D02*
X60547619Y-118424819D01*
X60309524Y-117377200D02*
X60071429Y-118091485D01*
X60071429Y-118091485D02*
X60690476Y-118091485D01*
X122166666Y-84184819D02*
X122166666Y-84899104D01*
X122166666Y-84899104D02*
X122119047Y-85041961D01*
X122119047Y-85041961D02*
X122023809Y-85137200D01*
X122023809Y-85137200D02*
X121880952Y-85184819D01*
X121880952Y-85184819D02*
X121785714Y-85184819D01*
X122690476Y-85184819D02*
X122880952Y-85184819D01*
X122880952Y-85184819D02*
X122976190Y-85137200D01*
X122976190Y-85137200D02*
X123023809Y-85089580D01*
X123023809Y-85089580D02*
X123119047Y-84946723D01*
X123119047Y-84946723D02*
X123166666Y-84756247D01*
X123166666Y-84756247D02*
X123166666Y-84375295D01*
X123166666Y-84375295D02*
X123119047Y-84280057D01*
X123119047Y-84280057D02*
X123071428Y-84232438D01*
X123071428Y-84232438D02*
X122976190Y-84184819D01*
X122976190Y-84184819D02*
X122785714Y-84184819D01*
X122785714Y-84184819D02*
X122690476Y-84232438D01*
X122690476Y-84232438D02*
X122642857Y-84280057D01*
X122642857Y-84280057D02*
X122595238Y-84375295D01*
X122595238Y-84375295D02*
X122595238Y-84613390D01*
X122595238Y-84613390D02*
X122642857Y-84708628D01*
X122642857Y-84708628D02*
X122690476Y-84756247D01*
X122690476Y-84756247D02*
X122785714Y-84803866D01*
X122785714Y-84803866D02*
X122976190Y-84803866D01*
X122976190Y-84803866D02*
X123071428Y-84756247D01*
X123071428Y-84756247D02*
X123119047Y-84708628D01*
X123119047Y-84708628D02*
X123166666Y-84613390D01*
X129468571Y-76859085D02*
X129825714Y-76859085D01*
X129825714Y-76859085D02*
X129861428Y-76501942D01*
X129861428Y-76501942D02*
X129825714Y-76537657D01*
X129825714Y-76537657D02*
X129754286Y-76573371D01*
X129754286Y-76573371D02*
X129575714Y-76573371D01*
X129575714Y-76573371D02*
X129504286Y-76537657D01*
X129504286Y-76537657D02*
X129468571Y-76501942D01*
X129468571Y-76501942D02*
X129432857Y-76430514D01*
X129432857Y-76430514D02*
X129432857Y-76251942D01*
X129432857Y-76251942D02*
X129468571Y-76180514D01*
X129468571Y-76180514D02*
X129504286Y-76144800D01*
X129504286Y-76144800D02*
X129575714Y-76109085D01*
X129575714Y-76109085D02*
X129754286Y-76109085D01*
X129754286Y-76109085D02*
X129825714Y-76144800D01*
X129825714Y-76144800D02*
X129861428Y-76180514D01*
X129111428Y-76180514D02*
X129075714Y-76144800D01*
X129075714Y-76144800D02*
X129111428Y-76109085D01*
X129111428Y-76109085D02*
X129147142Y-76144800D01*
X129147142Y-76144800D02*
X129111428Y-76180514D01*
X129111428Y-76180514D02*
X129111428Y-76109085D01*
X128611428Y-76859085D02*
X128539999Y-76859085D01*
X128539999Y-76859085D02*
X128468571Y-76823371D01*
X128468571Y-76823371D02*
X128432857Y-76787657D01*
X128432857Y-76787657D02*
X128397142Y-76716228D01*
X128397142Y-76716228D02*
X128361428Y-76573371D01*
X128361428Y-76573371D02*
X128361428Y-76394800D01*
X128361428Y-76394800D02*
X128397142Y-76251942D01*
X128397142Y-76251942D02*
X128432857Y-76180514D01*
X128432857Y-76180514D02*
X128468571Y-76144800D01*
X128468571Y-76144800D02*
X128539999Y-76109085D01*
X128539999Y-76109085D02*
X128611428Y-76109085D01*
X128611428Y-76109085D02*
X128682857Y-76144800D01*
X128682857Y-76144800D02*
X128718571Y-76180514D01*
X128718571Y-76180514D02*
X128754285Y-76251942D01*
X128754285Y-76251942D02*
X128789999Y-76394800D01*
X128789999Y-76394800D02*
X128789999Y-76573371D01*
X128789999Y-76573371D02*
X128754285Y-76716228D01*
X128754285Y-76716228D02*
X128718571Y-76787657D01*
X128718571Y-76787657D02*
X128682857Y-76823371D01*
X128682857Y-76823371D02*
X128611428Y-76859085D01*
X127932856Y-76537657D02*
X128004285Y-76573371D01*
X128004285Y-76573371D02*
X128039999Y-76609085D01*
X128039999Y-76609085D02*
X128075713Y-76680514D01*
X128075713Y-76680514D02*
X128075713Y-76716228D01*
X128075713Y-76716228D02*
X128039999Y-76787657D01*
X128039999Y-76787657D02*
X128004285Y-76823371D01*
X128004285Y-76823371D02*
X127932856Y-76859085D01*
X127932856Y-76859085D02*
X127789999Y-76859085D01*
X127789999Y-76859085D02*
X127718571Y-76823371D01*
X127718571Y-76823371D02*
X127682856Y-76787657D01*
X127682856Y-76787657D02*
X127647142Y-76716228D01*
X127647142Y-76716228D02*
X127647142Y-76680514D01*
X127647142Y-76680514D02*
X127682856Y-76609085D01*
X127682856Y-76609085D02*
X127718571Y-76573371D01*
X127718571Y-76573371D02*
X127789999Y-76537657D01*
X127789999Y-76537657D02*
X127932856Y-76537657D01*
X127932856Y-76537657D02*
X128004285Y-76501942D01*
X128004285Y-76501942D02*
X128039999Y-76466228D01*
X128039999Y-76466228D02*
X128075713Y-76394800D01*
X128075713Y-76394800D02*
X128075713Y-76251942D01*
X128075713Y-76251942D02*
X128039999Y-76180514D01*
X128039999Y-76180514D02*
X128004285Y-76144800D01*
X128004285Y-76144800D02*
X127932856Y-76109085D01*
X127932856Y-76109085D02*
X127789999Y-76109085D01*
X127789999Y-76109085D02*
X127718571Y-76144800D01*
X127718571Y-76144800D02*
X127682856Y-76180514D01*
X127682856Y-76180514D02*
X127647142Y-76251942D01*
X127647142Y-76251942D02*
X127647142Y-76394800D01*
X127647142Y-76394800D02*
X127682856Y-76466228D01*
X127682856Y-76466228D02*
X127718571Y-76501942D01*
X127718571Y-76501942D02*
X127789999Y-76537657D01*
X127325713Y-76109085D02*
X127325713Y-76609085D01*
X127325713Y-76537657D02*
X127289999Y-76573371D01*
X127289999Y-76573371D02*
X127218570Y-76609085D01*
X127218570Y-76609085D02*
X127111427Y-76609085D01*
X127111427Y-76609085D02*
X127039999Y-76573371D01*
X127039999Y-76573371D02*
X127004285Y-76501942D01*
X127004285Y-76501942D02*
X127004285Y-76109085D01*
X127004285Y-76501942D02*
X126968570Y-76573371D01*
X126968570Y-76573371D02*
X126897142Y-76609085D01*
X126897142Y-76609085D02*
X126789999Y-76609085D01*
X126789999Y-76609085D02*
X126718570Y-76573371D01*
X126718570Y-76573371D02*
X126682856Y-76501942D01*
X126682856Y-76501942D02*
X126682856Y-76109085D01*
X126325713Y-76109085D02*
X126325713Y-76609085D01*
X126325713Y-76537657D02*
X126289999Y-76573371D01*
X126289999Y-76573371D02*
X126218570Y-76609085D01*
X126218570Y-76609085D02*
X126111427Y-76609085D01*
X126111427Y-76609085D02*
X126039999Y-76573371D01*
X126039999Y-76573371D02*
X126004285Y-76501942D01*
X126004285Y-76501942D02*
X126004285Y-76109085D01*
X126004285Y-76501942D02*
X125968570Y-76573371D01*
X125968570Y-76573371D02*
X125897142Y-76609085D01*
X125897142Y-76609085D02*
X125789999Y-76609085D01*
X125789999Y-76609085D02*
X125718570Y-76573371D01*
X125718570Y-76573371D02*
X125682856Y-76501942D01*
X125682856Y-76501942D02*
X125682856Y-76109085D01*
X124861427Y-76394800D02*
X124825713Y-76430514D01*
X124825713Y-76430514D02*
X124754284Y-76466228D01*
X124754284Y-76466228D02*
X124611427Y-76394800D01*
X124611427Y-76394800D02*
X124539998Y-76430514D01*
X124539998Y-76430514D02*
X124504284Y-76466228D01*
X123682855Y-76787657D02*
X123647141Y-76823371D01*
X123647141Y-76823371D02*
X123575713Y-76859085D01*
X123575713Y-76859085D02*
X123397141Y-76859085D01*
X123397141Y-76859085D02*
X123325713Y-76823371D01*
X123325713Y-76823371D02*
X123289998Y-76787657D01*
X123289998Y-76787657D02*
X123254284Y-76716228D01*
X123254284Y-76716228D02*
X123254284Y-76644800D01*
X123254284Y-76644800D02*
X123289998Y-76537657D01*
X123289998Y-76537657D02*
X123718570Y-76109085D01*
X123718570Y-76109085D02*
X123254284Y-76109085D01*
X122932855Y-76394800D02*
X122361427Y-76394800D01*
X122075713Y-76859085D02*
X121897141Y-76109085D01*
X121897141Y-76109085D02*
X121754284Y-76644800D01*
X121754284Y-76644800D02*
X121611427Y-76109085D01*
X121611427Y-76109085D02*
X121432856Y-76859085D01*
X120825713Y-76109085D02*
X120825713Y-76501942D01*
X120825713Y-76501942D02*
X120861427Y-76573371D01*
X120861427Y-76573371D02*
X120932855Y-76609085D01*
X120932855Y-76609085D02*
X121075713Y-76609085D01*
X121075713Y-76609085D02*
X121147141Y-76573371D01*
X120825713Y-76144800D02*
X120897141Y-76109085D01*
X120897141Y-76109085D02*
X121075713Y-76109085D01*
X121075713Y-76109085D02*
X121147141Y-76144800D01*
X121147141Y-76144800D02*
X121182855Y-76216228D01*
X121182855Y-76216228D02*
X121182855Y-76287657D01*
X121182855Y-76287657D02*
X121147141Y-76359085D01*
X121147141Y-76359085D02*
X121075713Y-76394800D01*
X121075713Y-76394800D02*
X120897141Y-76394800D01*
X120897141Y-76394800D02*
X120825713Y-76430514D01*
X120539999Y-76609085D02*
X120361427Y-76109085D01*
X120182856Y-76609085D02*
X120361427Y-76109085D01*
X120361427Y-76109085D02*
X120432856Y-75930514D01*
X120432856Y-75930514D02*
X120468570Y-75894800D01*
X120468570Y-75894800D02*
X120539999Y-75859085D01*
X129200713Y-77372300D02*
X129093571Y-77336585D01*
X129093571Y-77336585D02*
X128914999Y-77336585D01*
X128914999Y-77336585D02*
X128843571Y-77372300D01*
X128843571Y-77372300D02*
X128807856Y-77408014D01*
X128807856Y-77408014D02*
X128772142Y-77479442D01*
X128772142Y-77479442D02*
X128772142Y-77550871D01*
X128772142Y-77550871D02*
X128807856Y-77622300D01*
X128807856Y-77622300D02*
X128843571Y-77658014D01*
X128843571Y-77658014D02*
X128914999Y-77693728D01*
X128914999Y-77693728D02*
X129057856Y-77729442D01*
X129057856Y-77729442D02*
X129129285Y-77765157D01*
X129129285Y-77765157D02*
X129164999Y-77800871D01*
X129164999Y-77800871D02*
X129200713Y-77872300D01*
X129200713Y-77872300D02*
X129200713Y-77943728D01*
X129200713Y-77943728D02*
X129164999Y-78015157D01*
X129164999Y-78015157D02*
X129129285Y-78050871D01*
X129129285Y-78050871D02*
X129057856Y-78086585D01*
X129057856Y-78086585D02*
X128879285Y-78086585D01*
X128879285Y-78086585D02*
X128772142Y-78050871D01*
X128129285Y-77372300D02*
X128200713Y-77336585D01*
X128200713Y-77336585D02*
X128343570Y-77336585D01*
X128343570Y-77336585D02*
X128414999Y-77372300D01*
X128414999Y-77372300D02*
X128450713Y-77408014D01*
X128450713Y-77408014D02*
X128486427Y-77479442D01*
X128486427Y-77479442D02*
X128486427Y-77693728D01*
X128486427Y-77693728D02*
X128450713Y-77765157D01*
X128450713Y-77765157D02*
X128414999Y-77800871D01*
X128414999Y-77800871D02*
X128343570Y-77836585D01*
X128343570Y-77836585D02*
X128200713Y-77836585D01*
X128200713Y-77836585D02*
X128129285Y-77800871D01*
X127807856Y-77336585D02*
X127807856Y-77836585D01*
X127807856Y-77693728D02*
X127772142Y-77765157D01*
X127772142Y-77765157D02*
X127736428Y-77800871D01*
X127736428Y-77800871D02*
X127664999Y-77836585D01*
X127664999Y-77836585D02*
X127593570Y-77836585D01*
X127057856Y-77372300D02*
X127129284Y-77336585D01*
X127129284Y-77336585D02*
X127272142Y-77336585D01*
X127272142Y-77336585D02*
X127343570Y-77372300D01*
X127343570Y-77372300D02*
X127379284Y-77443728D01*
X127379284Y-77443728D02*
X127379284Y-77729442D01*
X127379284Y-77729442D02*
X127343570Y-77800871D01*
X127343570Y-77800871D02*
X127272142Y-77836585D01*
X127272142Y-77836585D02*
X127129284Y-77836585D01*
X127129284Y-77836585D02*
X127057856Y-77800871D01*
X127057856Y-77800871D02*
X127022142Y-77729442D01*
X127022142Y-77729442D02*
X127022142Y-77658014D01*
X127022142Y-77658014D02*
X127379284Y-77586585D01*
X126772142Y-77836585D02*
X126629285Y-77336585D01*
X126629285Y-77336585D02*
X126486427Y-77693728D01*
X126486427Y-77693728D02*
X126343570Y-77336585D01*
X126343570Y-77336585D02*
X126200713Y-77836585D01*
X125450713Y-78086585D02*
X125022142Y-78086585D01*
X125236427Y-77336585D02*
X125236427Y-78086585D01*
X124486427Y-77372300D02*
X124557855Y-77336585D01*
X124557855Y-77336585D02*
X124700713Y-77336585D01*
X124700713Y-77336585D02*
X124772141Y-77372300D01*
X124772141Y-77372300D02*
X124807855Y-77443728D01*
X124807855Y-77443728D02*
X124807855Y-77729442D01*
X124807855Y-77729442D02*
X124772141Y-77800871D01*
X124772141Y-77800871D02*
X124700713Y-77836585D01*
X124700713Y-77836585D02*
X124557855Y-77836585D01*
X124557855Y-77836585D02*
X124486427Y-77800871D01*
X124486427Y-77800871D02*
X124450713Y-77729442D01*
X124450713Y-77729442D02*
X124450713Y-77658014D01*
X124450713Y-77658014D02*
X124807855Y-77586585D01*
X124129284Y-77336585D02*
X124129284Y-77836585D01*
X124129284Y-77693728D02*
X124093570Y-77765157D01*
X124093570Y-77765157D02*
X124057856Y-77800871D01*
X124057856Y-77800871D02*
X123986427Y-77836585D01*
X123986427Y-77836585D02*
X123914998Y-77836585D01*
X123664998Y-77336585D02*
X123664998Y-77836585D01*
X123664998Y-77765157D02*
X123629284Y-77800871D01*
X123629284Y-77800871D02*
X123557855Y-77836585D01*
X123557855Y-77836585D02*
X123450712Y-77836585D01*
X123450712Y-77836585D02*
X123379284Y-77800871D01*
X123379284Y-77800871D02*
X123343570Y-77729442D01*
X123343570Y-77729442D02*
X123343570Y-77336585D01*
X123343570Y-77729442D02*
X123307855Y-77800871D01*
X123307855Y-77800871D02*
X123236427Y-77836585D01*
X123236427Y-77836585D02*
X123129284Y-77836585D01*
X123129284Y-77836585D02*
X123057855Y-77800871D01*
X123057855Y-77800871D02*
X123022141Y-77729442D01*
X123022141Y-77729442D02*
X123022141Y-77336585D01*
X122664998Y-77336585D02*
X122664998Y-77836585D01*
X122664998Y-78086585D02*
X122700712Y-78050871D01*
X122700712Y-78050871D02*
X122664998Y-78015157D01*
X122664998Y-78015157D02*
X122629284Y-78050871D01*
X122629284Y-78050871D02*
X122664998Y-78086585D01*
X122664998Y-78086585D02*
X122664998Y-78015157D01*
X122307855Y-77836585D02*
X122307855Y-77336585D01*
X122307855Y-77765157D02*
X122272141Y-77800871D01*
X122272141Y-77800871D02*
X122200712Y-77836585D01*
X122200712Y-77836585D02*
X122093569Y-77836585D01*
X122093569Y-77836585D02*
X122022141Y-77800871D01*
X122022141Y-77800871D02*
X121986427Y-77729442D01*
X121986427Y-77729442D02*
X121986427Y-77336585D01*
X121307856Y-77336585D02*
X121307856Y-77729442D01*
X121307856Y-77729442D02*
X121343570Y-77800871D01*
X121343570Y-77800871D02*
X121414998Y-77836585D01*
X121414998Y-77836585D02*
X121557856Y-77836585D01*
X121557856Y-77836585D02*
X121629284Y-77800871D01*
X121307856Y-77372300D02*
X121379284Y-77336585D01*
X121379284Y-77336585D02*
X121557856Y-77336585D01*
X121557856Y-77336585D02*
X121629284Y-77372300D01*
X121629284Y-77372300D02*
X121664998Y-77443728D01*
X121664998Y-77443728D02*
X121664998Y-77515157D01*
X121664998Y-77515157D02*
X121629284Y-77586585D01*
X121629284Y-77586585D02*
X121557856Y-77622300D01*
X121557856Y-77622300D02*
X121379284Y-77622300D01*
X121379284Y-77622300D02*
X121307856Y-77658014D01*
X120843570Y-77336585D02*
X120914999Y-77372300D01*
X120914999Y-77372300D02*
X120950713Y-77443728D01*
X120950713Y-77443728D02*
X120950713Y-78086585D01*
X99935166Y-68139819D02*
X99935166Y-68854104D01*
X99935166Y-68854104D02*
X99887547Y-68996961D01*
X99887547Y-68996961D02*
X99792309Y-69092200D01*
X99792309Y-69092200D02*
X99649452Y-69139819D01*
X99649452Y-69139819D02*
X99554214Y-69139819D01*
X100887547Y-68139819D02*
X100411357Y-68139819D01*
X100411357Y-68139819D02*
X100363738Y-68616009D01*
X100363738Y-68616009D02*
X100411357Y-68568390D01*
X100411357Y-68568390D02*
X100506595Y-68520771D01*
X100506595Y-68520771D02*
X100744690Y-68520771D01*
X100744690Y-68520771D02*
X100839928Y-68568390D01*
X100839928Y-68568390D02*
X100887547Y-68616009D01*
X100887547Y-68616009D02*
X100935166Y-68711247D01*
X100935166Y-68711247D02*
X100935166Y-68949342D01*
X100935166Y-68949342D02*
X100887547Y-69044580D01*
X100887547Y-69044580D02*
X100839928Y-69092200D01*
X100839928Y-69092200D02*
X100744690Y-69139819D01*
X100744690Y-69139819D02*
X100506595Y-69139819D01*
X100506595Y-69139819D02*
X100411357Y-69092200D01*
X100411357Y-69092200D02*
X100363738Y-69044580D01*
X83681466Y-67974519D02*
X83681466Y-68688804D01*
X83681466Y-68688804D02*
X83633847Y-68831661D01*
X83633847Y-68831661D02*
X83538609Y-68926900D01*
X83538609Y-68926900D02*
X83395752Y-68974519D01*
X83395752Y-68974519D02*
X83300514Y-68974519D01*
X84062419Y-67974519D02*
X84681466Y-67974519D01*
X84681466Y-67974519D02*
X84348133Y-68355471D01*
X84348133Y-68355471D02*
X84490990Y-68355471D01*
X84490990Y-68355471D02*
X84586228Y-68403090D01*
X84586228Y-68403090D02*
X84633847Y-68450709D01*
X84633847Y-68450709D02*
X84681466Y-68545947D01*
X84681466Y-68545947D02*
X84681466Y-68784042D01*
X84681466Y-68784042D02*
X84633847Y-68879280D01*
X84633847Y-68879280D02*
X84586228Y-68926900D01*
X84586228Y-68926900D02*
X84490990Y-68974519D01*
X84490990Y-68974519D02*
X84205276Y-68974519D01*
X84205276Y-68974519D02*
X84110038Y-68926900D01*
X84110038Y-68926900D02*
X84062419Y-68879280D01*
X67638266Y-68131919D02*
X67638266Y-68846204D01*
X67638266Y-68846204D02*
X67590647Y-68989061D01*
X67590647Y-68989061D02*
X67495409Y-69084300D01*
X67495409Y-69084300D02*
X67352552Y-69131919D01*
X67352552Y-69131919D02*
X67257314Y-69131919D01*
X68638266Y-69131919D02*
X68066838Y-69131919D01*
X68352552Y-69131919D02*
X68352552Y-68131919D01*
X68352552Y-68131919D02*
X68257314Y-68274776D01*
X68257314Y-68274776D02*
X68162076Y-68370014D01*
X68162076Y-68370014D02*
X68066838Y-68417633D01*
X113118973Y-69988019D02*
X113118973Y-68988019D01*
X113118973Y-68988019D02*
X113452306Y-69702304D01*
X113452306Y-69702304D02*
X113785639Y-68988019D01*
X113785639Y-68988019D02*
X113785639Y-69988019D01*
X114404687Y-69416590D02*
X114309449Y-69368971D01*
X114309449Y-69368971D02*
X114261830Y-69321352D01*
X114261830Y-69321352D02*
X114214211Y-69226114D01*
X114214211Y-69226114D02*
X114214211Y-69178495D01*
X114214211Y-69178495D02*
X114261830Y-69083257D01*
X114261830Y-69083257D02*
X114309449Y-69035638D01*
X114309449Y-69035638D02*
X114404687Y-68988019D01*
X114404687Y-68988019D02*
X114595163Y-68988019D01*
X114595163Y-68988019D02*
X114690401Y-69035638D01*
X114690401Y-69035638D02*
X114738020Y-69083257D01*
X114738020Y-69083257D02*
X114785639Y-69178495D01*
X114785639Y-69178495D02*
X114785639Y-69226114D01*
X114785639Y-69226114D02*
X114738020Y-69321352D01*
X114738020Y-69321352D02*
X114690401Y-69368971D01*
X114690401Y-69368971D02*
X114595163Y-69416590D01*
X114595163Y-69416590D02*
X114404687Y-69416590D01*
X114404687Y-69416590D02*
X114309449Y-69464209D01*
X114309449Y-69464209D02*
X114261830Y-69511828D01*
X114261830Y-69511828D02*
X114214211Y-69607066D01*
X114214211Y-69607066D02*
X114214211Y-69797542D01*
X114214211Y-69797542D02*
X114261830Y-69892780D01*
X114261830Y-69892780D02*
X114309449Y-69940400D01*
X114309449Y-69940400D02*
X114404687Y-69988019D01*
X114404687Y-69988019D02*
X114595163Y-69988019D01*
X114595163Y-69988019D02*
X114690401Y-69940400D01*
X114690401Y-69940400D02*
X114738020Y-69892780D01*
X114738020Y-69892780D02*
X114785639Y-69797542D01*
X114785639Y-69797542D02*
X114785639Y-69607066D01*
X114785639Y-69607066D02*
X114738020Y-69511828D01*
X114738020Y-69511828D02*
X114690401Y-69464209D01*
X114690401Y-69464209D02*
X114595163Y-69416590D01*
X116549766Y-68041519D02*
X116549766Y-68755804D01*
X116549766Y-68755804D02*
X116502147Y-68898661D01*
X116502147Y-68898661D02*
X116406909Y-68993900D01*
X116406909Y-68993900D02*
X116264052Y-69041519D01*
X116264052Y-69041519D02*
X116168814Y-69041519D01*
X116930719Y-68041519D02*
X117597385Y-68041519D01*
X117597385Y-68041519D02*
X117168814Y-69041519D01*
X110309619Y-64816366D02*
X109833428Y-65149699D01*
X110309619Y-65387794D02*
X109309619Y-65387794D01*
X109309619Y-65387794D02*
X109309619Y-65006842D01*
X109309619Y-65006842D02*
X109357238Y-64911604D01*
X109357238Y-64911604D02*
X109404857Y-64863985D01*
X109404857Y-64863985D02*
X109500095Y-64816366D01*
X109500095Y-64816366D02*
X109642952Y-64816366D01*
X109642952Y-64816366D02*
X109738190Y-64863985D01*
X109738190Y-64863985D02*
X109785809Y-64911604D01*
X109785809Y-64911604D02*
X109833428Y-65006842D01*
X109833428Y-65006842D02*
X109833428Y-65387794D01*
X109642952Y-63959223D02*
X110309619Y-63959223D01*
X109262000Y-64197318D02*
X109976285Y-64435413D01*
X109976285Y-64435413D02*
X109976285Y-63816366D01*
X97166666Y-34379819D02*
X97166666Y-35094104D01*
X97166666Y-35094104D02*
X97119047Y-35236961D01*
X97119047Y-35236961D02*
X97023809Y-35332200D01*
X97023809Y-35332200D02*
X96880952Y-35379819D01*
X96880952Y-35379819D02*
X96785714Y-35379819D01*
X97785714Y-34808390D02*
X97690476Y-34760771D01*
X97690476Y-34760771D02*
X97642857Y-34713152D01*
X97642857Y-34713152D02*
X97595238Y-34617914D01*
X97595238Y-34617914D02*
X97595238Y-34570295D01*
X97595238Y-34570295D02*
X97642857Y-34475057D01*
X97642857Y-34475057D02*
X97690476Y-34427438D01*
X97690476Y-34427438D02*
X97785714Y-34379819D01*
X97785714Y-34379819D02*
X97976190Y-34379819D01*
X97976190Y-34379819D02*
X98071428Y-34427438D01*
X98071428Y-34427438D02*
X98119047Y-34475057D01*
X98119047Y-34475057D02*
X98166666Y-34570295D01*
X98166666Y-34570295D02*
X98166666Y-34617914D01*
X98166666Y-34617914D02*
X98119047Y-34713152D01*
X98119047Y-34713152D02*
X98071428Y-34760771D01*
X98071428Y-34760771D02*
X97976190Y-34808390D01*
X97976190Y-34808390D02*
X97785714Y-34808390D01*
X97785714Y-34808390D02*
X97690476Y-34856009D01*
X97690476Y-34856009D02*
X97642857Y-34903628D01*
X97642857Y-34903628D02*
X97595238Y-34998866D01*
X97595238Y-34998866D02*
X97595238Y-35189342D01*
X97595238Y-35189342D02*
X97642857Y-35284580D01*
X97642857Y-35284580D02*
X97690476Y-35332200D01*
X97690476Y-35332200D02*
X97785714Y-35379819D01*
X97785714Y-35379819D02*
X97976190Y-35379819D01*
X97976190Y-35379819D02*
X98071428Y-35332200D01*
X98071428Y-35332200D02*
X98119047Y-35284580D01*
X98119047Y-35284580D02*
X98166666Y-35189342D01*
X98166666Y-35189342D02*
X98166666Y-34998866D01*
X98166666Y-34998866D02*
X98119047Y-34903628D01*
X98119047Y-34903628D02*
X98071428Y-34856009D01*
X98071428Y-34856009D02*
X97976190Y-34808390D01*
X80916666Y-34404819D02*
X80916666Y-35119104D01*
X80916666Y-35119104D02*
X80869047Y-35261961D01*
X80869047Y-35261961D02*
X80773809Y-35357200D01*
X80773809Y-35357200D02*
X80630952Y-35404819D01*
X80630952Y-35404819D02*
X80535714Y-35404819D01*
X81821428Y-34404819D02*
X81630952Y-34404819D01*
X81630952Y-34404819D02*
X81535714Y-34452438D01*
X81535714Y-34452438D02*
X81488095Y-34500057D01*
X81488095Y-34500057D02*
X81392857Y-34642914D01*
X81392857Y-34642914D02*
X81345238Y-34833390D01*
X81345238Y-34833390D02*
X81345238Y-35214342D01*
X81345238Y-35214342D02*
X81392857Y-35309580D01*
X81392857Y-35309580D02*
X81440476Y-35357200D01*
X81440476Y-35357200D02*
X81535714Y-35404819D01*
X81535714Y-35404819D02*
X81726190Y-35404819D01*
X81726190Y-35404819D02*
X81821428Y-35357200D01*
X81821428Y-35357200D02*
X81869047Y-35309580D01*
X81869047Y-35309580D02*
X81916666Y-35214342D01*
X81916666Y-35214342D02*
X81916666Y-34976247D01*
X81916666Y-34976247D02*
X81869047Y-34881009D01*
X81869047Y-34881009D02*
X81821428Y-34833390D01*
X81821428Y-34833390D02*
X81726190Y-34785771D01*
X81726190Y-34785771D02*
X81535714Y-34785771D01*
X81535714Y-34785771D02*
X81440476Y-34833390D01*
X81440476Y-34833390D02*
X81392857Y-34881009D01*
X81392857Y-34881009D02*
X81345238Y-34976247D01*
X64416666Y-34404819D02*
X64416666Y-35119104D01*
X64416666Y-35119104D02*
X64369047Y-35261961D01*
X64369047Y-35261961D02*
X64273809Y-35357200D01*
X64273809Y-35357200D02*
X64130952Y-35404819D01*
X64130952Y-35404819D02*
X64035714Y-35404819D01*
X65321428Y-34738152D02*
X65321428Y-35404819D01*
X65083333Y-34357200D02*
X64845238Y-35071485D01*
X64845238Y-35071485D02*
X65464285Y-35071485D01*
X113916666Y-34404819D02*
X113916666Y-35119104D01*
X113916666Y-35119104D02*
X113869047Y-35261961D01*
X113869047Y-35261961D02*
X113773809Y-35357200D01*
X113773809Y-35357200D02*
X113630952Y-35404819D01*
X113630952Y-35404819D02*
X113535714Y-35404819D01*
X114345238Y-34500057D02*
X114392857Y-34452438D01*
X114392857Y-34452438D02*
X114488095Y-34404819D01*
X114488095Y-34404819D02*
X114726190Y-34404819D01*
X114726190Y-34404819D02*
X114821428Y-34452438D01*
X114821428Y-34452438D02*
X114869047Y-34500057D01*
X114869047Y-34500057D02*
X114916666Y-34595295D01*
X114916666Y-34595295D02*
X114916666Y-34690533D01*
X114916666Y-34690533D02*
X114869047Y-34833390D01*
X114869047Y-34833390D02*
X114297619Y-35404819D01*
X114297619Y-35404819D02*
X114916666Y-35404819D01*
D12*
%TO.C,J26*%
X74065000Y-99290000D02*
X75065000Y-98290000D01*
X74065000Y-108410000D02*
X74065000Y-99290000D01*
X74065000Y-108410000D02*
X76490000Y-108410000D01*
X75065000Y-98290000D02*
X85935000Y-98290000D01*
X78510000Y-108410000D02*
X79848233Y-108410000D01*
X81151767Y-108410000D02*
X82848233Y-108410000D01*
X85935000Y-98290000D02*
X86935000Y-99290000D01*
X86935000Y-99290000D02*
X86935000Y-108410000D01*
X86935000Y-108410000D02*
X84151767Y-108410000D01*
%TO.C,J16*%
X58490000Y-116060000D02*
X64460000Y-116060000D01*
X64460000Y-116060000D02*
X64460000Y-108440000D01*
X62200000Y-116050000D02*
X62200000Y-115300000D01*
X63700000Y-116050000D02*
X64450000Y-116050000D01*
X64450000Y-116050000D02*
X64450000Y-114250000D01*
X59250000Y-115300000D02*
X59250000Y-112250000D01*
X62200000Y-115300000D02*
X59250000Y-115300000D01*
X63700000Y-114250000D02*
X63700000Y-116050000D01*
X64450000Y-114250000D02*
X63700000Y-114250000D01*
X63700000Y-112750000D02*
X64450000Y-112750000D01*
X64450000Y-112750000D02*
X64450000Y-111750000D01*
X59250000Y-112250000D02*
X59250000Y-110260000D01*
X63700000Y-111750000D02*
X63700000Y-112750000D01*
X64450000Y-111750000D02*
X63700000Y-111750000D01*
X63700000Y-110250000D02*
X64450000Y-110250000D01*
X64450000Y-110250000D02*
X64450000Y-108450000D01*
X64750000Y-109400000D02*
X64750000Y-108150000D01*
X62200000Y-109200000D02*
X60860000Y-109200000D01*
X62200000Y-108450000D02*
X62200000Y-109200000D01*
X63700000Y-108450000D02*
X63700000Y-110250000D01*
X64450000Y-108450000D02*
X63700000Y-108450000D01*
X58490000Y-108440000D02*
X58490000Y-116060000D01*
X64460000Y-108440000D02*
X58490000Y-108440000D01*
X64750000Y-108150000D02*
X63500000Y-108150000D01*
%TO.C,J17*%
X64750000Y-97150000D02*
X63500000Y-97150000D01*
X64460000Y-97440000D02*
X58490000Y-97440000D01*
X58490000Y-97440000D02*
X58490000Y-105060000D01*
X64450000Y-97450000D02*
X63700000Y-97450000D01*
X63700000Y-97450000D02*
X63700000Y-99250000D01*
X62200000Y-97450000D02*
X62200000Y-98200000D01*
X62200000Y-98200000D02*
X60860000Y-98200000D01*
X64750000Y-98400000D02*
X64750000Y-97150000D01*
X64450000Y-99250000D02*
X64450000Y-97450000D01*
X63700000Y-99250000D02*
X64450000Y-99250000D01*
X64450000Y-100750000D02*
X63700000Y-100750000D01*
X63700000Y-100750000D02*
X63700000Y-101750000D01*
X59250000Y-101250000D02*
X59250000Y-99260000D01*
X64450000Y-101750000D02*
X64450000Y-100750000D01*
X63700000Y-101750000D02*
X64450000Y-101750000D01*
X64450000Y-103250000D02*
X63700000Y-103250000D01*
X63700000Y-103250000D02*
X63700000Y-105050000D01*
X62200000Y-104300000D02*
X59250000Y-104300000D01*
X59250000Y-104300000D02*
X59250000Y-101250000D01*
X64450000Y-105050000D02*
X64450000Y-103250000D01*
X63700000Y-105050000D02*
X64450000Y-105050000D01*
X62200000Y-105050000D02*
X62200000Y-104300000D01*
X64460000Y-105060000D02*
X64460000Y-97440000D01*
X58490000Y-105060000D02*
X64460000Y-105060000D01*
%TO.C,J18*%
X83150000Y-128250000D02*
X83150000Y-129500000D01*
X83440000Y-128540000D02*
X83440000Y-134510000D01*
X83440000Y-134510000D02*
X96060000Y-134510000D01*
X83450000Y-128550000D02*
X83450000Y-129300000D01*
X83450000Y-129300000D02*
X85250000Y-129300000D01*
X83450000Y-130800000D02*
X84200000Y-130800000D01*
X84200000Y-130800000D02*
X84200000Y-132140000D01*
X84400000Y-128250000D02*
X83150000Y-128250000D01*
X85250000Y-128550000D02*
X83450000Y-128550000D01*
X85250000Y-129300000D02*
X85250000Y-128550000D01*
X86750000Y-128550000D02*
X86750000Y-129300000D01*
X86750000Y-129300000D02*
X92750000Y-129300000D01*
X89750000Y-133750000D02*
X85260000Y-133750000D01*
X92750000Y-128550000D02*
X86750000Y-128550000D01*
X92750000Y-129300000D02*
X92750000Y-128550000D01*
X94250000Y-128550000D02*
X94250000Y-129300000D01*
X94250000Y-129300000D02*
X96050000Y-129300000D01*
X95300000Y-130800000D02*
X95300000Y-133750000D01*
X95300000Y-133750000D02*
X89750000Y-133750000D01*
X96050000Y-128550000D02*
X94250000Y-128550000D01*
X96050000Y-129300000D02*
X96050000Y-128550000D01*
X96050000Y-130800000D02*
X95300000Y-130800000D01*
X96060000Y-128540000D02*
X83440000Y-128540000D01*
X96060000Y-134510000D02*
X96060000Y-128540000D01*
%TO.C,J19*%
X103750000Y-110650000D02*
X102500000Y-110650000D01*
X103460000Y-110940000D02*
X97490000Y-110940000D01*
X97490000Y-110940000D02*
X97490000Y-126060000D01*
X103450000Y-110950000D02*
X102700000Y-110950000D01*
X102700000Y-110950000D02*
X102700000Y-112750000D01*
X101200000Y-110950000D02*
X101200000Y-111700000D01*
X101200000Y-111700000D02*
X99860000Y-111700000D01*
X103750000Y-111900000D02*
X103750000Y-110650000D01*
X103450000Y-112750000D02*
X103450000Y-110950000D01*
X102700000Y-112750000D02*
X103450000Y-112750000D01*
X103450000Y-114250000D02*
X102700000Y-114250000D01*
X102700000Y-114250000D02*
X102700000Y-122750000D01*
X98250000Y-118500000D02*
X98250000Y-112760000D01*
X103450000Y-122750000D02*
X103450000Y-114250000D01*
X102700000Y-122750000D02*
X103450000Y-122750000D01*
X103450000Y-124250000D02*
X102700000Y-124250000D01*
X102700000Y-124250000D02*
X102700000Y-126050000D01*
X101200000Y-125300000D02*
X98250000Y-125300000D01*
X98250000Y-125300000D02*
X98250000Y-118500000D01*
X103450000Y-126050000D02*
X103450000Y-124250000D01*
X102700000Y-126050000D02*
X103450000Y-126050000D01*
X101200000Y-126050000D02*
X101200000Y-125300000D01*
X103460000Y-126060000D02*
X103460000Y-110940000D01*
X97490000Y-126060000D02*
X103460000Y-126060000D01*
%TO.C,J25*%
X110110000Y-108670000D02*
X122870000Y-108670000D01*
X122870000Y-111330000D02*
X122870000Y-108670000D01*
X110110000Y-111330000D02*
X110110000Y-108670000D01*
X110110000Y-111330000D02*
X122870000Y-111330000D01*
X108840000Y-111330000D02*
X107510000Y-111330000D01*
X107510000Y-111330000D02*
X107510000Y-110000000D01*
%TO.C,ExtruderMotor1*%
X104010000Y-97340000D02*
X98040000Y-97340000D01*
X98040000Y-97340000D02*
X98040000Y-109960000D01*
X100300000Y-97350000D02*
X100300000Y-98100000D01*
X98800000Y-97350000D02*
X98050000Y-97350000D01*
X98050000Y-97350000D02*
X98050000Y-99150000D01*
X103250000Y-98100000D02*
X103250000Y-103650000D01*
X100300000Y-98100000D02*
X103250000Y-98100000D01*
X98800000Y-99150000D02*
X98800000Y-97350000D01*
X98050000Y-99150000D02*
X98800000Y-99150000D01*
X98800000Y-100650000D02*
X98050000Y-100650000D01*
X98050000Y-100650000D02*
X98050000Y-106650000D01*
X103250000Y-103650000D02*
X103250000Y-108140000D01*
X98800000Y-106650000D02*
X98800000Y-100650000D01*
X98050000Y-106650000D02*
X98800000Y-106650000D01*
X98800000Y-108150000D02*
X98050000Y-108150000D01*
X98050000Y-108150000D02*
X98050000Y-109950000D01*
X97750000Y-109000000D02*
X97750000Y-110250000D01*
X100300000Y-109200000D02*
X101640000Y-109200000D01*
X100300000Y-109950000D02*
X100300000Y-109200000D01*
X98800000Y-109950000D02*
X98800000Y-108150000D01*
X98050000Y-109950000D02*
X98800000Y-109950000D01*
X104010000Y-109960000D02*
X104010000Y-97340000D01*
X98040000Y-109960000D02*
X104010000Y-109960000D01*
X97750000Y-110250000D02*
X99000000Y-110250000D01*
%TO.C,J23*%
X127110000Y-108670000D02*
X139870000Y-108670000D01*
X139870000Y-111330000D02*
X139870000Y-108670000D01*
X127110000Y-111330000D02*
X127110000Y-108670000D01*
X127110000Y-111330000D02*
X139870000Y-111330000D01*
X125840000Y-111330000D02*
X124510000Y-111330000D01*
X124510000Y-111330000D02*
X124510000Y-110000000D01*
%TO.C,U2*%
X105650000Y-116990000D02*
X156450000Y-116990000D01*
X156450000Y-114450000D01*
X105650000Y-114450000D01*
X105650000Y-116990000D01*
X105650000Y-134770000D02*
X156450000Y-134770000D01*
X156450000Y-132230000D01*
X105650000Y-132230000D01*
X105650000Y-134770000D01*
X153910000Y-116990000D02*
X153910000Y-114450000D01*
X151370000Y-116990000D02*
X151370000Y-114450000D01*
X148830000Y-116990000D02*
X148830000Y-114450000D01*
X146290000Y-116990000D02*
X146290000Y-114450000D01*
X143750000Y-116990000D02*
X143750000Y-114450000D01*
X141210000Y-116990000D02*
X141210000Y-114450000D01*
X138670000Y-116990000D02*
X138670000Y-114450000D01*
X136130000Y-116990000D02*
X136130000Y-114450000D01*
X133590000Y-116990000D02*
X133590000Y-114450000D01*
X131050000Y-116990000D02*
X131050000Y-114450000D01*
X128510000Y-116990000D02*
X128510000Y-114450000D01*
X125970000Y-116990000D02*
X125970000Y-114450000D01*
X123430000Y-116990000D02*
X123430000Y-114450000D01*
X120890000Y-116990000D02*
X120890000Y-114450000D01*
X118350000Y-116990000D02*
X118350000Y-114450000D01*
X115810000Y-116990000D02*
X115810000Y-114450000D01*
X113270000Y-116990000D02*
X113270000Y-114450000D01*
X110730000Y-116990000D02*
X110730000Y-114450000D01*
X108190000Y-116990000D02*
X108190000Y-114450000D01*
X153910000Y-134770000D02*
X153910000Y-132230000D01*
X151370000Y-134770000D02*
X151370000Y-132230000D01*
X148830000Y-134770000D02*
X148830000Y-132230000D01*
X146290000Y-134770000D02*
X146290000Y-132230000D01*
X143750000Y-134770000D02*
X143750000Y-132230000D01*
X141210000Y-134770000D02*
X141210000Y-132230000D01*
X138670000Y-134770000D02*
X138670000Y-132230000D01*
X136130000Y-134770000D02*
X136130000Y-132230000D01*
X133590000Y-134770000D02*
X133590000Y-132230000D01*
X131050000Y-134770000D02*
X131050000Y-132230000D01*
X128510000Y-134770000D02*
X128510000Y-132230000D01*
X125970000Y-134770000D02*
X125970000Y-132230000D01*
X123430000Y-134770000D02*
X123430000Y-132230000D01*
X120890000Y-134770000D02*
X120890000Y-132230000D01*
X118350000Y-134770000D02*
X118350000Y-132230000D01*
X115810000Y-134770000D02*
X115810000Y-132230000D01*
X113270000Y-134770000D02*
X113270000Y-132230000D01*
X110730000Y-134770000D02*
X110730000Y-132230000D01*
X108190000Y-134770000D02*
X108190000Y-132230000D01*
%TO.C,J22*%
X143730000Y-108670000D02*
X156490000Y-108670000D01*
X156490000Y-111330000D02*
X156490000Y-108670000D01*
X143730000Y-111330000D02*
X143730000Y-108670000D01*
X143730000Y-111330000D02*
X156490000Y-111330000D01*
X142460000Y-111330000D02*
X141130000Y-111330000D01*
X141130000Y-111330000D02*
X141130000Y-110000000D01*
%TO.C,J24*%
X66170000Y-118970000D02*
X67500000Y-118970000D01*
X66170000Y-120300000D02*
X66170000Y-118970000D01*
X66170000Y-121570000D02*
X66170000Y-134330000D01*
X66170000Y-121570000D02*
X68830000Y-121570000D01*
X66170000Y-134330000D02*
X68830000Y-134330000D01*
X68830000Y-121570000D02*
X68830000Y-134330000D01*
%TO.C,R5*%
X132500000Y-77380000D02*
X132500000Y-78150000D01*
X133870000Y-78150000D02*
X131130000Y-78150000D01*
X131130000Y-78150000D02*
X131130000Y-84690000D01*
X133870000Y-84690000D02*
X133870000Y-78150000D01*
X131130000Y-84690000D02*
X133870000Y-84690000D01*
X132500000Y-85460000D02*
X132500000Y-84690000D01*
%TO.C,F1*%
X118500000Y-86820001D02*
X113700000Y-86820000D01*
X113700000Y-72020001D01*
X118500000Y-72019999D01*
X118500000Y-86820001D01*
D11*
%TO.C,C4*%
X100920000Y-77492000D02*
X100920000Y-78508000D01*
X101428000Y-78000000D02*
X100412000Y-78000000D01*
D13*
X106000000Y-74434000D02*
X106000000Y-73926000D01*
X106000000Y-81546000D02*
X106000000Y-82054000D01*
X107524000Y-75958000D02*
X108032000Y-75958000D01*
X107524000Y-80022000D02*
X108032000Y-80022000D01*
D14*
X112160000Y-78000000D02*
X112350000Y-78000000D01*
D13*
X106000000Y-81546000D02*
G75*
G02*
X107524000Y-80022000I1524000J0D01*
G01*
X107524000Y-75958000D02*
G75*
G02*
X106000000Y-74434000I0J1524000D01*
G01*
D12*
X112370000Y-77990000D02*
G75*
G02*
X99630000Y-77990000I-6370000J0D01*
G01*
X99630000Y-77990000D02*
G75*
G02*
X112370000Y-77990000I6370000J0D01*
G01*
D13*
X106000000Y-82054000D02*
X106060000Y-81292000D01*
X106187000Y-80911000D01*
X106314000Y-80657000D01*
X106949000Y-80149000D01*
X107076000Y-80149000D01*
X108032000Y-80022000D01*
X106000000Y-82054000D01*
G36*
X106000000Y-82054000D02*
G01*
X106060000Y-81292000D01*
X106187000Y-80911000D01*
X106314000Y-80657000D01*
X106949000Y-80149000D01*
X107076000Y-80149000D01*
X108032000Y-80022000D01*
X106000000Y-82054000D01*
G37*
X108032000Y-75958000D02*
X107270000Y-75898000D01*
X106889000Y-75771000D01*
X106635000Y-75644000D01*
X106127000Y-75009000D01*
X106127000Y-74882000D01*
X106000000Y-73926000D01*
X108032000Y-75958000D01*
G36*
X108032000Y-75958000D02*
G01*
X107270000Y-75898000D01*
X106889000Y-75771000D01*
X106635000Y-75644000D01*
X106127000Y-75009000D01*
X106127000Y-74882000D01*
X106000000Y-73926000D01*
X108032000Y-75958000D01*
G37*
X106822000Y-71767000D02*
X107838000Y-71894000D01*
X108981000Y-72402000D01*
X109997000Y-73037000D01*
X111140000Y-74307000D01*
X112029000Y-75958000D01*
X108032000Y-75958000D01*
X106000000Y-73926000D01*
X106000000Y-71620000D01*
X106822000Y-71767000D01*
G36*
X106822000Y-71767000D02*
G01*
X107838000Y-71894000D01*
X108981000Y-72402000D01*
X109997000Y-73037000D01*
X111140000Y-74307000D01*
X112029000Y-75958000D01*
X108032000Y-75958000D01*
X106000000Y-73926000D01*
X106000000Y-71620000D01*
X106822000Y-71767000D01*
G37*
X111140000Y-81673000D02*
X109997000Y-82943000D01*
X108981000Y-83578000D01*
X107838000Y-84086000D01*
X106822000Y-84213000D01*
X106000000Y-84360000D01*
X106000000Y-82054000D01*
X108006600Y-80022000D01*
X112003600Y-80022000D01*
X111140000Y-81673000D01*
G36*
X111140000Y-81673000D02*
G01*
X109997000Y-82943000D01*
X108981000Y-83578000D01*
X107838000Y-84086000D01*
X106822000Y-84213000D01*
X106000000Y-84360000D01*
X106000000Y-82054000D01*
X108006600Y-80022000D01*
X112003600Y-80022000D01*
X111140000Y-81673000D01*
G37*
D11*
%TO.C,C3*%
X97580000Y-78508000D02*
X97580000Y-77492000D01*
X97072000Y-78000000D02*
X98088000Y-78000000D01*
D13*
X92500000Y-81566000D02*
X92500000Y-82074000D01*
X92500000Y-74454000D02*
X92500000Y-73946000D01*
X90976000Y-80042000D02*
X90468000Y-80042000D01*
X90976000Y-75978000D02*
X90468000Y-75978000D01*
D14*
X86340000Y-78000000D02*
X86150000Y-78000000D01*
D13*
X92500000Y-74454000D02*
G75*
G02*
X90976000Y-75978000I-1524000J0D01*
G01*
X90976000Y-80042000D02*
G75*
G02*
X92500000Y-81566000I0J-1524000D01*
G01*
D12*
X98870000Y-78010000D02*
G75*
G02*
X86130000Y-78010000I-6370000J0D01*
G01*
X86130000Y-78010000D02*
G75*
G02*
X98870000Y-78010000I6370000J0D01*
G01*
D13*
X92440000Y-74708000D02*
X92313000Y-75089000D01*
X92186000Y-75343000D01*
X91551000Y-75851000D01*
X91424000Y-75851000D01*
X90468000Y-75978000D01*
X92500000Y-73946000D01*
X92440000Y-74708000D01*
G36*
X92440000Y-74708000D02*
G01*
X92313000Y-75089000D01*
X92186000Y-75343000D01*
X91551000Y-75851000D01*
X91424000Y-75851000D01*
X90468000Y-75978000D01*
X92500000Y-73946000D01*
X92440000Y-74708000D01*
G37*
X91230000Y-80102000D02*
X91611000Y-80229000D01*
X91865000Y-80356000D01*
X92373000Y-80991000D01*
X92373000Y-81118000D01*
X92500000Y-82074000D01*
X90468000Y-80042000D01*
X91230000Y-80102000D01*
G36*
X91230000Y-80102000D02*
G01*
X91611000Y-80229000D01*
X91865000Y-80356000D01*
X92373000Y-80991000D01*
X92373000Y-81118000D01*
X92500000Y-82074000D01*
X90468000Y-80042000D01*
X91230000Y-80102000D01*
G37*
X92500000Y-82074000D02*
X92500000Y-84380000D01*
X91678000Y-84233000D01*
X90662000Y-84106000D01*
X89519000Y-83598000D01*
X88503000Y-82963000D01*
X87360000Y-81693000D01*
X86471000Y-80042000D01*
X90468000Y-80042000D01*
X92500000Y-82074000D01*
G36*
X92500000Y-82074000D02*
G01*
X92500000Y-84380000D01*
X91678000Y-84233000D01*
X90662000Y-84106000D01*
X89519000Y-83598000D01*
X88503000Y-82963000D01*
X87360000Y-81693000D01*
X86471000Y-80042000D01*
X90468000Y-80042000D01*
X92500000Y-82074000D01*
G37*
X92500000Y-73946000D02*
X90493400Y-75978000D01*
X86496400Y-75978000D01*
X87360000Y-74327000D01*
X88503000Y-73057000D01*
X89519000Y-72422000D01*
X90662000Y-71914000D01*
X91678000Y-71787000D01*
X92500000Y-71640000D01*
X92500000Y-73946000D01*
G36*
X92500000Y-73946000D02*
G01*
X90493400Y-75978000D01*
X86496400Y-75978000D01*
X87360000Y-74327000D01*
X88503000Y-73057000D01*
X89519000Y-72422000D01*
X90662000Y-71914000D01*
X91678000Y-71787000D01*
X92500000Y-71640000D01*
X92500000Y-73946000D01*
G37*
D11*
%TO.C,C2*%
X73920000Y-77492000D02*
X73920000Y-78508000D01*
X74428000Y-78000000D02*
X73412000Y-78000000D01*
D13*
X79000000Y-74434000D02*
X79000000Y-73926000D01*
X79000000Y-81546000D02*
X79000000Y-82054000D01*
X80524000Y-75958000D02*
X81032000Y-75958000D01*
X80524000Y-80022000D02*
X81032000Y-80022000D01*
D14*
X85160000Y-78000000D02*
X85350000Y-78000000D01*
D13*
X79000000Y-81546000D02*
G75*
G02*
X80524000Y-80022000I1524000J0D01*
G01*
X80524000Y-75958000D02*
G75*
G02*
X79000000Y-74434000I0J1524000D01*
G01*
D12*
X85370000Y-77990000D02*
G75*
G02*
X72630000Y-77990000I-6370000J0D01*
G01*
X72630000Y-77990000D02*
G75*
G02*
X85370000Y-77990000I6370000J0D01*
G01*
D13*
X79000000Y-82054000D02*
X79060000Y-81292000D01*
X79187000Y-80911000D01*
X79314000Y-80657000D01*
X79949000Y-80149000D01*
X80076000Y-80149000D01*
X81032000Y-80022000D01*
X79000000Y-82054000D01*
G36*
X79000000Y-82054000D02*
G01*
X79060000Y-81292000D01*
X79187000Y-80911000D01*
X79314000Y-80657000D01*
X79949000Y-80149000D01*
X80076000Y-80149000D01*
X81032000Y-80022000D01*
X79000000Y-82054000D01*
G37*
X81032000Y-75958000D02*
X80270000Y-75898000D01*
X79889000Y-75771000D01*
X79635000Y-75644000D01*
X79127000Y-75009000D01*
X79127000Y-74882000D01*
X79000000Y-73926000D01*
X81032000Y-75958000D01*
G36*
X81032000Y-75958000D02*
G01*
X80270000Y-75898000D01*
X79889000Y-75771000D01*
X79635000Y-75644000D01*
X79127000Y-75009000D01*
X79127000Y-74882000D01*
X79000000Y-73926000D01*
X81032000Y-75958000D01*
G37*
X79822000Y-71767000D02*
X80838000Y-71894000D01*
X81981000Y-72402000D01*
X82997000Y-73037000D01*
X84140000Y-74307000D01*
X85029000Y-75958000D01*
X81032000Y-75958000D01*
X79000000Y-73926000D01*
X79000000Y-71620000D01*
X79822000Y-71767000D01*
G36*
X79822000Y-71767000D02*
G01*
X80838000Y-71894000D01*
X81981000Y-72402000D01*
X82997000Y-73037000D01*
X84140000Y-74307000D01*
X85029000Y-75958000D01*
X81032000Y-75958000D01*
X79000000Y-73926000D01*
X79000000Y-71620000D01*
X79822000Y-71767000D01*
G37*
X84140000Y-81673000D02*
X82997000Y-82943000D01*
X81981000Y-83578000D01*
X80838000Y-84086000D01*
X79822000Y-84213000D01*
X79000000Y-84360000D01*
X79000000Y-82054000D01*
X81006600Y-80022000D01*
X85003600Y-80022000D01*
X84140000Y-81673000D01*
G36*
X84140000Y-81673000D02*
G01*
X82997000Y-82943000D01*
X81981000Y-83578000D01*
X80838000Y-84086000D01*
X79822000Y-84213000D01*
X79000000Y-84360000D01*
X79000000Y-82054000D01*
X81006600Y-80022000D01*
X85003600Y-80022000D01*
X84140000Y-81673000D01*
G37*
D11*
%TO.C,C1*%
X70580000Y-78508000D02*
X70580000Y-77492000D01*
X70072000Y-78000000D02*
X71088000Y-78000000D01*
D13*
X65500000Y-81566000D02*
X65500000Y-82074000D01*
X65500000Y-74454000D02*
X65500000Y-73946000D01*
X63976000Y-80042000D02*
X63468000Y-80042000D01*
X63976000Y-75978000D02*
X63468000Y-75978000D01*
D14*
X59340000Y-78000000D02*
X59150000Y-78000000D01*
D13*
X65500000Y-74454000D02*
G75*
G02*
X63976000Y-75978000I-1524000J0D01*
G01*
X63976000Y-80042000D02*
G75*
G02*
X65500000Y-81566000I0J-1524000D01*
G01*
D12*
X71870000Y-78010000D02*
G75*
G02*
X59130000Y-78010000I-6370000J0D01*
G01*
X59130000Y-78010000D02*
G75*
G02*
X71870000Y-78010000I6370000J0D01*
G01*
D13*
X65440000Y-74708000D02*
X65313000Y-75089000D01*
X65186000Y-75343000D01*
X64551000Y-75851000D01*
X64424000Y-75851000D01*
X63468000Y-75978000D01*
X65500000Y-73946000D01*
X65440000Y-74708000D01*
G36*
X65440000Y-74708000D02*
G01*
X65313000Y-75089000D01*
X65186000Y-75343000D01*
X64551000Y-75851000D01*
X64424000Y-75851000D01*
X63468000Y-75978000D01*
X65500000Y-73946000D01*
X65440000Y-74708000D01*
G37*
X64230000Y-80102000D02*
X64611000Y-80229000D01*
X64865000Y-80356000D01*
X65373000Y-80991000D01*
X65373000Y-81118000D01*
X65500000Y-82074000D01*
X63468000Y-80042000D01*
X64230000Y-80102000D01*
G36*
X64230000Y-80102000D02*
G01*
X64611000Y-80229000D01*
X64865000Y-80356000D01*
X65373000Y-80991000D01*
X65373000Y-81118000D01*
X65500000Y-82074000D01*
X63468000Y-80042000D01*
X64230000Y-80102000D01*
G37*
X65500000Y-82074000D02*
X65500000Y-84380000D01*
X64678000Y-84233000D01*
X63662000Y-84106000D01*
X62519000Y-83598000D01*
X61503000Y-82963000D01*
X60360000Y-81693000D01*
X59471000Y-80042000D01*
X63468000Y-80042000D01*
X65500000Y-82074000D01*
G36*
X65500000Y-82074000D02*
G01*
X65500000Y-84380000D01*
X64678000Y-84233000D01*
X63662000Y-84106000D01*
X62519000Y-83598000D01*
X61503000Y-82963000D01*
X60360000Y-81693000D01*
X59471000Y-80042000D01*
X63468000Y-80042000D01*
X65500000Y-82074000D01*
G37*
X65500000Y-73946000D02*
X63493400Y-75978000D01*
X59496400Y-75978000D01*
X60360000Y-74327000D01*
X61503000Y-73057000D01*
X62519000Y-72422000D01*
X63662000Y-71914000D01*
X64678000Y-71787000D01*
X65500000Y-71640000D01*
X65500000Y-73946000D01*
G36*
X65500000Y-73946000D02*
G01*
X63493400Y-75978000D01*
X59496400Y-75978000D01*
X60360000Y-74327000D01*
X61503000Y-73057000D01*
X62519000Y-72422000D01*
X63662000Y-71914000D01*
X64678000Y-71787000D01*
X65500000Y-71640000D01*
X65500000Y-73946000D01*
G37*
D12*
%TO.C,U1*%
X136340000Y-38640000D02*
X138880000Y-38640000D01*
X136340000Y-41180000D02*
X138880000Y-41180000D01*
X136340000Y-43720000D02*
X138880000Y-43720000D01*
X136340000Y-46260000D02*
X138880000Y-46260000D01*
X136340000Y-48800000D02*
X138880000Y-48800000D01*
X136340000Y-51340000D02*
X138880000Y-51340000D01*
X136340000Y-53880000D02*
X138880000Y-53880000D01*
X136340000Y-56420000D02*
X138880000Y-56420000D01*
X136340000Y-58960000D02*
X138880000Y-58960000D01*
X136340000Y-61500000D02*
X138880000Y-61500000D01*
X136340000Y-64040000D02*
X138880000Y-64040000D01*
X136340000Y-66580000D02*
X138880000Y-66580000D01*
X136340000Y-69120000D02*
X138880000Y-69120000D01*
X136340000Y-71660000D02*
X138880000Y-71660000D01*
X136340000Y-74200000D02*
X138880000Y-74200000D01*
X136340000Y-76740000D02*
X138880000Y-76740000D01*
X136340000Y-79280000D02*
X138880000Y-79280000D01*
X136340000Y-81820000D02*
X138880000Y-81820000D01*
X136340000Y-84360000D02*
X138880000Y-84360000D01*
X154120000Y-38640000D02*
X156660000Y-38640000D01*
X154120000Y-41180000D02*
X156660000Y-41180000D01*
X154120000Y-43720000D02*
X156660000Y-43720000D01*
X154120000Y-46260000D02*
X156660000Y-46260000D01*
X154120000Y-48800000D02*
X156660000Y-48800000D01*
X154120000Y-51340000D02*
X156660000Y-51340000D01*
X154120000Y-53880000D02*
X156660000Y-53880000D01*
X154120000Y-56420000D02*
X156660000Y-56420000D01*
X154120000Y-58960000D02*
X156660000Y-58960000D01*
X154120000Y-61500000D02*
X156660000Y-61500000D01*
X154120000Y-64040000D02*
X156660000Y-64040000D01*
X154120000Y-66580000D02*
X156660000Y-66580000D01*
X154120000Y-69120000D02*
X156660000Y-69120000D01*
X154120000Y-71660000D02*
X156660000Y-71660000D01*
X154120000Y-74200000D02*
X156660000Y-74200000D01*
X154120000Y-76740000D02*
X156660000Y-76740000D01*
X154120000Y-79280000D02*
X156660000Y-79280000D01*
X154120000Y-81820000D02*
X156660000Y-81820000D01*
X154120000Y-84360000D02*
X156660000Y-84360000D01*
X136340000Y-36100000D02*
X138880000Y-36100000D01*
X138880000Y-86900000D01*
X136340000Y-86900000D01*
X136340000Y-36100000D01*
X154120000Y-36100000D02*
X156660000Y-36100000D01*
X156660000Y-86900000D01*
X154120000Y-86900000D01*
X154120000Y-36100000D01*
%TO.C,M6*%
X106381700Y-71062300D02*
X106381700Y-69662300D01*
X106381700Y-68392300D02*
X106381700Y-50482300D01*
X106381700Y-50482300D02*
X90881700Y-50482300D01*
X104981700Y-71062300D02*
X106381700Y-71062300D01*
X103711700Y-71062300D02*
X103711700Y-68392300D01*
X103711700Y-68392300D02*
X106381700Y-68392300D01*
X103711700Y-68392300D02*
X103711700Y-50482300D01*
X103711700Y-68392300D02*
X98631700Y-68392300D01*
X98631700Y-68392300D02*
X98631700Y-71059300D01*
X93551700Y-71062300D02*
X93551700Y-50482300D01*
X90881700Y-71062300D02*
X103711700Y-71062300D01*
X90881700Y-50482300D02*
X90881700Y-71062300D01*
%TO.C,M5*%
X103051700Y-58732300D02*
X101781700Y-58732300D01*
X103051700Y-57462300D02*
X103051700Y-58732300D01*
X103051700Y-56192300D02*
X100511700Y-56192300D01*
X103051700Y-51112300D02*
X103051700Y-56192300D01*
X103051700Y-51112300D02*
X95431700Y-51112300D01*
X100511700Y-58732300D02*
X100511700Y-56192300D01*
X100511700Y-58732300D02*
X95431700Y-58732300D01*
X95431700Y-58732300D02*
X95431700Y-51112300D01*
%TO.C,M4*%
X90024800Y-70939700D02*
X90024800Y-69539700D01*
X90024800Y-68269700D02*
X90024800Y-50359700D01*
X90024800Y-50359700D02*
X74524800Y-50359700D01*
X88624800Y-70939700D02*
X90024800Y-70939700D01*
X87354800Y-70939700D02*
X87354800Y-68269700D01*
X87354800Y-68269700D02*
X90024800Y-68269700D01*
X87354800Y-68269700D02*
X87354800Y-50359700D01*
X87354800Y-68269700D02*
X82274800Y-68269700D01*
X82274800Y-68269700D02*
X82274800Y-70936700D01*
X77194800Y-70939700D02*
X77194800Y-50359700D01*
X74524800Y-70939700D02*
X87354800Y-70939700D01*
X74524800Y-50359700D02*
X74524800Y-70939700D01*
%TO.C,M3*%
X86634800Y-58419700D02*
X85364800Y-58419700D01*
X86634800Y-57149700D02*
X86634800Y-58419700D01*
X86634800Y-55879700D02*
X84094800Y-55879700D01*
X86634800Y-50799700D02*
X86634800Y-55879700D01*
X86634800Y-50799700D02*
X79014800Y-50799700D01*
X84094800Y-58419700D02*
X84094800Y-55879700D01*
X84094800Y-58419700D02*
X79014800Y-58419700D01*
X79014800Y-58419700D02*
X79014800Y-50799700D01*
%TO.C,M2*%
X73860800Y-70935600D02*
X73860800Y-69535600D01*
X73860800Y-68265600D02*
X73860800Y-50355600D01*
X73860800Y-50355600D02*
X58360800Y-50355600D01*
X72460800Y-70935600D02*
X73860800Y-70935600D01*
X71190800Y-70935600D02*
X71190800Y-68265600D01*
X71190800Y-68265600D02*
X73860800Y-68265600D01*
X71190800Y-68265600D02*
X71190800Y-50355600D01*
X71190800Y-68265600D02*
X66110800Y-68265600D01*
X66110800Y-68265600D02*
X66110800Y-70932600D01*
X61030800Y-70935600D02*
X61030800Y-50355600D01*
X58360800Y-70935600D02*
X71190800Y-70935600D01*
X58360800Y-50355600D02*
X58360800Y-70935600D01*
%TO.C,M1*%
X70806800Y-58467500D02*
X69536800Y-58467500D01*
X70806800Y-57197500D02*
X70806800Y-58467500D01*
X70806800Y-55927500D02*
X68266800Y-55927500D01*
X70806800Y-50847500D02*
X70806800Y-55927500D01*
X70806800Y-50847500D02*
X63186800Y-50847500D01*
X68266800Y-58467500D02*
X68266800Y-55927500D01*
X68266800Y-58467500D02*
X63186800Y-58467500D01*
X63186800Y-58467500D02*
X63186800Y-50847500D01*
%TO.C,J13*%
X107650000Y-42750000D02*
X107650000Y-44000000D01*
X107940000Y-43040000D02*
X107940000Y-49010000D01*
X107940000Y-49010000D02*
X118060000Y-49010000D01*
X107950000Y-43050000D02*
X107950000Y-43800000D01*
X107950000Y-43800000D02*
X109750000Y-43800000D01*
X107950000Y-45300000D02*
X108700000Y-45300000D01*
X108700000Y-45300000D02*
X108700000Y-48250000D01*
X108700000Y-48250000D02*
X113000000Y-48250000D01*
X108900000Y-42750000D02*
X107650000Y-42750000D01*
X109750000Y-43050000D02*
X107950000Y-43050000D01*
X109750000Y-43800000D02*
X109750000Y-43050000D01*
X111250000Y-43050000D02*
X111250000Y-43800000D01*
X111250000Y-43800000D02*
X114750000Y-43800000D01*
X114750000Y-43050000D02*
X111250000Y-43050000D01*
X114750000Y-43800000D02*
X114750000Y-43050000D01*
X116250000Y-43050000D02*
X116250000Y-43800000D01*
X116250000Y-43800000D02*
X118050000Y-43800000D01*
X117300000Y-45300000D02*
X117300000Y-48250000D01*
X117300000Y-48250000D02*
X113000000Y-48250000D01*
X118050000Y-43050000D02*
X116250000Y-43050000D01*
X118050000Y-43800000D02*
X118050000Y-43050000D01*
X118050000Y-45300000D02*
X117300000Y-45300000D01*
X118060000Y-43040000D02*
X107940000Y-43040000D01*
X118060000Y-49010000D02*
X118060000Y-43040000D01*
%TO.C,J12*%
X74650000Y-42750000D02*
X74650000Y-44000000D01*
X74940000Y-43040000D02*
X74940000Y-49010000D01*
X74940000Y-49010000D02*
X85060000Y-49010000D01*
X74950000Y-43050000D02*
X74950000Y-43800000D01*
X74950000Y-43800000D02*
X76750000Y-43800000D01*
X74950000Y-45300000D02*
X75700000Y-45300000D01*
X75700000Y-45300000D02*
X75700000Y-48250000D01*
X75700000Y-48250000D02*
X80000000Y-48250000D01*
X75900000Y-42750000D02*
X74650000Y-42750000D01*
X76750000Y-43050000D02*
X74950000Y-43050000D01*
X76750000Y-43800000D02*
X76750000Y-43050000D01*
X78250000Y-43050000D02*
X78250000Y-43800000D01*
X78250000Y-43800000D02*
X81750000Y-43800000D01*
X81750000Y-43050000D02*
X78250000Y-43050000D01*
X81750000Y-43800000D02*
X81750000Y-43050000D01*
X83250000Y-43050000D02*
X83250000Y-43800000D01*
X83250000Y-43800000D02*
X85050000Y-43800000D01*
X84300000Y-45300000D02*
X84300000Y-48250000D01*
X84300000Y-48250000D02*
X80000000Y-48250000D01*
X85050000Y-43050000D02*
X83250000Y-43050000D01*
X85050000Y-43800000D02*
X85050000Y-43050000D01*
X85050000Y-45300000D02*
X84300000Y-45300000D01*
X85060000Y-43040000D02*
X74940000Y-43040000D01*
X85060000Y-49010000D02*
X85060000Y-43040000D01*
%TO.C,J11*%
X90900000Y-42725000D02*
X90900000Y-43975000D01*
X91190000Y-43015000D02*
X91190000Y-48985000D01*
X91190000Y-48985000D02*
X101310000Y-48985000D01*
X91200000Y-43025000D02*
X91200000Y-43775000D01*
X91200000Y-43775000D02*
X93000000Y-43775000D01*
X91200000Y-45275000D02*
X91950000Y-45275000D01*
X91950000Y-45275000D02*
X91950000Y-48225000D01*
X91950000Y-48225000D02*
X96250000Y-48225000D01*
X92150000Y-42725000D02*
X90900000Y-42725000D01*
X93000000Y-43025000D02*
X91200000Y-43025000D01*
X93000000Y-43775000D02*
X93000000Y-43025000D01*
X94500000Y-43025000D02*
X94500000Y-43775000D01*
X94500000Y-43775000D02*
X98000000Y-43775000D01*
X98000000Y-43025000D02*
X94500000Y-43025000D01*
X98000000Y-43775000D02*
X98000000Y-43025000D01*
X99500000Y-43025000D02*
X99500000Y-43775000D01*
X99500000Y-43775000D02*
X101300000Y-43775000D01*
X100550000Y-45275000D02*
X100550000Y-48225000D01*
X100550000Y-48225000D02*
X96250000Y-48225000D01*
X101300000Y-43025000D02*
X99500000Y-43025000D01*
X101300000Y-43775000D02*
X101300000Y-43025000D01*
X101300000Y-45275000D02*
X100550000Y-45275000D01*
X101310000Y-43015000D02*
X91190000Y-43015000D01*
X101310000Y-48985000D02*
X101310000Y-43015000D01*
%TO.C,J10*%
X58150000Y-42750000D02*
X58150000Y-44000000D01*
X58440000Y-43040000D02*
X58440000Y-49010000D01*
X58440000Y-49010000D02*
X68560000Y-49010000D01*
X58450000Y-43050000D02*
X58450000Y-43800000D01*
X58450000Y-43800000D02*
X60250000Y-43800000D01*
X58450000Y-45300000D02*
X59200000Y-45300000D01*
X59200000Y-45300000D02*
X59200000Y-48250000D01*
X59200000Y-48250000D02*
X63500000Y-48250000D01*
X59400000Y-42750000D02*
X58150000Y-42750000D01*
X60250000Y-43050000D02*
X58450000Y-43050000D01*
X60250000Y-43800000D02*
X60250000Y-43050000D01*
X61750000Y-43050000D02*
X61750000Y-43800000D01*
X61750000Y-43800000D02*
X65250000Y-43800000D01*
X65250000Y-43050000D02*
X61750000Y-43050000D01*
X65250000Y-43800000D02*
X65250000Y-43050000D01*
X66750000Y-43050000D02*
X66750000Y-43800000D01*
X66750000Y-43800000D02*
X68550000Y-43800000D01*
X67800000Y-45300000D02*
X67800000Y-48250000D01*
X67800000Y-48250000D02*
X63500000Y-48250000D01*
X68550000Y-43050000D02*
X66750000Y-43050000D01*
X68550000Y-43800000D02*
X68550000Y-43050000D01*
X68550000Y-45300000D02*
X67800000Y-45300000D01*
X68560000Y-43040000D02*
X58440000Y-43040000D01*
X68560000Y-49010000D02*
X68560000Y-43040000D01*
%TO.C,R3*%
X95281700Y-68882300D02*
X95281700Y-68112300D01*
X93911700Y-68112300D02*
X96651700Y-68112300D01*
X96651700Y-68112300D02*
X96651700Y-61572300D01*
X93911700Y-61572300D02*
X93911700Y-68112300D01*
X96651700Y-61572300D02*
X93911700Y-61572300D01*
X95281700Y-60802300D02*
X95281700Y-61572300D01*
%TO.C,R2*%
X79284800Y-68689700D02*
X79284800Y-67919700D01*
X77914800Y-67919700D02*
X80654800Y-67919700D01*
X80654800Y-67919700D02*
X80654800Y-61379700D01*
X77914800Y-61379700D02*
X77914800Y-67919700D01*
X80654800Y-61379700D02*
X77914800Y-61379700D01*
X79284800Y-60609700D02*
X79284800Y-61379700D01*
%TO.C,R1*%
X63241600Y-60941600D02*
X63241600Y-61711600D01*
X64611600Y-61711600D02*
X61871600Y-61711600D01*
X61871600Y-61711600D02*
X61871600Y-68251600D01*
X64611600Y-68251600D02*
X64611600Y-61711600D01*
X61871600Y-68251600D02*
X64611600Y-68251600D01*
X63241600Y-69021600D02*
X63241600Y-68251600D01*
%TO.C,J21*%
X72170000Y-121550000D02*
X73500000Y-121550000D01*
X72170000Y-122880000D02*
X72170000Y-121550000D01*
X72170000Y-124150000D02*
X72170000Y-134370000D01*
X72170000Y-124150000D02*
X74830000Y-124150000D01*
X72170000Y-134370000D02*
X74830000Y-134370000D01*
X74830000Y-124150000D02*
X74830000Y-134370000D01*
%TO.C,J20*%
X76170000Y-121550000D02*
X77500000Y-121550000D01*
X76170000Y-122880000D02*
X76170000Y-121550000D01*
X76170000Y-124150000D02*
X76170000Y-134370000D01*
X76170000Y-124150000D02*
X78830000Y-124150000D01*
X76170000Y-134370000D02*
X78830000Y-134370000D01*
X78830000Y-124150000D02*
X78830000Y-134370000D01*
%TO.C,J15*%
X62170000Y-119010000D02*
X63500000Y-119010000D01*
X62170000Y-120340000D02*
X62170000Y-119010000D01*
X62170000Y-121610000D02*
X62170000Y-134370000D01*
X62170000Y-121610000D02*
X64830000Y-121610000D01*
X62170000Y-134370000D02*
X64830000Y-134370000D01*
X64830000Y-121610000D02*
X64830000Y-134370000D01*
%TO.C,J14*%
X58170000Y-118970000D02*
X59500000Y-118970000D01*
X58170000Y-120300000D02*
X58170000Y-118970000D01*
X58170000Y-121570000D02*
X58170000Y-134330000D01*
X58170000Y-121570000D02*
X60830000Y-121570000D01*
X58170000Y-134330000D02*
X60830000Y-134330000D01*
X60830000Y-121570000D02*
X60830000Y-134330000D01*
%TO.C,J9*%
X119660000Y-85780000D02*
X119660000Y-86520000D01*
X119660000Y-86520000D02*
X120160000Y-86520000D01*
X119900000Y-74960000D02*
X119900000Y-86280000D01*
X119900000Y-74960000D02*
X130180000Y-74960000D01*
X119900000Y-77020000D02*
X130180000Y-77020000D01*
X119900000Y-83220000D02*
X130180000Y-83220000D01*
X119900000Y-85720000D02*
X130180000Y-85720000D01*
X119900000Y-86280000D02*
X130180000Y-86280000D01*
X120952000Y-82201000D02*
X120846000Y-82308000D01*
X121218000Y-82467000D02*
X121112000Y-82574000D01*
X123888000Y-79266000D02*
X123781000Y-79373000D01*
X124154000Y-79532000D02*
X124047000Y-79639000D01*
D15*
X125040000Y-83587000D02*
X125040000Y-85301500D01*
X125040000Y-85301500D02*
X124405000Y-84603000D01*
X125675000Y-84603000D02*
X125040000Y-85301500D01*
D12*
X126322000Y-81912000D02*
X125927000Y-82308000D01*
X126573000Y-82194000D02*
X126193000Y-82574000D01*
X128968000Y-79266000D02*
X128588000Y-79646000D01*
X129234000Y-79532000D02*
X128839000Y-79928000D01*
X130180000Y-74960000D02*
X130180000Y-86280000D01*
X124680000Y-80920000D02*
G75*
G02*
X120320000Y-80920000I-2180000J0D01*
G01*
X120320000Y-80920000D02*
G75*
G02*
X124680000Y-80920000I2180000J0D01*
G01*
X129760000Y-80920000D02*
G75*
G02*
X125400000Y-80920000I-2180000J0D01*
G01*
X125400000Y-80920000D02*
G75*
G02*
X129760000Y-80920000I2180000J0D01*
G01*
%TO.C,J5*%
X102868500Y-67685000D02*
X101538500Y-67685000D01*
X102868500Y-66355000D02*
X102868500Y-67685000D01*
X102868500Y-65085000D02*
X102868500Y-59945000D01*
X102868500Y-65085000D02*
X100268500Y-65085000D01*
X102868500Y-59945000D02*
X97668500Y-59945000D01*
X100268500Y-67685000D02*
X97668500Y-67685000D01*
X100268500Y-65085000D02*
X100268500Y-67685000D01*
X97668500Y-67685000D02*
X97668500Y-59945000D01*
%TO.C,J3*%
X86614800Y-67519700D02*
X85284800Y-67519700D01*
X86614800Y-66189700D02*
X86614800Y-67519700D01*
X86614800Y-64919700D02*
X86614800Y-59779700D01*
X86614800Y-64919700D02*
X84014800Y-64919700D01*
X86614800Y-59779700D02*
X81414800Y-59779700D01*
X84014800Y-67519700D02*
X81414800Y-67519700D01*
X84014800Y-64919700D02*
X84014800Y-67519700D01*
X81414800Y-67519700D02*
X81414800Y-59779700D01*
%TO.C,J1*%
X70571600Y-67677100D02*
X69241600Y-67677100D01*
X70571600Y-66347100D02*
X70571600Y-67677100D01*
X70571600Y-65077100D02*
X70571600Y-59937100D01*
X70571600Y-65077100D02*
X67971600Y-65077100D01*
X70571600Y-59937100D02*
X65371600Y-59937100D01*
X67971600Y-67677100D02*
X65371600Y-67677100D01*
X67971600Y-65077100D02*
X67971600Y-67677100D01*
X65371600Y-67677100D02*
X65371600Y-59937100D01*
%TO.C,M8*%
X122824800Y-70869700D02*
X122824800Y-69469700D01*
X122824800Y-68199700D02*
X122824800Y-50289700D01*
X122824800Y-50289700D02*
X107324800Y-50289700D01*
X121424800Y-70869700D02*
X122824800Y-70869700D01*
X120154800Y-70869700D02*
X120154800Y-68199700D01*
X120154800Y-68199700D02*
X122824800Y-68199700D01*
X120154800Y-68199700D02*
X120154800Y-50289700D01*
X120154800Y-68199700D02*
X115074800Y-68199700D01*
X115074800Y-68199700D02*
X115074800Y-70866700D01*
X109994800Y-70869700D02*
X109994800Y-50289700D01*
X107324800Y-70869700D02*
X120154800Y-70869700D01*
X107324800Y-50289700D02*
X107324800Y-70869700D01*
%TO.C,M7*%
X119777100Y-58355400D02*
X118507100Y-58355400D01*
X119777100Y-57085400D02*
X119777100Y-58355400D01*
X119777100Y-55815400D02*
X117237100Y-55815400D01*
X119777100Y-50735400D02*
X119777100Y-55815400D01*
X119777100Y-50735400D02*
X112157100Y-50735400D01*
X117237100Y-58355400D02*
X117237100Y-55815400D01*
X117237100Y-58355400D02*
X112157100Y-58355400D01*
X112157100Y-58355400D02*
X112157100Y-50735400D01*
%TO.C,J7*%
X119483100Y-67586700D02*
X118153100Y-67586700D01*
X119483100Y-66256700D02*
X119483100Y-67586700D01*
X119483100Y-64986700D02*
X119483100Y-59846700D01*
X119483100Y-64986700D02*
X116883100Y-64986700D01*
X119483100Y-59846700D02*
X114283100Y-59846700D01*
X116883100Y-67586700D02*
X114283100Y-67586700D01*
X116883100Y-64986700D02*
X116883100Y-67586700D01*
X114283100Y-67586700D02*
X114283100Y-59846700D01*
%TO.C,R4*%
X112224800Y-68689700D02*
X112224800Y-67919700D01*
X110854800Y-67919700D02*
X113594800Y-67919700D01*
X113594800Y-67919700D02*
X113594800Y-61379700D01*
X110854800Y-61379700D02*
X110854800Y-67919700D01*
X113594800Y-61379700D02*
X110854800Y-61379700D01*
X112224800Y-60609700D02*
X112224800Y-61379700D01*
%TO.C,J8*%
X90900000Y-35725000D02*
X90900000Y-36975000D01*
X91190000Y-36015000D02*
X91190000Y-41985000D01*
X91190000Y-41985000D02*
X103810000Y-41985000D01*
X91200000Y-36025000D02*
X91200000Y-36775000D01*
X91200000Y-36775000D02*
X93000000Y-36775000D01*
X91200000Y-38275000D02*
X91950000Y-38275000D01*
X91950000Y-38275000D02*
X91950000Y-39615000D01*
X92150000Y-35725000D02*
X90900000Y-35725000D01*
X93000000Y-36025000D02*
X91200000Y-36025000D01*
X93000000Y-36775000D02*
X93000000Y-36025000D01*
X94500000Y-36025000D02*
X94500000Y-36775000D01*
X94500000Y-36775000D02*
X100500000Y-36775000D01*
X97500000Y-41225000D02*
X93010000Y-41225000D01*
X100500000Y-36025000D02*
X94500000Y-36025000D01*
X100500000Y-36775000D02*
X100500000Y-36025000D01*
X102000000Y-36025000D02*
X102000000Y-36775000D01*
X102000000Y-36775000D02*
X103800000Y-36775000D01*
X103050000Y-38275000D02*
X103050000Y-41225000D01*
X103050000Y-41225000D02*
X97500000Y-41225000D01*
X103800000Y-36025000D02*
X102000000Y-36025000D01*
X103800000Y-36775000D02*
X103800000Y-36025000D01*
X103800000Y-38275000D02*
X103050000Y-38275000D01*
X103810000Y-36015000D02*
X91190000Y-36015000D01*
X103810000Y-41985000D02*
X103810000Y-36015000D01*
%TO.C,J6*%
X74650000Y-35750000D02*
X74650000Y-37000000D01*
X74940000Y-36040000D02*
X74940000Y-42010000D01*
X74940000Y-42010000D02*
X87560000Y-42010000D01*
X74950000Y-36050000D02*
X74950000Y-36800000D01*
X74950000Y-36800000D02*
X76750000Y-36800000D01*
X74950000Y-38300000D02*
X75700000Y-38300000D01*
X75700000Y-38300000D02*
X75700000Y-39640000D01*
X75900000Y-35750000D02*
X74650000Y-35750000D01*
X76750000Y-36050000D02*
X74950000Y-36050000D01*
X76750000Y-36800000D02*
X76750000Y-36050000D01*
X78250000Y-36050000D02*
X78250000Y-36800000D01*
X78250000Y-36800000D02*
X84250000Y-36800000D01*
X81250000Y-41250000D02*
X76760000Y-41250000D01*
X84250000Y-36050000D02*
X78250000Y-36050000D01*
X84250000Y-36800000D02*
X84250000Y-36050000D01*
X85750000Y-36050000D02*
X85750000Y-36800000D01*
X85750000Y-36800000D02*
X87550000Y-36800000D01*
X86800000Y-38300000D02*
X86800000Y-41250000D01*
X86800000Y-41250000D02*
X81250000Y-41250000D01*
X87550000Y-36050000D02*
X85750000Y-36050000D01*
X87550000Y-36800000D02*
X87550000Y-36050000D01*
X87550000Y-38300000D02*
X86800000Y-38300000D01*
X87560000Y-36040000D02*
X74940000Y-36040000D01*
X87560000Y-42010000D02*
X87560000Y-36040000D01*
%TO.C,J4*%
X58150000Y-35750000D02*
X58150000Y-37000000D01*
X58440000Y-36040000D02*
X58440000Y-42010000D01*
X58440000Y-42010000D02*
X71060000Y-42010000D01*
X58450000Y-36050000D02*
X58450000Y-36800000D01*
X58450000Y-36800000D02*
X60250000Y-36800000D01*
X58450000Y-38300000D02*
X59200000Y-38300000D01*
X59200000Y-38300000D02*
X59200000Y-39640000D01*
X59400000Y-35750000D02*
X58150000Y-35750000D01*
X60250000Y-36050000D02*
X58450000Y-36050000D01*
X60250000Y-36800000D02*
X60250000Y-36050000D01*
X61750000Y-36050000D02*
X61750000Y-36800000D01*
X61750000Y-36800000D02*
X67750000Y-36800000D01*
X64750000Y-41250000D02*
X60260000Y-41250000D01*
X67750000Y-36050000D02*
X61750000Y-36050000D01*
X67750000Y-36800000D02*
X67750000Y-36050000D01*
X69250000Y-36050000D02*
X69250000Y-36800000D01*
X69250000Y-36800000D02*
X71050000Y-36800000D01*
X70300000Y-38300000D02*
X70300000Y-41250000D01*
X70300000Y-41250000D02*
X64750000Y-41250000D01*
X71050000Y-36050000D02*
X69250000Y-36050000D01*
X71050000Y-36800000D02*
X71050000Y-36050000D01*
X71050000Y-38300000D02*
X70300000Y-38300000D01*
X71060000Y-36040000D02*
X58440000Y-36040000D01*
X71060000Y-42010000D02*
X71060000Y-36040000D01*
%TO.C,J2*%
X107650000Y-35750000D02*
X107650000Y-37000000D01*
X107940000Y-36040000D02*
X107940000Y-42010000D01*
X107940000Y-42010000D02*
X120560000Y-42010000D01*
X107950000Y-36050000D02*
X107950000Y-36800000D01*
X107950000Y-36800000D02*
X109750000Y-36800000D01*
X107950000Y-38300000D02*
X108700000Y-38300000D01*
X108700000Y-38300000D02*
X108700000Y-39640000D01*
X108900000Y-35750000D02*
X107650000Y-35750000D01*
X109750000Y-36050000D02*
X107950000Y-36050000D01*
X109750000Y-36800000D02*
X109750000Y-36050000D01*
X111250000Y-36050000D02*
X111250000Y-36800000D01*
X111250000Y-36800000D02*
X117250000Y-36800000D01*
X114250000Y-41250000D02*
X109760000Y-41250000D01*
X117250000Y-36050000D02*
X111250000Y-36050000D01*
X117250000Y-36800000D02*
X117250000Y-36050000D01*
X118750000Y-36050000D02*
X118750000Y-36800000D01*
X118750000Y-36800000D02*
X120550000Y-36800000D01*
X119800000Y-38300000D02*
X119800000Y-41250000D01*
X119800000Y-41250000D02*
X114250000Y-41250000D01*
X120550000Y-36050000D02*
X118750000Y-36050000D01*
X120550000Y-36800000D02*
X120550000Y-36050000D01*
X120550000Y-38300000D02*
X119800000Y-38300000D01*
X120560000Y-36040000D02*
X107940000Y-36040000D01*
X120560000Y-42010000D02*
X120560000Y-36040000D01*
%TD*%
M02*
