%TF.GenerationSoftware,KiCad,Pcbnew,9.0.0*%
%TF.CreationDate,2025-03-23T11:29:05+11:00*%
%TF.ProjectId,OpenA1K,4f70656e-4131-44b2-9e6b-696361645f70,1*%
%TF.SameCoordinates,Original*%
%TF.FileFunction,Copper,L1,Top*%
%TF.FilePolarity,Positive*%
%FSLAX46Y46*%
G04 Gerber Fmt 4.6, Leading zero omitted, Abs format (unit mm)*
G04 Created by KiCad (PCBNEW 9.0.0) date 2025-03-23 11:29:05*
%MOMM*%
%LPD*%
G01*
G04 APERTURE LIST*
G04 Aperture macros list*
%AMRoundRect*
0 Rectangle with rounded corners*
0 $1 Rounding radius*
0 $2 $3 $4 $5 $6 $7 $8 $9 X,Y pos of 4 corners*
0 Add a 4 corners polygon primitive as box body*
4,1,4,$2,$3,$4,$5,$6,$7,$8,$9,$2,$3,0*
0 Add four circle primitives for the rounded corners*
1,1,$1+$1,$2,$3*
1,1,$1+$1,$4,$5*
1,1,$1+$1,$6,$7*
1,1,$1+$1,$8,$9*
0 Add four rect primitives between the rounded corners*
20,1,$1+$1,$2,$3,$4,$5,0*
20,1,$1+$1,$4,$5,$6,$7,0*
20,1,$1+$1,$6,$7,$8,$9,0*
20,1,$1+$1,$8,$9,$2,$3,0*%
%AMOutline5P*
0 Free polygon, 5 corners , with rotation*
0 The origin of the aperture is its center*
0 number of corners: always 5*
0 $1 to $10 corner X, Y*
0 $11 Rotation angle, in degrees counterclockwise*
0 create outline with 5 corners*
4,1,5,$1,$2,$3,$4,$5,$6,$7,$8,$9,$10,$1,$2,$11*%
%AMOutline6P*
0 Free polygon, 6 corners , with rotation*
0 The origin of the aperture is its center*
0 number of corners: always 6*
0 $1 to $12 corner X, Y*
0 $13 Rotation angle, in degrees counterclockwise*
0 create outline with 6 corners*
4,1,6,$1,$2,$3,$4,$5,$6,$7,$8,$9,$10,$11,$12,$1,$2,$13*%
%AMOutline7P*
0 Free polygon, 7 corners , with rotation*
0 The origin of the aperture is its center*
0 number of corners: always 7*
0 $1 to $14 corner X, Y*
0 $15 Rotation angle, in degrees counterclockwise*
0 create outline with 7 corners*
4,1,7,$1,$2,$3,$4,$5,$6,$7,$8,$9,$10,$11,$12,$13,$14,$1,$2,$15*%
%AMOutline8P*
0 Free polygon, 8 corners , with rotation*
0 The origin of the aperture is its center*
0 number of corners: always 8*
0 $1 to $16 corner X, Y*
0 $17 Rotation angle, in degrees counterclockwise*
0 create outline with 8 corners*
4,1,8,$1,$2,$3,$4,$5,$6,$7,$8,$9,$10,$11,$12,$13,$14,$15,$16,$1,$2,$17*%
G04 Aperture macros list end*
%TA.AperFunction,ComponentPad*%
%ADD10RoundRect,0.250001X-0.499999X-0.759999X0.499999X-0.759999X0.499999X0.759999X-0.499999X0.759999X0*%
%TD*%
%TA.AperFunction,ComponentPad*%
%ADD11O,1.500000X2.020000*%
%TD*%
%TA.AperFunction,ComponentPad*%
%ADD12O,2.000000X1.700000*%
%TD*%
%TA.AperFunction,ComponentPad*%
%ADD13RoundRect,0.250000X-0.750000X0.600000X-0.750000X-0.600000X0.750000X-0.600000X0.750000X0.600000X0*%
%TD*%
%TA.AperFunction,ComponentPad*%
%ADD14RoundRect,0.250000X-0.600000X-0.725000X0.600000X-0.725000X0.600000X0.725000X-0.600000X0.725000X0*%
%TD*%
%TA.AperFunction,ComponentPad*%
%ADD15O,1.700000X1.950000*%
%TD*%
%TA.AperFunction,ComponentPad*%
%ADD16RoundRect,0.250000X-0.725000X0.600000X-0.725000X-0.600000X0.725000X-0.600000X0.725000X0.600000X0*%
%TD*%
%TA.AperFunction,ComponentPad*%
%ADD17O,1.950000X1.700000*%
%TD*%
%TA.AperFunction,ComponentPad*%
%ADD18O,1.700000X1.700000*%
%TD*%
%TA.AperFunction,ComponentPad*%
%ADD19R,1.700000X1.700000*%
%TD*%
%TA.AperFunction,ComponentPad*%
%ADD20RoundRect,0.250000X0.725000X-0.600000X0.725000X0.600000X-0.725000X0.600000X-0.725000X-0.600000X0*%
%TD*%
%TA.AperFunction,ComponentPad*%
%ADD21C,1.700000*%
%TD*%
%TA.AperFunction,ComponentPad*%
%ADD22C,1.600000*%
%TD*%
%TA.AperFunction,ComponentPad*%
%ADD23O,1.600000X1.600000*%
%TD*%
%TA.AperFunction,ComponentPad*%
%ADD24O,3.000000X6.500000*%
%TD*%
%TA.AperFunction,ComponentPad*%
%ADD25Outline8P,-1.200000X0.720000X-0.720000X1.200000X0.720000X1.200000X1.200000X0.720000X1.200000X-0.720000X0.720000X-1.200000X-0.720000X-1.200000X-1.200000X-0.720000X0.000000*%
%TD*%
%TA.AperFunction,ComponentPad*%
%ADD26O,6.400000X2.400000*%
%TD*%
%TA.AperFunction,ComponentPad*%
%ADD27Outline8P,-1.200000X0.720000X-0.720000X1.200000X0.720000X1.200000X1.200000X0.720000X1.200000X-0.720000X0.720000X-1.200000X-0.720000X-1.200000X-1.200000X-0.720000X180.000000*%
%TD*%
%TA.AperFunction,ComponentPad*%
%ADD28R,2.600000X2.600000*%
%TD*%
%TA.AperFunction,ComponentPad*%
%ADD29C,2.600000*%
%TD*%
G04 APERTURE END LIST*
D10*
%TO.P,J26,1,Pin_1*%
%TO.N,/Toolhead-OpenA1K/24v*%
X77500000Y-107320000D03*
D11*
%TO.P,J26,2,Pin_2*%
%TO.N,/Toolhead-OpenA1K/COIL-A2*%
X80500000Y-107320000D03*
%TO.P,J26,3,Pin_3*%
%TO.N,/Toolhead-OpenA1K/GND*%
X83500000Y-107320000D03*
%TD*%
D12*
%TO.P,J16,2,Pin_2*%
%TO.N,Net-(D1-K)*%
X62000000Y-113500000D03*
D13*
%TO.P,J16,1,Pin_1*%
%TO.N,Net-(D1-A)*%
X62000000Y-111000000D03*
%TD*%
%TO.P,J17,1,Pin_1*%
%TO.N,/Toolhead-OpenA1K/3V3*%
X62000000Y-100000000D03*
D12*
%TO.P,J17,2,Pin_2*%
%TO.N,/Toolhead-OpenA1K/THM_SG*%
X62000000Y-102500000D03*
%TD*%
D14*
%TO.P,J18,1,Pin_1*%
%TO.N,/Toolhead-OpenA1K/GND*%
X86000000Y-131000000D03*
D15*
%TO.P,J18,2,Pin_2*%
%TO.N,/Toolhead-OpenA1K/24V*%
X88500000Y-131000000D03*
%TO.P,J18,3,Pin_3*%
%TO.N,/Toolhead-OpenA1K/PCF_SG*%
X91000000Y-131000000D03*
%TO.P,J18,4,Pin_4*%
%TO.N,/Toolhead-OpenA1K/EXF_PWM*%
X93500000Y-131000000D03*
%TD*%
D16*
%TO.P,J19,1,Pin_1*%
%TO.N,unconnected-(J19-Pin_1-Pad1)*%
X101000000Y-113500000D03*
D17*
%TO.P,J19,2,Pin_2*%
%TO.N,/Toolhead-OpenA1K/GND_LV*%
X101000000Y-116000000D03*
%TO.P,J19,3,Pin_3*%
%TO.N,/Toolhead-OpenA1K/5V*%
X101000000Y-118500000D03*
%TO.P,J19,4,Pin_4*%
%TO.N,/Toolhead-OpenA1K/EXF_SG*%
X101000000Y-121000000D03*
%TO.P,J19,5,Pin_5*%
%TO.N,/Toolhead-OpenA1K/EXF_PWM*%
X101000000Y-123500000D03*
%TD*%
D18*
%TO.P,J25,6,Pin_6*%
%TO.N,/Toolhead-OpenA1K/GND_SP*%
X121540000Y-110000000D03*
%TO.P,J25,5,Pin_5*%
X119000000Y-110000000D03*
%TO.P,J25,4,Pin_4*%
%TO.N,/Toolhead-OpenA1K/5V_SP*%
X116460000Y-110000000D03*
%TO.P,J25,3,Pin_3*%
%TO.N,/Toolhead-OpenA1K/3V3_SP*%
X113920000Y-110000000D03*
%TO.P,J25,2,Pin_2*%
%TO.N,/Toolhead-OpenA1K/GND_SP*%
X111380000Y-110000000D03*
D19*
%TO.P,J25,1,Pin_1*%
X108840000Y-110000000D03*
%TD*%
D17*
%TO.P,ExtruderMotor1,4,Pin_4*%
%TO.N,/Toolhead-OpenA1K/COIL-A2*%
X100500000Y-99900000D03*
%TO.P,ExtruderMotor1,3,Pin_3*%
%TO.N,/Toolhead-OpenA1K/COIL-A1*%
X100500000Y-102400000D03*
%TO.P,ExtruderMotor1,2,Pin_2*%
%TO.N,/Toolhead-OpenA1K/COIL-B1*%
X100500000Y-104900000D03*
D20*
%TO.P,ExtruderMotor1,1,Pin_1*%
%TO.N,/Toolhead-OpenA1K/COIL-B2*%
X100500000Y-107400000D03*
%TD*%
D18*
%TO.P,J23,6,Pin_6*%
%TO.N,Net-(J23-Pin_6)*%
X138540000Y-110000000D03*
%TO.P,J23,5,Pin_5*%
%TO.N,Net-(J23-Pin_5)*%
X136000000Y-110000000D03*
%TO.P,J23,4,Pin_4*%
%TO.N,Net-(J23-Pin_4)*%
X133460000Y-110000000D03*
%TO.P,J23,3,Pin_3*%
%TO.N,Net-(J23-Pin_3)*%
X130920000Y-110000000D03*
%TO.P,J23,2,Pin_2*%
%TO.N,Net-(J23-Pin_2)*%
X128380000Y-110000000D03*
D19*
%TO.P,J23,1,Pin_1*%
%TO.N,Net-(J23-Pin_1)*%
X125840000Y-110000000D03*
%TD*%
D18*
%TO.P,U2,40,VBUS*%
%TO.N,/Toolhead-OpenA1K/5V_SP*%
X106920000Y-115720000D03*
D19*
%TO.P,U2,39,VSYS*%
%TO.N,unconnected-(U2-VSYS-Pad39)*%
X109460000Y-115720000D03*
D21*
%TO.P,U2,38,GND*%
%TO.N,unconnected-(U2-GND-Pad38)*%
X112000000Y-115720000D03*
D18*
%TO.P,U2,37,3V3_EN*%
%TO.N,unconnected-(U2-3V3_EN-Pad37)*%
X114540000Y-115720000D03*
%TO.P,U2,36,3V3*%
%TO.N,/Toolhead-OpenA1K/3V3_SP*%
X117080000Y-115720000D03*
%TO.P,U2,35,ADC_VREF*%
%TO.N,unconnected-(U2-ADC_VREF-Pad35)*%
X119620000Y-115720000D03*
%TO.P,U2,34,GPIO28_ADC2*%
%TO.N,unconnected-(U2-GPIO28_ADC2-Pad34)*%
X122160000Y-115720000D03*
D21*
%TO.P,U2,33,AGND*%
%TO.N,unconnected-(U2-AGND-Pad33)*%
X124700000Y-115720000D03*
D18*
%TO.P,U2,32,GPIO27_ADC1*%
%TO.N,unconnected-(U2-GPIO27_ADC1-Pad32)*%
X127240000Y-115720000D03*
%TO.P,U2,31,GPIO26_ADC0*%
%TO.N,Net-(J23-Pin_4)*%
X129780000Y-115720000D03*
%TO.P,U2,30,RUN*%
%TO.N,unconnected-(U2-RUN-Pad30)*%
X132320000Y-115720000D03*
%TO.P,U2,29,GPIO22*%
%TO.N,unconnected-(U2-GPIO22-Pad29)*%
X134860000Y-115720000D03*
D21*
%TO.P,U2,28,GND*%
%TO.N,unconnected-(U2-GND-Pad28)*%
X137400000Y-115720000D03*
D18*
%TO.P,U2,27,GPIO21*%
%TO.N,unconnected-(U2-GPIO21-Pad27)*%
X139940000Y-115720000D03*
%TO.P,U2,26,GPIO20*%
%TO.N,unconnected-(U2-GPIO20-Pad26)*%
X142480000Y-115720000D03*
%TO.P,U2,25,GPIO19*%
%TO.N,unconnected-(U2-GPIO19-Pad25)*%
X145020000Y-115720000D03*
%TO.P,U2,24,GPIO18*%
%TO.N,unconnected-(U2-GPIO18-Pad24)*%
X147560000Y-115720000D03*
D21*
%TO.P,U2,23,GND*%
%TO.N,unconnected-(U2-GND-Pad23)*%
X150100000Y-115720000D03*
D18*
%TO.P,U2,22,GPIO17*%
%TO.N,unconnected-(U2-GPIO17-Pad22)*%
X152640000Y-115720000D03*
%TO.P,U2,21,GPIO16*%
%TO.N,unconnected-(U2-GPIO16-Pad21)*%
X155180000Y-115720000D03*
%TO.P,U2,20,GPIO15*%
%TO.N,unconnected-(U2-GPIO15-Pad20)*%
X155180000Y-133500000D03*
D19*
%TO.P,U2,19,GPIO14*%
%TO.N,unconnected-(U2-GPIO14-Pad19)*%
X152640000Y-133500000D03*
D21*
%TO.P,U2,18,GND*%
%TO.N,unconnected-(U2-GND-Pad18)*%
X150100000Y-133500000D03*
D18*
%TO.P,U2,17,GPIO13*%
%TO.N,unconnected-(U2-GPIO13-Pad17)*%
X147560000Y-133500000D03*
%TO.P,U2,16,GPIO12*%
%TO.N,unconnected-(U2-GPIO12-Pad16)*%
X145020000Y-133500000D03*
%TO.P,U2,15,GPIO11*%
%TO.N,unconnected-(U2-GPIO11-Pad15)*%
X142480000Y-133500000D03*
%TO.P,U2,14,GPIO10*%
%TO.N,Net-(J23-Pin_6)*%
X139940000Y-133500000D03*
D21*
%TO.P,U2,13,GND*%
%TO.N,/Toolhead-OpenA1K/GND_SP*%
X137400000Y-133500000D03*
D18*
%TO.P,U2,12,GPIO9*%
%TO.N,Net-(J23-Pin_5)*%
X134860000Y-133500000D03*
%TO.P,U2,11,GPIO8*%
%TO.N,Net-(J23-Pin_3)*%
X132320000Y-133500000D03*
%TO.P,U2,10,GPIO7*%
%TO.N,Net-(J23-Pin_2)*%
X129780000Y-133500000D03*
%TO.P,U2,9,GPIO6*%
%TO.N,Net-(J23-Pin_1)*%
X127240000Y-133500000D03*
D21*
%TO.P,U2,8,GND*%
%TO.N,/Toolhead-OpenA1K/GND_SP*%
X124700000Y-133500000D03*
D18*
%TO.P,U2,7,GPIO5*%
%TO.N,Net-(J22-Pin_6)*%
X122160000Y-133500000D03*
%TO.P,U2,6,GPIO4*%
%TO.N,Net-(J22-Pin_5)*%
X119620000Y-133500000D03*
%TO.P,U2,5,GPIO3*%
%TO.N,Net-(J22-Pin_4)*%
X117080000Y-133500000D03*
%TO.P,U2,4,GPIO2*%
%TO.N,Net-(J22-Pin_3)*%
X114540000Y-133500000D03*
D21*
%TO.P,U2,3,GND*%
%TO.N,/Toolhead-OpenA1K/GND_SP*%
X112000000Y-133500000D03*
D18*
%TO.P,U2,2,GPIO1*%
%TO.N,Net-(J22-Pin_2)*%
X109460000Y-133500000D03*
%TO.P,U2,1,GPIO0*%
%TO.N,Net-(J22-Pin_1)*%
X106920000Y-133500000D03*
%TD*%
%TO.P,J22,6,Pin_6*%
%TO.N,Net-(J22-Pin_6)*%
X155160000Y-110000000D03*
%TO.P,J22,5,Pin_5*%
%TO.N,Net-(J22-Pin_5)*%
X152620000Y-110000000D03*
%TO.P,J22,4,Pin_4*%
%TO.N,Net-(J22-Pin_4)*%
X150080000Y-110000000D03*
%TO.P,J22,3,Pin_3*%
%TO.N,Net-(J22-Pin_3)*%
X147540000Y-110000000D03*
%TO.P,J22,2,Pin_2*%
%TO.N,Net-(J22-Pin_2)*%
X145000000Y-110000000D03*
D19*
%TO.P,J22,1,Pin_1*%
%TO.N,Net-(J22-Pin_1)*%
X142460000Y-110000000D03*
%TD*%
%TO.P,J24,1,Pin_1*%
%TO.N,/Toolhead-OpenA1K/GND_LV*%
X67500000Y-120300000D03*
D18*
%TO.P,J24,2,Pin_2*%
X67500000Y-122840000D03*
%TO.P,J24,3,Pin_3*%
%TO.N,/Toolhead-OpenA1K/3V3*%
X67500000Y-125380000D03*
%TO.P,J24,4,Pin_4*%
%TO.N,/Toolhead-OpenA1K/5V*%
X67500000Y-127920000D03*
%TO.P,J24,5,Pin_5*%
%TO.N,/Toolhead-OpenA1K/GND_LV*%
X67500000Y-130460000D03*
%TO.P,J24,6,Pin_6*%
X67500000Y-133000000D03*
%TD*%
D22*
%TO.P,R5,1*%
%TO.N,/Mainboard-OpenA1K/UART_TX*%
X132500000Y-76340000D03*
D23*
%TO.P,R5,2*%
%TO.N,/Mainboard-OpenA1K/UART_RX*%
X132500000Y-86500000D03*
%TD*%
D24*
%TO.P,F1,1*%
%TO.N,Net-(J9-Pin_2)*%
X116404999Y-75670000D03*
%TO.P,F1,2*%
%TO.N,VDD*%
X116405000Y-83170000D03*
%TD*%
D25*
%TO.P,C4,1*%
%TO.N,VDD*%
X103500000Y-78000000D03*
D26*
%TO.P,C4,2*%
%TO.N,GND*%
X108960000Y-78000000D03*
%TD*%
D27*
%TO.P,C3,1*%
%TO.N,VDD*%
X95000000Y-78000000D03*
D26*
%TO.P,C3,2*%
%TO.N,GND*%
X89540000Y-78000000D03*
%TD*%
D25*
%TO.P,C2,1*%
%TO.N,VDD*%
X76500000Y-78000000D03*
D26*
%TO.P,C2,2*%
%TO.N,GND*%
X81960000Y-78000000D03*
%TD*%
D27*
%TO.P,C1,1*%
%TO.N,VDD*%
X68000000Y-78000000D03*
D26*
%TO.P,C1,2*%
%TO.N,GND*%
X62540000Y-78000000D03*
%TD*%
D18*
%TO.P,U1,1,GPIO0*%
%TO.N,/Mainboard-OpenA1K/M1-EN*%
X137610000Y-37370000D03*
%TO.P,U1,2,GPIO1*%
%TO.N,/Mainboard-OpenA1K/M1-DIAG*%
X137610000Y-39910000D03*
D21*
%TO.P,U1,3,GND*%
%TO.N,GND*%
X137610000Y-42450000D03*
D18*
%TO.P,U1,4,GPIO2*%
%TO.N,/Mainboard-OpenA1K/M1-STEP*%
X137610000Y-44990000D03*
%TO.P,U1,5,GPIO3*%
%TO.N,/Mainboard-OpenA1K/M1-DIR*%
X137610000Y-47530000D03*
%TO.P,U1,6,GPIO4*%
%TO.N,/Mainboard-OpenA1K/SPI_CS1*%
X137610000Y-50070000D03*
%TO.P,U1,7,GPIO5*%
%TO.N,/Mainboard-OpenA1K/M2-EN*%
X137610000Y-52610000D03*
D21*
%TO.P,U1,8,GND*%
%TO.N,GND*%
X137610000Y-55150000D03*
D18*
%TO.P,U1,9,GPIO6*%
%TO.N,/Mainboard-OpenA1K/M2-DIAG*%
X137610000Y-57690000D03*
%TO.P,U1,10,GPIO7*%
%TO.N,/Mainboard-OpenA1K/M2-STEP*%
X137610000Y-60230000D03*
%TO.P,U1,11,GPIO8*%
%TO.N,/Mainboard-OpenA1K/M2-DIR*%
X137610000Y-62770000D03*
%TO.P,U1,12,GPIO9*%
%TO.N,/Mainboard-OpenA1K/SPI_CS2*%
X137610000Y-65310000D03*
D21*
%TO.P,U1,13,GND*%
%TO.N,GND*%
X137610000Y-67850000D03*
D18*
%TO.P,U1,14,GPIO10*%
%TO.N,/Mainboard-OpenA1K/M3-EN*%
X137610000Y-70390000D03*
%TO.P,U1,15,GPIO11*%
%TO.N,/Mainboard-OpenA1K/M3-DIAG*%
X137610000Y-72930000D03*
%TO.P,U1,16,GPIO12*%
%TO.N,/Mainboard-OpenA1K/M3-STEP*%
X137610000Y-75470000D03*
%TO.P,U1,17,GPIO13*%
%TO.N,/Mainboard-OpenA1K/M3-DIR*%
X137610000Y-78010000D03*
D21*
%TO.P,U1,18,GND*%
%TO.N,GND*%
X137610000Y-80550000D03*
D19*
%TO.P,U1,19,GPIO14*%
%TO.N,/Mainboard-OpenA1K/UART_TX*%
X137610000Y-83090000D03*
D18*
%TO.P,U1,20,GPIO15*%
%TO.N,/Mainboard-OpenA1K/UART_RX*%
X137610000Y-85630000D03*
%TO.P,U1,21,GPIO16*%
%TO.N,SPI_MISO*%
X155390000Y-85630000D03*
%TO.P,U1,22,GPIO17*%
%TO.N,/Mainboard-OpenA1K/SPI_CS4*%
X155390000Y-83090000D03*
D21*
%TO.P,U1,23,GND*%
%TO.N,GND*%
X155390000Y-80550000D03*
D18*
%TO.P,U1,24,GPIO18*%
%TO.N,SPI_SCK*%
X155390000Y-78010000D03*
%TO.P,U1,25,GPIO19*%
%TO.N,SPI_MOSI*%
X155390000Y-75470000D03*
%TO.P,U1,26,GPIO20*%
%TO.N,/Mainboard-OpenA1K/M4-DIR*%
X155390000Y-72930000D03*
%TO.P,U1,27,GPIO21*%
%TO.N,/Mainboard-OpenA1K/SPARE*%
X155390000Y-70390000D03*
D21*
%TO.P,U1,28,GND*%
%TO.N,GND*%
X155390000Y-67850000D03*
D18*
%TO.P,U1,29,GPIO22*%
%TO.N,/Mainboard-OpenA1K/M4-STEP*%
X155390000Y-65310000D03*
%TO.P,U1,30,RUN*%
%TO.N,unconnected-(U1-RUN-Pad30)*%
X155390000Y-62770000D03*
%TO.P,U1,31,GPIO26_ADC0*%
%TO.N,/Mainboard-OpenA1K/M4-DIAG*%
X155390000Y-60230000D03*
%TO.P,U1,32,GPIO27_ADC1*%
%TO.N,/Mainboard-OpenA1K/M4-EN*%
X155390000Y-57690000D03*
D21*
%TO.P,U1,33,AGND*%
%TO.N,GND*%
X155390000Y-55150000D03*
D18*
%TO.P,U1,34,GPIO28_ADC2*%
%TO.N,/Mainboard-OpenA1K/SPI_CS3*%
X155390000Y-52610000D03*
%TO.P,U1,35,ADC_VREF*%
%TO.N,unconnected-(U1-ADC_VREF-Pad35)*%
X155390000Y-50070000D03*
%TO.P,U1,36,3V3*%
%TO.N,+3V3*%
X155390000Y-47530000D03*
%TO.P,U1,37,3V3_EN*%
%TO.N,unconnected-(U1-3V3_EN-Pad37)*%
X155390000Y-44990000D03*
D21*
%TO.P,U1,38,GND*%
%TO.N,GND*%
X155390000Y-42450000D03*
D19*
%TO.P,U1,39,VSYS*%
%TO.N,unconnected-(U1-VSYS-Pad39)*%
X155390000Y-39910000D03*
D18*
%TO.P,U1,40,VBUS*%
%TO.N,unconnected-(U1-VBUS-Pad40)*%
X155390000Y-37370000D03*
%TD*%
D19*
%TO.P,M6,1,ENABLE*%
%TO.N,/Mainboard-OpenA1K/M3-EN*%
X104981700Y-69662300D03*
D21*
%TO.P,M6,2,MS1*%
%TO.N,/Mainboard-OpenA1K/Stepstick-Slot3/MS1*%
X104981700Y-67122300D03*
%TO.P,M6,3,MS2*%
%TO.N,/Mainboard-OpenA1K/Stepstick-Slot3/MS2*%
X104981700Y-64582300D03*
%TO.P,M6,4,PDN1*%
%TO.N,/Mainboard-OpenA1K/Stepstick-Slot3/PDN1*%
X104981700Y-62042300D03*
%TO.P,M6,5,PDN2*%
%TO.N,/Mainboard-OpenA1K/Stepstick-Slot3/PDN2*%
X104981700Y-59502300D03*
%TO.P,M6,6,CLK*%
%TO.N,/Mainboard-OpenA1K/Stepstick-Slot3/CLK*%
X104981700Y-56962300D03*
%TO.P,M6,7,STEP*%
%TO.N,/Mainboard-OpenA1K/M3-STEP*%
X104981700Y-54422300D03*
%TO.P,M6,8,DIR*%
%TO.N,/Mainboard-OpenA1K/M3-DIR*%
X104981700Y-51882300D03*
%TO.P,M6,9,GND*%
%TO.N,GND*%
X92281700Y-51882300D03*
%TO.P,M6,10,VDD*%
%TO.N,+3V3*%
X92281700Y-54422300D03*
%TO.P,M6,11,B2*%
%TO.N,/Mainboard-OpenA1K/Stepstick-Slot3/COIL-B2*%
X92281700Y-56962300D03*
%TO.P,M6,12,B1*%
%TO.N,/Mainboard-OpenA1K/Stepstick-Slot3/COIL-B1*%
X92281700Y-59502300D03*
%TO.P,M6,13,A1*%
%TO.N,/Mainboard-OpenA1K/Stepstick-Slot3/COIL-A1*%
X92281700Y-62042300D03*
%TO.P,M6,14,A2*%
%TO.N,/Mainboard-OpenA1K/Stepstick-Slot3/COIL-A2*%
X92281700Y-64582300D03*
%TO.P,M6,15,GND*%
%TO.N,GND*%
X92281700Y-67122300D03*
%TO.P,M6,16,VM*%
%TO.N,VDD*%
X92281700Y-69662300D03*
%TO.P,M6,17,INDEX*%
%TO.N,unconnected-(M6-INDEX-Pad17)*%
X102441700Y-69662300D03*
%TO.P,M6,18,DIAG*%
%TO.N,/Mainboard-OpenA1K/Stepstick-Slot3/DIAG_INT*%
X99901700Y-69662300D03*
%TD*%
D19*
%TO.P,M5,1*%
%TO.N,SPI_SCK*%
X101781700Y-57462300D03*
D18*
%TO.P,M5,2*%
%TO.N,/Mainboard-OpenA1K/Stepstick-Slot3/MS2*%
X99241700Y-57462300D03*
%TO.P,M5,3*%
%TO.N,+3V3*%
X96701700Y-57462300D03*
%TO.P,M5,4*%
%TO.N,SPI_MOSI*%
X101781700Y-54922300D03*
%TO.P,M5,5*%
%TO.N,/Mainboard-OpenA1K/Stepstick-Slot3/MS1*%
X99241700Y-54922300D03*
%TO.P,M5,6*%
%TO.N,+3V3*%
X96701700Y-54922300D03*
D21*
%TO.P,M5,7*%
%TO.N,/Mainboard-OpenA1K/SPI_CS3*%
X101781700Y-52382300D03*
%TO.P,M5,8*%
%TO.N,/Mainboard-OpenA1K/Stepstick-Slot3/PDN1*%
X99241700Y-52382300D03*
%TO.P,M5,9*%
%TO.N,/Mainboard-OpenA1K/UART_RX*%
X96701700Y-52382300D03*
%TD*%
D19*
%TO.P,M4,1,ENABLE*%
%TO.N,/Mainboard-OpenA1K/M2-EN*%
X88624800Y-69539700D03*
D21*
%TO.P,M4,2,MS1*%
%TO.N,/Mainboard-OpenA1K/Stepstick-Slot2/MS1*%
X88624800Y-66999700D03*
%TO.P,M4,3,MS2*%
%TO.N,/Mainboard-OpenA1K/Stepstick-Slot2/MS2*%
X88624800Y-64459700D03*
%TO.P,M4,4,PDN1*%
%TO.N,/Mainboard-OpenA1K/Stepstick-Slot2/PDN1*%
X88624800Y-61919700D03*
%TO.P,M4,5,PDN2*%
%TO.N,/Mainboard-OpenA1K/Stepstick-Slot2/PDN2*%
X88624800Y-59379700D03*
%TO.P,M4,6,CLK*%
%TO.N,/Mainboard-OpenA1K/Stepstick-Slot2/CLK*%
X88624800Y-56839700D03*
%TO.P,M4,7,STEP*%
%TO.N,/Mainboard-OpenA1K/M2-STEP*%
X88624800Y-54299700D03*
%TO.P,M4,8,DIR*%
%TO.N,/Mainboard-OpenA1K/M2-DIR*%
X88624800Y-51759700D03*
%TO.P,M4,9,GND*%
%TO.N,GND*%
X75924800Y-51759700D03*
%TO.P,M4,10,VDD*%
%TO.N,+3V3*%
X75924800Y-54299700D03*
%TO.P,M4,11,B2*%
%TO.N,/Mainboard-OpenA1K/Stepstick-Slot2/COIL-B2*%
X75924800Y-56839700D03*
%TO.P,M4,12,B1*%
%TO.N,/Mainboard-OpenA1K/Stepstick-Slot2/COIL-B1*%
X75924800Y-59379700D03*
%TO.P,M4,13,A1*%
%TO.N,/Mainboard-OpenA1K/Stepstick-Slot2/COIL-A1*%
X75924800Y-61919700D03*
%TO.P,M4,14,A2*%
%TO.N,/Mainboard-OpenA1K/Stepstick-Slot2/COIL-A2*%
X75924800Y-64459700D03*
%TO.P,M4,15,GND*%
%TO.N,GND*%
X75924800Y-66999700D03*
%TO.P,M4,16,VM*%
%TO.N,VDD*%
X75924800Y-69539700D03*
%TO.P,M4,17,INDEX*%
%TO.N,unconnected-(M4-INDEX-Pad17)*%
X86084800Y-69539700D03*
%TO.P,M4,18,DIAG*%
%TO.N,/Mainboard-OpenA1K/Stepstick-Slot2/DIAG_INT*%
X83544800Y-69539700D03*
%TD*%
D19*
%TO.P,M3,1*%
%TO.N,SPI_SCK*%
X85364800Y-57149700D03*
D18*
%TO.P,M3,2*%
%TO.N,/Mainboard-OpenA1K/Stepstick-Slot2/MS2*%
X82824800Y-57149700D03*
%TO.P,M3,3*%
%TO.N,+3V3*%
X80284800Y-57149700D03*
%TO.P,M3,4*%
%TO.N,SPI_MOSI*%
X85364800Y-54609700D03*
%TO.P,M3,5*%
%TO.N,/Mainboard-OpenA1K/Stepstick-Slot2/MS1*%
X82824800Y-54609700D03*
%TO.P,M3,6*%
%TO.N,GND*%
X80284800Y-54609700D03*
D21*
%TO.P,M3,7*%
%TO.N,/Mainboard-OpenA1K/SPI_CS2*%
X85364800Y-52069700D03*
%TO.P,M3,8*%
%TO.N,/Mainboard-OpenA1K/Stepstick-Slot2/PDN1*%
X82824800Y-52069700D03*
%TO.P,M3,9*%
%TO.N,/Mainboard-OpenA1K/UART_RX*%
X80284800Y-52069700D03*
%TD*%
D19*
%TO.P,M2,1,ENABLE*%
%TO.N,/Mainboard-OpenA1K/M1-EN*%
X72460800Y-69535600D03*
D21*
%TO.P,M2,2,MS1*%
%TO.N,/Mainboard-OpenA1K/Stepstick-Slot1/MS1*%
X72460800Y-66995600D03*
%TO.P,M2,3,MS2*%
%TO.N,/Mainboard-OpenA1K/Stepstick-Slot1/MS2*%
X72460800Y-64455600D03*
%TO.P,M2,4,PDN1*%
%TO.N,/Mainboard-OpenA1K/Stepstick-Slot1/PDN1*%
X72460800Y-61915600D03*
%TO.P,M2,5,PDN2*%
%TO.N,/Mainboard-OpenA1K/Stepstick-Slot1/PDN2*%
X72460800Y-59375600D03*
%TO.P,M2,6,CLK*%
%TO.N,/Mainboard-OpenA1K/Stepstick-Slot1/CLK*%
X72460800Y-56835600D03*
%TO.P,M2,7,STEP*%
%TO.N,/Mainboard-OpenA1K/M1-STEP*%
X72460800Y-54295600D03*
%TO.P,M2,8,DIR*%
%TO.N,/Mainboard-OpenA1K/M1-DIR*%
X72460800Y-51755600D03*
%TO.P,M2,9,GND*%
%TO.N,GND*%
X59760800Y-51755600D03*
%TO.P,M2,10,VDD*%
%TO.N,+3V3*%
X59760800Y-54295600D03*
%TO.P,M2,11,B2*%
%TO.N,/Mainboard-OpenA1K/Stepstick-Slot1/COIL-B2*%
X59760800Y-56835600D03*
%TO.P,M2,12,B1*%
%TO.N,/Mainboard-OpenA1K/Stepstick-Slot1/COIL-B1*%
X59760800Y-59375600D03*
%TO.P,M2,13,A1*%
%TO.N,/Mainboard-OpenA1K/Stepstick-Slot1/COIL-A1*%
X59760800Y-61915600D03*
%TO.P,M2,14,A2*%
%TO.N,/Mainboard-OpenA1K/Stepstick-Slot1/COIL-A2*%
X59760800Y-64455600D03*
%TO.P,M2,15,GND*%
%TO.N,GND*%
X59760800Y-66995600D03*
%TO.P,M2,16,VM*%
%TO.N,VDD*%
X59760800Y-69535600D03*
%TO.P,M2,17,INDEX*%
%TO.N,unconnected-(M2-INDEX-Pad17)*%
X69920800Y-69535600D03*
%TO.P,M2,18,DIAG*%
%TO.N,/Mainboard-OpenA1K/Stepstick-Slot1/DIAG_INT*%
X67380800Y-69535600D03*
%TD*%
D19*
%TO.P,M1,1*%
%TO.N,SPI_SCK*%
X69536800Y-57197500D03*
D18*
%TO.P,M1,2*%
%TO.N,/Mainboard-OpenA1K/Stepstick-Slot1/MS2*%
X66996800Y-57197500D03*
%TO.P,M1,3*%
%TO.N,GND*%
X64456800Y-57197500D03*
%TO.P,M1,4*%
%TO.N,SPI_MOSI*%
X69536800Y-54657500D03*
%TO.P,M1,5*%
%TO.N,/Mainboard-OpenA1K/Stepstick-Slot1/MS1*%
X66996800Y-54657500D03*
%TO.P,M1,6*%
%TO.N,+3V3*%
X64456800Y-54657500D03*
D21*
%TO.P,M1,7*%
%TO.N,/Mainboard-OpenA1K/SPI_CS1*%
X69536800Y-52117500D03*
%TO.P,M1,8*%
%TO.N,/Mainboard-OpenA1K/Stepstick-Slot1/PDN1*%
X66996800Y-52117500D03*
%TO.P,M1,9*%
%TO.N,/Mainboard-OpenA1K/UART_RX*%
X64456800Y-52117500D03*
%TD*%
D14*
%TO.P,J13,1,Pin_1*%
%TO.N,+3V3*%
X110500000Y-45500000D03*
D15*
%TO.P,J13,2,Pin_2*%
%TO.N,/Mainboard-OpenA1K/M4-DIAG*%
X113000000Y-45500000D03*
%TO.P,J13,3,Pin_3*%
%TO.N,GND*%
X115500000Y-45500000D03*
%TD*%
D14*
%TO.P,J12,1,Pin_1*%
%TO.N,+3V3*%
X77500000Y-45500000D03*
D15*
%TO.P,J12,2,Pin_2*%
%TO.N,/Mainboard-OpenA1K/M2-DIAG*%
X80000000Y-45500000D03*
%TO.P,J12,3,Pin_3*%
%TO.N,GND*%
X82500000Y-45500000D03*
%TD*%
D14*
%TO.P,J11,1,Pin_1*%
%TO.N,+3V3*%
X93750000Y-45475000D03*
D15*
%TO.P,J11,2,Pin_2*%
%TO.N,/Mainboard-OpenA1K/M3-DIAG*%
X96250000Y-45475000D03*
%TO.P,J11,3,Pin_3*%
%TO.N,GND*%
X98750000Y-45475000D03*
%TD*%
D14*
%TO.P,J10,1,Pin_1*%
%TO.N,+3V3*%
X61000000Y-45500000D03*
D15*
%TO.P,J10,2,Pin_2*%
%TO.N,/Mainboard-OpenA1K/M1-DIAG*%
X63500000Y-45500000D03*
%TO.P,J10,3,Pin_3*%
%TO.N,GND*%
X66000000Y-45500000D03*
%TD*%
D22*
%TO.P,R3,1*%
%TO.N,/Mainboard-OpenA1K/M3-EN*%
X95281700Y-69922300D03*
D23*
%TO.P,R3,2*%
%TO.N,+3V3*%
X95281700Y-59762300D03*
%TD*%
D22*
%TO.P,R2,1*%
%TO.N,/Mainboard-OpenA1K/M2-EN*%
X79284800Y-69729700D03*
D23*
%TO.P,R2,2*%
%TO.N,+3V3*%
X79284800Y-59569700D03*
%TD*%
D22*
%TO.P,R1,1*%
%TO.N,/Mainboard-OpenA1K/M1-EN*%
X63241600Y-59901600D03*
D23*
%TO.P,R1,2*%
%TO.N,+3V3*%
X63241600Y-70061600D03*
%TD*%
D19*
%TO.P,J21,1,Pin_1*%
%TO.N,/Toolhead-OpenA1K/GND_LV*%
X73500000Y-122880000D03*
D18*
%TO.P,J21,2,Pin_2*%
%TO.N,/Toolhead-OpenA1K/5V*%
X73500000Y-125420000D03*
%TO.P,J21,3,Pin_3*%
%TO.N,/Toolhead-OpenA1K/BL_SV*%
X73500000Y-127960000D03*
%TO.P,J21,4,Pin_4*%
%TO.N,/Toolhead-OpenA1K/GND_LV*%
X73500000Y-130500000D03*
%TO.P,J21,5,Pin_5*%
%TO.N,/Toolhead-OpenA1K/BL_PR*%
X73500000Y-133040000D03*
%TD*%
D19*
%TO.P,J20,1,Pin_1*%
%TO.N,/Toolhead-OpenA1K/GND_LV*%
X77500000Y-122880000D03*
D18*
%TO.P,J20,2,Pin_2*%
%TO.N,/Toolhead-OpenA1K/SFS_OP*%
X77500000Y-125420000D03*
%TO.P,J20,3,Pin_3*%
%TO.N,/Toolhead-OpenA1K/GND_LV*%
X77500000Y-127960000D03*
%TO.P,J20,4,Pin_4*%
%TO.N,/Toolhead-OpenA1K/5V*%
X77500000Y-130500000D03*
%TO.P,J20,5,Pin_5*%
%TO.N,/Toolhead-OpenA1K/SFS_SW*%
X77500000Y-133040000D03*
%TD*%
D19*
%TO.P,J15,1,Pin_1*%
%TO.N,/Toolhead-OpenA1K/SFS_OP*%
X63500000Y-120340000D03*
D18*
%TO.P,J15,2,Pin_2*%
%TO.N,/Toolhead-OpenA1K/EXF_SG*%
X63500000Y-122880000D03*
%TO.P,J15,3,Pin_3*%
%TO.N,/Toolhead-OpenA1K/PCF_SG*%
X63500000Y-125420000D03*
%TO.P,J15,4,Pin_4*%
%TO.N,/Toolhead-OpenA1K/THM_SG*%
X63500000Y-127960000D03*
%TO.P,J15,5,Pin_5*%
%TO.N,/Toolhead-OpenA1K/D+*%
X63500000Y-130500000D03*
%TO.P,J15,6,Pin_6*%
%TO.N,/Toolhead-OpenA1K/D-*%
X63500000Y-133040000D03*
%TD*%
D19*
%TO.P,J14,1,Pin_1*%
%TO.N,/Toolhead-OpenA1K/SFS_SW*%
X59500000Y-120300000D03*
D18*
%TO.P,J14,2,Pin_2*%
%TO.N,/Toolhead-OpenA1K/HT_CT*%
X59500000Y-122840000D03*
%TO.P,J14,3,Pin_3*%
%TO.N,/Toolhead-OpenA1K/BL_PR*%
X59500000Y-125380000D03*
%TO.P,J14,4,Pin_4*%
%TO.N,/Toolhead-OpenA1K/BL_SV*%
X59500000Y-127920000D03*
%TO.P,J14,5,Pin_5*%
%TO.N,/Toolhead-OpenA1K/PCF_PWM*%
X59500000Y-130460000D03*
%TO.P,J14,6,Pin_6*%
%TO.N,/Toolhead-OpenA1K/EXF_PWM*%
X59500000Y-133000000D03*
%TD*%
D28*
%TO.P,J9,1,Pin_1*%
%TO.N,GND*%
X122500000Y-80920000D03*
D29*
%TO.P,J9,2,Pin_2*%
%TO.N,Net-(J9-Pin_2)*%
X127580000Y-80920000D03*
%TD*%
D19*
%TO.P,J5,1,Pin_1*%
%TO.N,/Mainboard-OpenA1K/M3-DIAG*%
X101538500Y-66355000D03*
D18*
%TO.P,J5,2,Pin_2*%
%TO.N,/Mainboard-OpenA1K/Stepstick-Slot3/DIAG_INT*%
X98998500Y-66355000D03*
%TO.P,J5,3,Pin_3*%
%TO.N,/Mainboard-OpenA1K/Stepstick-Slot3/CLK*%
X101538500Y-63815000D03*
%TO.P,J5,4,Pin_4*%
%TO.N,/Mainboard-OpenA1K/Stepstick-Slot3/DIAG_INT*%
X98998500Y-63815000D03*
%TO.P,J5,5,Pin_5*%
%TO.N,SPI_MISO*%
X101538500Y-61275000D03*
%TO.P,J5,6,Pin_6*%
%TO.N,/Mainboard-OpenA1K/Stepstick-Slot3/PDN2*%
X98998500Y-61275000D03*
%TD*%
D19*
%TO.P,J3,1,Pin_1*%
%TO.N,/Mainboard-OpenA1K/M2-DIAG*%
X85284800Y-66189700D03*
D18*
%TO.P,J3,2,Pin_2*%
%TO.N,/Mainboard-OpenA1K/Stepstick-Slot2/DIAG_INT*%
X82744800Y-66189700D03*
%TO.P,J3,3,Pin_3*%
%TO.N,/Mainboard-OpenA1K/Stepstick-Slot2/CLK*%
X85284800Y-63649700D03*
%TO.P,J3,4,Pin_4*%
%TO.N,/Mainboard-OpenA1K/Stepstick-Slot2/DIAG_INT*%
X82744800Y-63649700D03*
%TO.P,J3,5,Pin_5*%
%TO.N,SPI_MISO*%
X85284800Y-61109700D03*
%TO.P,J3,6,Pin_6*%
%TO.N,/Mainboard-OpenA1K/Stepstick-Slot2/PDN2*%
X82744800Y-61109700D03*
%TD*%
D19*
%TO.P,J1,1,Pin_1*%
%TO.N,/Mainboard-OpenA1K/M1-DIAG*%
X69241600Y-66347100D03*
D18*
%TO.P,J1,2,Pin_2*%
%TO.N,/Mainboard-OpenA1K/Stepstick-Slot1/DIAG_INT*%
X66701600Y-66347100D03*
%TO.P,J1,3,Pin_3*%
%TO.N,/Mainboard-OpenA1K/Stepstick-Slot1/CLK*%
X69241600Y-63807100D03*
%TO.P,J1,4,Pin_4*%
%TO.N,/Mainboard-OpenA1K/Stepstick-Slot1/DIAG_INT*%
X66701600Y-63807100D03*
%TO.P,J1,5,Pin_5*%
%TO.N,SPI_MISO*%
X69241600Y-61267100D03*
%TO.P,J1,6,Pin_6*%
%TO.N,/Mainboard-OpenA1K/Stepstick-Slot1/PDN2*%
X66701600Y-61267100D03*
%TD*%
D19*
%TO.P,M8,1,ENABLE*%
%TO.N,/Mainboard-OpenA1K/M4-EN*%
X121424800Y-69469700D03*
D21*
%TO.P,M8,2,MS1*%
%TO.N,/Mainboard-OpenA1K/Stepstick-Slot4/MS1*%
X121424800Y-66929700D03*
%TO.P,M8,3,MS2*%
%TO.N,/Mainboard-OpenA1K/Stepstick-Slot4/MS2*%
X121424800Y-64389700D03*
%TO.P,M8,4,PDN1*%
%TO.N,/Mainboard-OpenA1K/Stepstick-Slot4/PDN1*%
X121424800Y-61849700D03*
%TO.P,M8,5,PDN2*%
%TO.N,/Mainboard-OpenA1K/Stepstick-Slot4/PDN2*%
X121424800Y-59309700D03*
%TO.P,M8,6,CLK*%
%TO.N,/Mainboard-OpenA1K/Stepstick-Slot4/CLK*%
X121424800Y-56769700D03*
%TO.P,M8,7,STEP*%
%TO.N,/Mainboard-OpenA1K/M4-STEP*%
X121424800Y-54229700D03*
%TO.P,M8,8,DIR*%
%TO.N,/Mainboard-OpenA1K/M4-DIR*%
X121424800Y-51689700D03*
%TO.P,M8,9,GND*%
%TO.N,GND*%
X108724800Y-51689700D03*
%TO.P,M8,10,VDD*%
%TO.N,+3V3*%
X108724800Y-54229700D03*
%TO.P,M8,11,B2*%
%TO.N,/Mainboard-OpenA1K/Stepstick-Slot4/COIL-B2*%
X108724800Y-56769700D03*
%TO.P,M8,12,B1*%
%TO.N,/Mainboard-OpenA1K/Stepstick-Slot4/COIL-B1*%
X108724800Y-59309700D03*
%TO.P,M8,13,A1*%
%TO.N,/Mainboard-OpenA1K/Stepstick-Slot4/COIL-A1*%
X108724800Y-61849700D03*
%TO.P,M8,14,A2*%
%TO.N,/Mainboard-OpenA1K/Stepstick-Slot4/COIL-A2*%
X108724800Y-64389700D03*
%TO.P,M8,15,GND*%
%TO.N,GND*%
X108724800Y-66929700D03*
%TO.P,M8,16,VM*%
%TO.N,VDD*%
X108724800Y-69469700D03*
%TO.P,M8,17,INDEX*%
%TO.N,unconnected-(M8-INDEX-Pad17)*%
X118884800Y-69469700D03*
%TO.P,M8,18,DIAG*%
%TO.N,/Mainboard-OpenA1K/Stepstick-Slot4/DIAG_INT*%
X116344800Y-69469700D03*
%TD*%
D19*
%TO.P,M7,1*%
%TO.N,SPI_SCK*%
X118507100Y-57085400D03*
D18*
%TO.P,M7,2*%
%TO.N,/Mainboard-OpenA1K/Stepstick-Slot4/MS2*%
X115967100Y-57085400D03*
%TO.P,M7,3*%
%TO.N,GND*%
X113427100Y-57085400D03*
%TO.P,M7,4*%
%TO.N,SPI_MOSI*%
X118507100Y-54545400D03*
%TO.P,M7,5*%
%TO.N,/Mainboard-OpenA1K/Stepstick-Slot4/MS1*%
X115967100Y-54545400D03*
%TO.P,M7,6*%
%TO.N,GND*%
X113427100Y-54545400D03*
D21*
%TO.P,M7,7*%
%TO.N,/Mainboard-OpenA1K/SPI_CS4*%
X118507100Y-52005400D03*
%TO.P,M7,8*%
%TO.N,/Mainboard-OpenA1K/Stepstick-Slot4/PDN1*%
X115967100Y-52005400D03*
%TO.P,M7,9*%
%TO.N,/Mainboard-OpenA1K/UART_RX*%
X113427100Y-52005400D03*
%TD*%
D19*
%TO.P,J7,1,Pin_1*%
%TO.N,/Mainboard-OpenA1K/M4-DIAG*%
X118153100Y-66256700D03*
D18*
%TO.P,J7,2,Pin_2*%
%TO.N,/Mainboard-OpenA1K/Stepstick-Slot4/DIAG_INT*%
X115613100Y-66256700D03*
%TO.P,J7,3,Pin_3*%
%TO.N,/Mainboard-OpenA1K/Stepstick-Slot4/CLK*%
X118153100Y-63716700D03*
%TO.P,J7,4,Pin_4*%
%TO.N,/Mainboard-OpenA1K/Stepstick-Slot4/DIAG_INT*%
X115613100Y-63716700D03*
%TO.P,J7,5,Pin_5*%
%TO.N,SPI_MISO*%
X118153100Y-61176700D03*
%TO.P,J7,6,Pin_6*%
%TO.N,/Mainboard-OpenA1K/Stepstick-Slot4/PDN2*%
X115613100Y-61176700D03*
%TD*%
D22*
%TO.P,R4,1*%
%TO.N,/Mainboard-OpenA1K/M4-EN*%
X112224800Y-69729700D03*
D23*
%TO.P,R4,2*%
%TO.N,+3V3*%
X112224800Y-59569700D03*
%TD*%
D14*
%TO.P,J8,1,Pin_1*%
%TO.N,/Mainboard-OpenA1K/Stepstick-Slot4/COIL-B2*%
X93750000Y-38475000D03*
D15*
%TO.P,J8,2,Pin_2*%
%TO.N,/Mainboard-OpenA1K/Stepstick-Slot4/COIL-B1*%
X96250000Y-38475000D03*
%TO.P,J8,3,Pin_3*%
%TO.N,/Mainboard-OpenA1K/Stepstick-Slot4/COIL-A1*%
X98750000Y-38475000D03*
%TO.P,J8,4,Pin_4*%
%TO.N,/Mainboard-OpenA1K/Stepstick-Slot4/COIL-A2*%
X101250000Y-38475000D03*
%TD*%
D14*
%TO.P,J6,1,Pin_1*%
%TO.N,/Mainboard-OpenA1K/Stepstick-Slot3/COIL-B2*%
X77500000Y-38500000D03*
D15*
%TO.P,J6,2,Pin_2*%
%TO.N,/Mainboard-OpenA1K/Stepstick-Slot3/COIL-B1*%
X80000000Y-38500000D03*
%TO.P,J6,3,Pin_3*%
%TO.N,/Mainboard-OpenA1K/Stepstick-Slot3/COIL-A1*%
X82500000Y-38500000D03*
%TO.P,J6,4,Pin_4*%
%TO.N,/Mainboard-OpenA1K/Stepstick-Slot3/COIL-A2*%
X85000000Y-38500000D03*
%TD*%
D14*
%TO.P,J4,1,Pin_1*%
%TO.N,/Mainboard-OpenA1K/Stepstick-Slot2/COIL-B2*%
X61000000Y-38500000D03*
D15*
%TO.P,J4,2,Pin_2*%
%TO.N,/Mainboard-OpenA1K/Stepstick-Slot2/COIL-B1*%
X63500000Y-38500000D03*
%TO.P,J4,3,Pin_3*%
%TO.N,/Mainboard-OpenA1K/Stepstick-Slot2/COIL-A1*%
X66000000Y-38500000D03*
%TO.P,J4,4,Pin_4*%
%TO.N,/Mainboard-OpenA1K/Stepstick-Slot2/COIL-A2*%
X68500000Y-38500000D03*
%TD*%
D14*
%TO.P,J2,1,Pin_1*%
%TO.N,/Mainboard-OpenA1K/Stepstick-Slot1/COIL-B2*%
X110500000Y-38500000D03*
D15*
%TO.P,J2,2,Pin_2*%
%TO.N,/Mainboard-OpenA1K/Stepstick-Slot1/COIL-B1*%
X113000000Y-38500000D03*
%TO.P,J2,3,Pin_3*%
%TO.N,/Mainboard-OpenA1K/Stepstick-Slot1/COIL-A1*%
X115500000Y-38500000D03*
%TO.P,J2,4,Pin_4*%
%TO.N,/Mainboard-OpenA1K/Stepstick-Slot1/COIL-A2*%
X118000000Y-38500000D03*
%TD*%
M02*
